<?xml version="1.0" encoding="utf-8"?>
<!-- Generator: Adobe Illustrator 25.4.1, SVG Export Plug-In . SVG Version: 6.00 Build 0)  -->
<svg version="1.1" id="icon" xmlns="http://www.w3.org/2000/svg" xmlns:xlink="http://www.w3.org/1999/xlink" x="0px" y="0px"
	 viewBox="0 0 1024 500" style="enable-background:new 0 0 1024 500;" xml:space="preserve">
<style type="text/css">
	.st0{fill:#929E9C;}
	.st1{fill:#0B73A8;}
	.st2{fill:#D7F40B;}
	.st3{fill:#FFFFBB;}
	.st4{font-family:'PTSans-Regular';}
	.st5{font-size:72px;}
	.st6{fill:#77A027;}
	.st7{fill:#4F5655;}
	.st8{fill:#2E4F5B;}
	.st9{fill:#5390A0;}
	.st10{fill:#2E4F5B;stroke:#9F9CA0;stroke-miterlimit:10;}
	.st11{fill:#807260;}
	.st12{fill:#BFBFBF;}
	.st13{fill:#B55257;}
	.st14{fill:#49423A;}
	.st15{fill:#894253;}
	.st16{fill:#4F4748;stroke:#929392;stroke-miterlimit:10;}
	.st17{fill:#4F4748;}
	.st18{fill:#969696;}
	.st19{fill:#67566B;}
	.st20{fill:#7F6541;}
	.st21{fill:#995222;}
	.st22{fill:#49423A;stroke:#898989;stroke-miterlimit:10;}
	.st23{fill:#665D54;}
	.st24{fill:#6D6D6D;}
	.st25{fill:#577F11;}
	.st26{fill:#986C3C;}
	.st27{fill:#648718;}
	.st28{fill:#494949;}
	.st29{fill:#797F7E;}
	.st30{fill:#7F7F7F;}
</style>
<g id="start-window_2_">
	<rect x="-109" y="445.9" class="st0" width="1206" height="206.3"/>
	<g>
		<polygon class="st1" points="1031.3,392.1 -108.9,392.1 -108.9,-25 1031.3,-25 1031.3,228.5 		"/>
		<g>
			<g>
				<g>
					<path class="st2" d="M918.5,99.8c1.9,0,1.9-3,0-3C916.5,96.8,916.5,99.8,918.5,99.8L918.5,99.8z"/>
				</g>
			</g>
			<g>
				<g>
					<path class="st2" d="M942.2,167.2c1.9,0,1.9-3,0-3C940.3,164.2,940.3,167.2,942.2,167.2L942.2,167.2z"/>
				</g>
			</g>
			<g>
				<g>
					<path class="st2" d="M874.6,157.9c1.9,0,1.9-3,0-3C872.7,154.9,872.6,157.9,874.6,157.9L874.6,157.9z"/>
				</g>
			</g>
			<g>
				<g>
					<path class="st2" d="M1024,162.9c1.9,0,1.9-3,0-3C1022.1,159.9,1022.1,162.9,1024,162.9L1024,162.9z"/>
				</g>
			</g>
			<g>
				<g>
					<path class="st2" d="M1011.4,109.1c1.9,0,1.9-3,0-3C1009.4,106.1,1009.4,109.1,1011.4,109.1L1011.4,109.1z"/>
				</g>
			</g>
			<g>
				<g>
					<path class="st2" d="M847.2,112c1.9,0,1.9-3,0-3C845.2,109,845.2,112,847.2,112L847.2,112z"/>
				</g>
			</g>
			<g>
				<g>
					<path class="st2" d="M736.8,157.9c1.9,0,1.9-3,0-3C734.9,154.9,734.9,157.9,736.8,157.9L736.8,157.9z"/>
				</g>
			</g>
			<g>
				<g>
					<path class="st2" d="M798.5,162.9c1.9,0,1.9-3,0-3C796.6,159.9,796.6,162.9,798.5,162.9L798.5,162.9z"/>
				</g>
			</g>
			<g>
				<g>
					<path class="st2" d="M806.8,73c1.9,0,1.9-3,0-3C804.8,70,804.8,73,806.8,73L806.8,73z"/>
				</g>
			</g>
			<g>
				<g>
					<path class="st2" d="M876.9,51.4c1.9,0,1.9-3,0-3C874.9,48.4,874.9,51.4,876.9,51.4L876.9,51.4z"/>
				</g>
			</g>
			<g>
				<g>
					<path class="st2" d="M821.8,15.2c1.9,0,1.9-3,0-3C819.9,12.2,819.9,15.2,821.8,15.2L821.8,15.2z"/>
				</g>
			</g>
			<g>
				<g>
					<path class="st2" d="M640.2,97.5c1.9,0,1.9-3,0-3C638.3,94.5,638.3,97.5,640.2,97.5L640.2,97.5z"/>
				</g>
			</g>
			<g>
				<g>
					<path class="st2" d="M623.7,145.7c1.9,0,1.9-3,0-3C621.8,142.7,621.8,145.7,623.7,145.7L623.7,145.7z"/>
				</g>
			</g>
			<g>
				<g>
					<path class="st2" d="M665.6,173.9c1.9,0,1.9-3,0-3C663.6,170.9,663.6,173.9,665.6,173.9L665.6,173.9z"/>
				</g>
			</g>
			<g>
				<g>
					<path class="st2" d="M713.9,6.8c1.9,0,1.9-3,0-3C712,3.8,712,6.8,713.9,6.8L713.9,6.8z"/>
				</g>
			</g>
			<g>
				<g>
					<path class="st2" d="M697.4,62.3c1.9,0,1.9-3,0-3C695.4,59.3,695.4,62.3,697.4,62.3L697.4,62.3z"/>
				</g>
			</g>
			<g>
				<g>
					<path class="st2" d="M739.2,98.5c1.9,0,1.9-3,0-3C737.3,95.5,737.3,98.5,739.2,98.5L739.2,98.5z"/>
				</g>
			</g>
			<g>
				<g>
					<path class="st2" d="M930.5,17.6c1.9,0,1.9-3,0-3C928.6,14.6,928.6,17.6,930.5,17.6L930.5,17.6z"/>
				</g>
			</g>
			<g>
				<g>
					<path class="st2" d="M997.3,44.3c1.9,0,1.9-3,0-3C995.4,41.3,995.4,44.3,997.3,44.3L997.3,44.3z"/>
				</g>
			</g>
			<g>
				<g>
					<path class="st2" d="M579.6,41.8c1.9,0,1.9-3,0-3C577.6,38.8,577.6,41.8,579.6,41.8L579.6,41.8z"/>
				</g>
			</g>
			<g>
				<g>
					<path class="st2" d="M638.9,25.8c1.9,0,1.9-3,0-3C637,22.8,637,25.8,638.9,25.8L638.9,25.8z"/>
				</g>
			</g>
			<g>
				<g>
					<path class="st2" d="M515.7,87.2c1.9,0,1.9-3,0-3C513.8,84.2,513.7,87.2,515.7,87.2L515.7,87.2z"/>
				</g>
			</g>
			<g>
				<g>
					<path class="st2" d="M523.1,149.7c1.9,0,1.9-3,0-3C521.2,146.7,521.2,149.7,523.1,149.7L523.1,149.7z"/>
				</g>
			</g>
			<g>
				<g>
					<path class="st2" d="M582.5,113.9c1.9,0,1.9-3,0-3C580.6,110.9,580.6,113.9,582.5,113.9L582.5,113.9z"/>
				</g>
			</g>
		</g>
		<g>
			<g>
				<g>
					<path class="st2" d="M46.9,66.9c1.9,0,1.9-3,0-3C44.9,63.9,44.9,66.9,46.9,66.9L46.9,66.9z"/>
				</g>
			</g>
			<g>
				<g>
					<path class="st2" d="M90.7,8.7c1.9,0,1.9-3,0-3C88.8,5.7,88.8,8.7,90.7,8.7L90.7,8.7z"/>
				</g>
			</g>
			<g>
				<g>
					<path class="st2" d="M118.2,54.6c1.9,0,1.9-3,0-3C116.2,51.6,116.2,54.6,118.2,54.6L118.2,54.6z"/>
				</g>
			</g>
			<g>
				<g>
					<path class="st2" d="M228.5,8.7c1.9,0,1.9-3,0-3C226.5,5.7,226.5,8.7,228.5,8.7L228.5,8.7z"/>
				</g>
			</g>
			<g>
				<g>
					<path class="st2" d="M166.8,3.7c1.9,0,1.9-3,0-3C164.8,0.7,164.8,3.7,166.8,3.7L166.8,3.7z"/>
				</g>
			</g>
			<g>
				<g>
					<path class="st2" d="M158.6,93.6c1.9,0,1.9-3,0-3C156.6,90.6,156.6,93.6,158.6,93.6L158.6,93.6z"/>
				</g>
			</g>
			<g>
				<g>
					<path class="st2" d="M88.4,115.3c1.9,0,1.9-3,0-3C86.5,112.3,86.5,115.3,88.4,115.3L88.4,115.3z"/>
				</g>
			</g>
			<g>
				<g>
					<path class="st2" d="M143.5,151.5c1.9,0,1.9-3,0-3C141.5,148.5,141.5,151.5,143.5,151.5L143.5,151.5z"/>
				</g>
			</g>
			<g>
				<g>
					<path class="st2" d="M325.1,69.1c1.9,0,1.9-3,0-3C323.1,66.1,323.1,69.1,325.1,69.1L325.1,69.1z"/>
				</g>
			</g>
			<g>
				<g>
					<path class="st2" d="M341.6,20.9c1.9,0,1.9-3,0-3C339.7,17.9,339.7,20.9,341.6,20.9L341.6,20.9z"/>
				</g>
			</g>
			<g>
				<g>
					<path class="st2" d="M251.4,159.9c1.9,0,1.9-3,0-3C249.5,156.9,249.5,159.9,251.4,159.9L251.4,159.9z"/>
				</g>
			</g>
			<g>
				<g>
					<path class="st2" d="M267.9,104.4c1.9,0,1.9-3,0-3C266,101.4,266,104.4,267.9,104.4L267.9,104.4z"/>
				</g>
			</g>
			<g>
				<g>
					<path class="st2" d="M226.1,68.1c1.9,0,1.9-3,0-3C224.2,65.1,224.2,68.1,226.1,68.1L226.1,68.1z"/>
				</g>
			</g>
			<g>
				<g>
					<path class="st2" d="M34.8,149c1.9,0,1.9-3,0-3C32.9,146,32.9,149,34.8,149L34.8,149z"/>
				</g>
			</g>
			<g>
				<g>
					<path class="st2" d="M393.2,167.6c1.9,0,1.9-3,0-3C391.2,164.6,391.2,167.6,393.2,167.6L393.2,167.6z"/>
				</g>
			</g>
			<g>
				<g>
					<path class="st2" d="M385.8,124.9c1.9,0,1.9-3,0-3C383.8,121.9,383.8,124.9,385.8,124.9L385.8,124.9z"/>
				</g>
			</g>
			<g>
				<g>
					<path class="st2" d="M326.4,140.9c1.9,0,1.9-3,0-3C324.4,137.9,324.4,140.9,326.4,140.9L326.4,140.9z"/>
				</g>
			</g>
			<g>
				<g>
					<path class="st2" d="M449.6,79.5c1.9,0,1.9-3,0-3C447.7,76.5,447.7,79.5,449.6,79.5L449.6,79.5z"/>
				</g>
			</g>
			<g>
				<g>
					<path class="st2" d="M442.2,17c1.9,0,1.9-3,0-3C440.3,14,440.3,17,442.2,17L442.2,17z"/>
				</g>
			</g>
			<g>
				<g>
					<path class="st2" d="M382.8,52.8c1.9,0,1.9-3,0-3C380.9,49.8,380.9,52.8,382.8,52.8L382.8,52.8z"/>
				</g>
			</g>
		</g>
		<g>
			<g>
				<g>
					<path class="st2" d="M84.8,278.8c1.9,0,1.9-3,0-3C82.9,275.8,82.9,278.8,84.8,278.8L84.8,278.8z"/>
				</g>
			</g>
			<g>
				<g>
					<path class="st2" d="M61.1,211.4c1.9,0,1.9-3,0-3C59.2,208.4,59.1,211.4,61.1,211.4L61.1,211.4z"/>
				</g>
			</g>
			<g>
				<g>
					<path class="st2" d="M128.7,220.6c1.9,0,1.9-3,0-3C126.8,217.6,126.8,220.6,128.7,220.6L128.7,220.6z"/>
				</g>
			</g>
			<g>
				<g>
					<path class="st2" d="M156.1,266.5c1.9,0,1.9-3,0-3C154.2,263.5,154.2,266.5,156.1,266.5L156.1,266.5z"/>
				</g>
			</g>
			<g>
				<g>
					<path class="st2" d="M266.4,220.6c1.9,0,1.9-3,0-3C264.5,217.6,264.5,220.6,266.4,220.6L266.4,220.6z"/>
				</g>
			</g>
			<g>
				<g>
					<path class="st2" d="M204.7,215.6c1.9,0,1.9-3,0-3C202.8,212.6,202.8,215.6,204.7,215.6L204.7,215.6z"/>
				</g>
			</g>
			<g>
				<g>
					<path class="st2" d="M196.5,305.5c1.9,0,1.9-3,0-3C194.6,302.5,194.6,305.5,196.5,305.5L196.5,305.5z"/>
				</g>
			</g>
			<g>
				<g>
					<path class="st2" d="M126.4,327.1c1.9,0,1.9-3,0-3C124.5,324.1,124.5,327.1,126.4,327.1L126.4,327.1z"/>
				</g>
			</g>
			<g>
				<g>
					<path class="st2" d="M181.4,363.4c1.9,0,1.9-3,0-3C179.5,360.4,179.5,363.4,181.4,363.4L181.4,363.4z"/>
				</g>
			</g>
			<g>
				<g>
					<path class="st2" d="M363.1,281c1.9,0,1.9-3,0-3C361.1,278,361.1,281,363.1,281L363.1,281z"/>
				</g>
			</g>
			<g>
				<g>
					<path class="st2" d="M379.6,232.8c1.9,0,1.9-3,0-3C377.6,229.8,377.6,232.8,379.6,232.8L379.6,232.8z"/>
				</g>
			</g>
			<g>
				<g>
					<path class="st2" d="M337.7,204.6c1.9,0,1.9-3,0-3C335.8,201.6,335.8,204.6,337.7,204.6L337.7,204.6z"/>
				</g>
			</g>
			<g>
				<g>
					<path class="st2" d="M289.4,371.7c1.9,0,1.9-3,0-3C287.5,368.7,287.5,371.7,289.4,371.7L289.4,371.7z"/>
				</g>
			</g>
			<g>
				<g>
					<path class="st2" d="M305.9,316.2c1.9,0,1.9-3,0-3C304,313.2,304,316.2,305.9,316.2L305.9,316.2z"/>
				</g>
			</g>
			<g>
				<g>
					<path class="st2" d="M264.1,280c1.9,0,1.9-3,0-3C262.1,277,262.1,280,264.1,280L264.1,280z"/>
				</g>
			</g>
			<g>
				<g>
					<path class="st2" d="M72.8,360.9c1.9,0,1.9-3,0-3C70.9,357.9,70.9,360.9,72.8,360.9L72.8,360.9z"/>
				</g>
			</g>
			<g>
				<g>
					<path class="st2" d="M6,334.2c1.9,0,1.9-3,0-3C4.1,331.2,4.1,334.2,6,334.2L6,334.2z"/>
				</g>
			</g>
			<g>
				<g>
					<path class="st2" d="M431.2,379.5c1.9,0,1.9-3,0-3C429.2,376.5,429.2,379.5,431.2,379.5L431.2,379.5z"/>
				</g>
			</g>
			<g>
				<g>
					<path class="st2" d="M423.7,336.8c1.9,0,1.9-3,0-3C421.8,333.8,421.8,336.8,423.7,336.8L423.7,336.8z"/>
				</g>
			</g>
			<g>
				<g>
					<path class="st2" d="M364.4,352.8c1.9,0,1.9-3,0-3C362.4,349.8,362.4,352.8,364.4,352.8L364.4,352.8z"/>
				</g>
			</g>
			<g>
				<g>
					<path class="st2" d="M487.6,291.4c1.9,0,1.9-3,0-3C485.7,288.4,485.7,291.4,487.6,291.4L487.6,291.4z"/>
				</g>
			</g>
			<g>
				<g>
					<path class="st2" d="M480.2,228.9c1.9,0,1.9-3,0-3C478.3,225.9,478.3,228.9,480.2,228.9L480.2,228.9z"/>
				</g>
			</g>
			<g>
				<g>
					<path class="st2" d="M420.8,264.6c1.9,0,1.9-3,0-3C418.9,261.6,418.9,264.6,420.8,264.6L420.8,264.6z"/>
				</g>
			</g>
		</g>
		<g>
			<g>
				<g>
					<path class="st2" d="M902.2,307.9c1.9,0,1.9-3,0-3C900.3,304.9,900.3,307.9,902.2,307.9L902.2,307.9z"/>
				</g>
			</g>
			<g>
				<g>
					<path class="st2" d="M926,375.3c1.9,0,1.9-3,0-3C924,372.3,924,375.3,926,375.3L926,375.3z"/>
				</g>
			</g>
			<g>
				<g>
					<path class="st2" d="M858.3,366c1.9,0,1.9-3,0-3C856.4,363,856.4,366,858.3,366L858.3,366z"/>
				</g>
			</g>
			<g>
				<g>
					<path class="st2" d="M1007.8,371c1.9,0,1.9-3,0-3C1005.8,368,1005.8,371,1007.8,371L1007.8,371z"/>
				</g>
			</g>
			<g>
				<g>
					<path class="st2" d="M995.1,317.2c1.9,0,1.9-3,0-3C993.2,314.2,993.2,317.2,995.1,317.2L995.1,317.2z"/>
				</g>
			</g>
			<g>
				<g>
					<path class="st2" d="M830.9,320.1c1.9,0,1.9-3,0-3C829,317.1,829,320.1,830.9,320.1L830.9,320.1z"/>
				</g>
			</g>
			<g>
				<g>
					<path class="st2" d="M720.6,366c1.9,0,1.9-3,0-3C718.7,363,718.7,366,720.6,366L720.6,366z"/>
				</g>
			</g>
			<g>
				<g>
					<path class="st2" d="M782.3,371c1.9,0,1.9-3,0-3C780.4,368,780.4,371,782.3,371L782.3,371z"/>
				</g>
			</g>
			<g>
				<g>
					<path class="st2" d="M790.5,281.1c1.9,0,1.9-3,0-3C788.6,278.1,788.6,281.1,790.5,281.1L790.5,281.1z"/>
				</g>
			</g>
			<g>
				<g>
					<path class="st2" d="M860.6,259.5c1.9,0,1.9-3,0-3C858.7,256.5,858.7,259.5,860.6,259.5L860.6,259.5z"/>
				</g>
			</g>
			<g>
				<g>
					<path class="st2" d="M805.6,223.3c1.9,0,1.9-3,0-3C803.7,220.3,803.7,223.3,805.6,223.3L805.6,223.3z"/>
				</g>
			</g>
			<g>
				<g>
					<path class="st2" d="M624,305.6c1.9,0,1.9-3,0-3C622.1,302.6,622.1,305.6,624,305.6L624,305.6z"/>
				</g>
			</g>
			<g>
				<g>
					<path class="st2" d="M607.5,353.8c1.9,0,1.9-3,0-3C605.5,350.8,605.5,353.8,607.5,353.8L607.5,353.8z"/>
				</g>
			</g>
			<g>
				<g>
					<path class="st2" d="M649.3,382c1.9,0,1.9-3,0-3C647.4,379,647.4,382,649.3,382L649.3,382z"/>
				</g>
			</g>
			<g>
				<g>
					<path class="st2" d="M697.7,214.9c1.9,0,1.9-3,0-3C695.7,211.9,695.7,214.9,697.7,214.9L697.7,214.9z"/>
				</g>
			</g>
			<g>
				<g>
					<path class="st2" d="M681.1,270.4c1.9,0,1.9-3,0-3C679.2,267.4,679.2,270.4,681.1,270.4L681.1,270.4z"/>
				</g>
			</g>
			<g>
				<g>
					<path class="st2" d="M723,306.6c1.9,0,1.9-3,0-3C721,303.6,721,306.6,723,306.6L723,306.6z"/>
				</g>
			</g>
			<g>
				<g>
					<path class="st2" d="M914.3,225.7c1.9,0,1.9-3,0-3C912.3,222.7,912.3,225.7,914.3,225.7L914.3,225.7z"/>
				</g>
			</g>
			<g>
				<g>
					<path class="st2" d="M981.1,252.5c1.9,0,1.9-3,0-3C979.1,249.5,979.1,252.5,981.1,252.5L981.1,252.5z"/>
				</g>
			</g>
			<g>
				<g>
					<path class="st2" d="M555.9,207.2c1.9,0,1.9-3,0-3C554,204.2,554,207.2,555.9,207.2L555.9,207.2z"/>
				</g>
			</g>
			<g>
				<g>
					<path class="st2" d="M563.3,249.9c1.9,0,1.9-3,0-3C561.4,246.9,561.4,249.9,563.3,249.9L563.3,249.9z"/>
				</g>
			</g>
			<g>
				<g>
					<path class="st2" d="M622.7,233.9c1.9,0,1.9-3,0-3C620.8,230.9,620.8,233.9,622.7,233.9L622.7,233.9z"/>
				</g>
			</g>
			<g>
				<g>
					<path class="st2" d="M499.4,295.3c1.9,0,1.9-3,0-3C497.5,292.3,497.5,295.3,499.4,295.3L499.4,295.3z"/>
				</g>
			</g>
			<g>
				<g>
					<path class="st2" d="M506.9,357.8c1.9,0,1.9-3,0-3C504.9,354.8,504.9,357.8,506.9,357.8L506.9,357.8z"/>
				</g>
			</g>
			<g>
				<g>
					<path class="st2" d="M566.2,322c1.9,0,1.9-3,0-3C564.3,319,564.3,322,566.2,322L566.2,322z"/>
				</g>
			</g>
			<g>
				<g>
					<path class="st2" d="M1017.3,215.2c1.9,0,1.9-3,0-3C1015.3,212.2,1015.3,215.2,1017.3,215.2L1017.3,215.2z"/>
				</g>
			</g>
		</g>
		<path class="st3" d="M291.2,163.7c1.4-7,6.9-12.1,13.5-13.4c-1.8-1.2-3.8-2-6-2.5c-9.2-1.8-18.2,4.1-20,13.4
			c-1.8,9.2,4.1,18.2,13.4,20c2.2,0.4,4.4,0.4,6.5,0C292.9,177.6,289.8,170.7,291.2,163.7z"/>
		<polygon class="st3" points="508.9,15.2 516.8,16.5 510.1,18.9 509.9,28.4 506.3,19.5 499.1,19.4 505.7,16 506.4,7.4 		"/>
		<polygon class="st3" points="774.6,182.8 782.5,184.1 775.8,186.5 775.6,196 772,187.1 764.8,187 771.4,183.6 772.1,175 		"/>
		<polygon class="st3" points="11.2,89.4 19,90.7 12.3,93.2 12.1,102.6 8.6,93.7 1.3,93.6 7.9,90.2 8.6,81.7 		"/>
		<polygon class="st3" points="88.9,167.9 92.3,168.5 89.4,169.5 89.3,173.6 87.8,169.8 84.6,169.7 87.5,168.3 87.8,164.5 		"/>
		<polygon class="st3" points="207.1,129.5 210.5,130 207.6,131.1 207.5,135.2 205.9,131.4 202.8,131.3 205.7,129.8 206,126.1 		"/>
		<polygon class="st3" points="460.6,148.8 464,149.4 461.1,150.5 461,154.6 459.5,150.7 456.3,150.6 459.2,149.2 459.5,145.4 		"/>
		<polygon class="st3" points="774.1,-3.6 777.4,-3.1 774.6,-2 774.5,2.1 772.9,-1.8 769.8,-1.8 772.6,-3.3 773,-7 		"/>
		<polygon class="st3" points="977.1,91 980.5,91.5 977.6,92.6 977.5,96.7 976,92.8 972.8,92.8 975.7,91.3 976,87.6 		"/>
		<polygon class="st3" points="586,167.2 589.4,167.7 586.5,168.8 586.4,172.9 584.8,169 581.7,169 584.6,167.5 584.9,163.8 		"/>
	</g>
	<text transform="matrix(1 0 0 1 223.1019 110.5323)" class="st3 st4 st5">ENERGY  CLICKER</text>
	<rect x="-109" y="320.6" class="st6" width="1207.7" height="125.4"/>
	<polygon class="st7" points="1097,248.1 1097,370.9 1083,370.9 1083,371 938.4,371 938.4,370.8 599.7,370.8 599.7,371 551.1,371 
		551.1,370.9 511,370.9 511,371 366.4,371 366.4,370.8 27.7,370.8 27.7,371 -20.9,371 -20.9,370.9 -61,370.9 -61,371 -109.7,371 
		-109.7,222.7 -61,222.7 -61,248.1 -45.1,248.1 -45.1,232.4 -30,232.4 -30,248.1 -19.9,248.1 -19.9,261 27.7,261 27.7,223.1 
		46.4,223.1 46.4,204.3 64.3,204.3 64.3,223.1 76.2,223.1 76.2,235.9 94.1,235.9 94.1,218.7 113.9,218.7 113.9,235.9 127.2,235.9 
		127.2,261 148.1,261 148.1,222.7 206.2,222.7 206.2,235.9 223.3,235.9 223.3,218.7 239.7,218.7 239.7,235.9 250.6,235.9 
		250.6,251.5 281.3,251.5 281.3,223.1 300,223.1 300,204.3 317.8,204.3 317.8,223.1 329.8,223.1 329.8,235.9 343.9,235.9 
		343.9,218.7 360.3,218.7 360.3,235.9 371.2,235.9 371.2,251.5 415,251.5 415,211.4 463.6,211.4 463.6,222.7 511,222.7 511,248.1 
		526.9,248.1 526.9,232.4 542,232.4 542,248.1 552.1,248.1 552.1,261 599.7,261 599.7,223.1 618.4,223.1 618.4,204.3 636.3,204.3 
		636.3,223.1 648.2,223.1 648.2,235.9 666,235.9 666,218.7 685.9,218.7 685.9,235.9 699.2,235.9 699.2,261 720.1,261 720.1,222.7 
		778.2,222.7 778.2,235.9 795.3,235.9 795.3,218.7 811.7,218.7 811.7,235.9 822.6,235.9 822.6,251.5 853.2,251.5 853.2,223.1 
		871.9,223.1 871.9,204.3 889.8,204.3 889.8,223.1 901.7,223.1 901.7,235.9 915.9,235.9 915.9,218.7 932.2,218.7 932.2,235.9 
		943.1,235.9 943.1,251.5 987,251.5 987,211.4 1035.6,211.4 1035.6,222.7 1083,222.7 1083,248.1 	"/>
	<g>
		<g>
			<polygon class="st8" points="279,295 244.6,319 313.4,319 			"/>
			<polygon class="st9" points="279,298.8 248,319 248,388.6 310,388.6 310,319 			"/>
			<rect x="274.5" y="356.9" class="st10" width="9.1" height="16"/>
			<rect x="247.9" y="372.1" class="st11" width="62.3" height="18"/>
			<polygon class="st8" points="290,390.1 268.1,390.1 271,372.1 287,372.1 			"/>
			<g>
				<g>
					<rect x="297.4" y="318.3" class="st3" width="5.9" height="11.9"/>
					<path class="st12" d="M297.1,317.9v12.5h6.6v-12.5H297.1z M303.3,318.3v3.7h-5.9v-3.7H303.3z M297.4,330.2v-7.8h5.9v7.8H297.4z
						"/>
				</g>
				<g>
					<rect x="287.4" y="318.3" class="st3" width="5.9" height="11.9"/>
					<path class="st12" d="M287.1,317.9v12.5h6.6v-12.5H287.1z M293.3,318.3v3.7h-5.9v-3.7H293.3z M287.4,330.2v-7.8h5.9v7.8H287.4z
						"/>
				</g>
				<g>
					<rect x="264.8" y="318.3" class="st3" width="5.9" height="11.9"/>
					<path class="st12" d="M264.4,317.9v12.5h6.6v-12.5H264.4z M270.7,318.3v3.7h-5.9v-3.7H270.7z M264.8,330.2v-7.8h5.9v7.8H264.8z
						"/>
				</g>
				<g>
					<rect x="254.7" y="318.3" class="st3" width="5.9" height="11.9"/>
					<path class="st12" d="M254.4,317.9v12.5h6.6v-12.5H254.4z M260.6,318.3v3.7h-5.9v-3.7H260.6z M254.7,330.2v-7.8h5.9v7.8H254.7z
						"/>
				</g>
				<g>
					<rect x="297.4" y="336.2" class="st3" width="5.9" height="11.9"/>
					<path class="st12" d="M297.1,335.8v12.5h6.6v-12.5H297.1z M303.3,336.2v3.7h-5.9v-3.7H303.3z M297.4,348v-7.8h5.9v7.8H297.4z"
						/>
				</g>
				<g>
					<rect x="287.4" y="336.2" class="st3" width="5.9" height="11.9"/>
					<path class="st12" d="M287.1,335.8v12.5h6.6v-12.5H287.1z M293.3,336.2v3.7h-5.9v-3.7H293.3z M287.4,348v-7.8h5.9v7.8H287.4z"
						/>
				</g>
				<g>
					<rect x="264.8" y="336.2" class="st3" width="5.9" height="11.9"/>
					<path class="st12" d="M264.4,335.8v12.5h6.6v-12.5H264.4z M270.7,336.2v3.7h-5.9v-3.7H270.7z M264.8,348v-7.8h5.9v7.8H264.8z"
						/>
				</g>
				<g>
					<rect x="254.7" y="336.2" class="st3" width="5.9" height="11.9"/>
					<path class="st12" d="M254.4,335.8v12.5h6.6v-12.5H254.4z M260.6,336.2v3.7h-5.9v-3.7H260.6z M254.7,348v-7.8h5.9v7.8H254.7z"
						/>
				</g>
				<g>
					<rect x="297.4" y="354" class="st3" width="5.9" height="11.9"/>
					<path class="st12" d="M297.1,353.7v12.5h6.6v-12.5H297.1z M303.3,354v3.7h-5.9V354H303.3z M297.4,365.9v-7.8h5.9v7.8H297.4z"/>
				</g>
				<g>
					<rect x="287.4" y="354" class="st3" width="5.9" height="11.9"/>
					<path class="st12" d="M287.1,353.7v12.5h6.6v-12.5H287.1z M293.3,354v3.7h-5.9V354H293.3z M287.4,365.9v-7.8h5.9v7.8H287.4z"/>
				</g>
				<g>
					<rect x="264.8" y="354" class="st3" width="5.9" height="11.9"/>
					<path class="st12" d="M264.4,353.7v12.5h6.6v-12.5H264.4z M270.7,354v3.7h-5.9V354H270.7z M264.8,365.9v-7.8h5.9v7.8H264.8z"/>
				</g>
				<g>
					<rect x="254.7" y="354" class="st3" width="5.9" height="11.9"/>
					<path class="st12" d="M254.4,353.7v12.5h6.6v-12.5H254.4z M260.6,354v3.7h-5.9V354H260.6z M254.7,365.9v-7.8h5.9v7.8H254.7z"/>
				</g>
			</g>
		</g>
		<g>
			<polygon class="st8" points="722.3,295 687.9,319 756.6,319 			"/>
			<polygon class="st9" points="722.3,298.8 691.3,319 691.3,388.6 753.3,388.6 753.3,319 			"/>
			<rect x="717.7" y="356.9" class="st10" width="9.1" height="16"/>
			<rect x="691.1" y="372.1" class="st11" width="62.3" height="18"/>
			<polygon class="st8" points="733.2,390.1 711.3,390.1 714.3,372.1 730.2,372.1 			"/>
			<g>
				<g>
					<rect x="740.6" y="318.3" class="st3" width="5.9" height="11.9"/>
					<path class="st12" d="M740.3,317.9v12.5h6.6v-12.5H740.3z M746.5,318.3v3.7h-5.9v-3.7H746.5z M740.6,330.2v-7.8h5.9v7.8H740.6z
						"/>
				</g>
				<g>
					<rect x="730.6" y="318.3" class="st3" width="5.9" height="11.9"/>
					<path class="st12" d="M730.3,317.9v12.5h6.6v-12.5H730.3z M736.5,318.3v3.7h-5.9v-3.7H736.5z M730.6,330.2v-7.8h5.9v7.8H730.6z
						"/>
				</g>
				<g>
					<rect x="708" y="318.3" class="st3" width="5.9" height="11.9"/>
					<path class="st12" d="M707.7,317.9v12.5h6.6v-12.5H707.7z M713.9,318.3v3.7H708v-3.7H713.9z M708,330.2v-7.8h5.9v7.8H708z"/>
				</g>
				<g>
					<rect x="698" y="318.3" class="st3" width="5.9" height="11.9"/>
					<path class="st12" d="M697.6,317.9v12.5h6.6v-12.5H697.6z M703.9,318.3v3.7H698v-3.7H703.9z M698,330.2v-7.8h5.9v7.8H698z"/>
				</g>
				<g>
					<rect x="740.6" y="336.2" class="st3" width="5.9" height="11.9"/>
					<path class="st12" d="M740.3,335.8v12.5h6.6v-12.5H740.3z M746.5,336.2v3.7h-5.9v-3.7H746.5z M740.6,348v-7.8h5.9v7.8H740.6z"
						/>
				</g>
				<g>
					<rect x="730.6" y="336.2" class="st3" width="5.9" height="11.9"/>
					<path class="st12" d="M730.3,335.8v12.5h6.6v-12.5H730.3z M736.5,336.2v3.7h-5.9v-3.7H736.5z M730.6,348v-7.8h5.9v7.8H730.6z"
						/>
				</g>
				<g>
					<rect x="708" y="336.2" class="st3" width="5.9" height="11.9"/>
					<path class="st12" d="M707.7,335.8v12.5h6.6v-12.5H707.7z M713.9,336.2v3.7H708v-3.7H713.9z M708,348v-7.8h5.9v7.8H708z"/>
				</g>
				<g>
					<rect x="698" y="336.2" class="st3" width="5.9" height="11.9"/>
					<path class="st12" d="M697.6,335.8v12.5h6.6v-12.5H697.6z M703.9,336.2v3.7H698v-3.7H703.9z M698,348v-7.8h5.9v7.8H698z"/>
				</g>
				<g>
					<rect x="740.6" y="354" class="st3" width="5.9" height="11.9"/>
					<path class="st12" d="M740.3,353.7v12.5h6.6v-12.5H740.3z M746.5,354v3.7h-5.9V354H746.5z M740.6,365.9v-7.8h5.9v7.8H740.6z"/>
				</g>
				<g>
					<rect x="730.6" y="354" class="st3" width="5.9" height="11.9"/>
					<path class="st12" d="M730.3,353.7v12.5h6.6v-12.5H730.3z M736.5,354v3.7h-5.9V354H736.5z M730.6,365.9v-7.8h5.9v7.8H730.6z"/>
				</g>
				<g>
					<rect x="708" y="354" class="st3" width="5.9" height="11.9"/>
					<path class="st12" d="M707.7,353.7v12.5h6.6v-12.5H707.7z M713.9,354v3.7H708V354H713.9z M708,365.9v-7.8h5.9v7.8H708z"/>
				</g>
				<g>
					<rect x="698" y="354" class="st3" width="5.9" height="11.9"/>
					<path class="st12" d="M697.6,353.7v12.5h6.6v-12.5H697.6z M703.9,354v3.7H698V354H703.9z M698,365.9v-7.8h5.9v7.8H698z"/>
				</g>
			</g>
		</g>
		<g>
			<polygon class="st8" points="108.2,295 73.8,319 142.6,319 			"/>
			<polygon class="st13" points="108.2,298.8 77.2,319 77.2,388.6 139.2,388.6 139.2,319 			"/>
			<rect x="103.6" y="356.9" class="st10" width="9.1" height="16"/>
			<rect x="77.1" y="372.1" class="st11" width="62.3" height="18"/>
			<polygon class="st8" points="119.1,390.1 97.2,390.1 100.2,372.1 116.2,372.1 			"/>
			<g>
				<g>
					<rect x="126.6" y="318.3" class="st3" width="5.9" height="11.9"/>
					<path class="st12" d="M126.2,317.9v12.5h6.6v-12.5H126.2z M132.5,318.3v3.7h-5.9v-3.7H132.5z M126.6,330.2v-7.8h5.9v7.8H126.6z
						"/>
				</g>
				<g>
					<rect x="116.6" y="318.3" class="st3" width="5.9" height="11.9"/>
					<path class="st12" d="M116.2,317.9v12.5h6.6v-12.5H116.2z M122.5,318.3v3.7h-5.9v-3.7H122.5z M116.6,330.2v-7.8h5.9v7.8H116.6z
						"/>
				</g>
				<g>
					<rect x="93.9" y="318.3" class="st3" width="5.9" height="11.9"/>
					<path class="st12" d="M93.6,317.9v12.5h6.6v-12.5H93.6z M99.8,318.3v3.7h-5.9v-3.7H99.8z M93.9,330.2v-7.8h5.9v7.8H93.9z"/>
				</g>
				<g>
					<rect x="83.9" y="318.3" class="st3" width="5.9" height="11.9"/>
					<path class="st12" d="M83.6,317.9v12.5h6.6v-12.5H83.6z M89.8,318.3v3.7h-5.9v-3.7H89.8z M83.9,330.2v-7.8h5.9v7.8H83.9z"/>
				</g>
				<g>
					<rect x="126.6" y="336.2" class="st3" width="5.9" height="11.9"/>
					<path class="st12" d="M126.2,335.8v12.5h6.6v-12.5H126.2z M132.5,336.2v3.7h-5.9v-3.7H132.5z M126.6,348v-7.8h5.9v7.8H126.6z"
						/>
				</g>
				<g>
					<rect x="116.6" y="336.2" class="st3" width="5.9" height="11.9"/>
					<path class="st12" d="M116.2,335.8v12.5h6.6v-12.5H116.2z M122.5,336.2v3.7h-5.9v-3.7H122.5z M116.6,348v-7.8h5.9v7.8H116.6z"
						/>
				</g>
				<g>
					<rect x="93.9" y="336.2" class="st3" width="5.9" height="11.9"/>
					<path class="st12" d="M93.6,335.8v12.5h6.6v-12.5H93.6z M99.8,336.2v3.7h-5.9v-3.7H99.8z M93.9,348v-7.8h5.9v7.8H93.9z"/>
				</g>
				<g>
					<rect x="83.9" y="336.2" class="st3" width="5.9" height="11.9"/>
					<path class="st12" d="M83.6,335.8v12.5h6.6v-12.5H83.6z M89.8,336.2v3.7h-5.9v-3.7H89.8z M83.9,348v-7.8h5.9v7.8H83.9z"/>
				</g>
				<g>
					<rect x="126.6" y="354" class="st3" width="5.9" height="11.9"/>
					<path class="st12" d="M126.2,353.7v12.5h6.6v-12.5H126.2z M132.5,354v3.7h-5.9V354H132.5z M126.6,365.9v-7.8h5.9v7.8H126.6z"/>
				</g>
				<g>
					<rect x="116.6" y="354" class="st3" width="5.9" height="11.9"/>
					<path class="st12" d="M116.2,353.7v12.5h6.6v-12.5H116.2z M122.5,354v3.7h-5.9V354H122.5z M116.6,365.9v-7.8h5.9v7.8H116.6z"/>
				</g>
				<g>
					<rect x="93.9" y="354" class="st3" width="5.9" height="11.9"/>
					<path class="st12" d="M93.6,353.7v12.5h6.6v-12.5H93.6z M99.8,354v3.7h-5.9V354H99.8z M93.9,365.9v-7.8h5.9v7.8H93.9z"/>
				</g>
				<g>
					<rect x="83.9" y="354" class="st3" width="5.9" height="11.9"/>
					<path class="st12" d="M83.6,353.7v12.5h6.6v-12.5H83.6z M89.8,354v3.7h-5.9V354H89.8z M83.9,365.9v-7.8h5.9v7.8H83.9z"/>
				</g>
			</g>
		</g>
		<g>
			<polygon class="st8" points="449.5,295 415.1,319 483.9,319 			"/>
			<polygon class="st13" points="449.5,298.8 418.5,319 418.5,388.6 480.5,388.6 480.5,319 			"/>
			<rect x="444.9" y="356.9" class="st10" width="9.1" height="16"/>
			<rect x="418.4" y="372.1" class="st11" width="62.3" height="18"/>
			<polygon class="st8" points="460.4,390.1 438.6,390.1 441.5,372.1 457.5,372.1 			"/>
			<g>
				<g>
					<rect x="467.9" y="318.3" class="st3" width="5.9" height="11.9"/>
					<path class="st12" d="M467.6,317.9v12.5h6.6v-12.5H467.6z M473.8,318.3v3.7h-5.9v-3.7H473.8z M467.9,330.2v-7.8h5.9v7.8H467.9z
						"/>
				</g>
				<g>
					<rect x="457.9" y="318.3" class="st3" width="5.9" height="11.9"/>
					<path class="st12" d="M457.5,317.9v12.5h6.6v-12.5H457.5z M463.8,318.3v3.7h-5.9v-3.7H463.8z M457.9,330.2v-7.8h5.9v7.8H457.9z
						"/>
				</g>
				<g>
					<rect x="435.2" y="318.3" class="st3" width="5.9" height="11.9"/>
					<path class="st12" d="M434.9,317.9v12.5h6.6v-12.5H434.9z M441.1,318.3v3.7h-5.9v-3.7H441.1z M435.2,330.2v-7.8h5.9v7.8H435.2z
						"/>
				</g>
				<g>
					<rect x="425.2" y="318.3" class="st3" width="5.9" height="11.9"/>
					<path class="st12" d="M424.9,317.9v12.5h6.6v-12.5H424.9z M431.1,318.3v3.7h-5.9v-3.7H431.1z M425.2,330.2v-7.8h5.9v7.8H425.2z
						"/>
				</g>
				<g>
					<rect x="467.9" y="336.2" class="st3" width="5.9" height="11.9"/>
					<path class="st12" d="M467.6,335.8v12.5h6.6v-12.5H467.6z M473.8,336.2v3.7h-5.9v-3.7H473.8z M467.9,348v-7.8h5.9v7.8H467.9z"
						/>
				</g>
				<g>
					<rect x="457.9" y="336.2" class="st3" width="5.9" height="11.9"/>
					<path class="st12" d="M457.5,335.8v12.5h6.6v-12.5H457.5z M463.8,336.2v3.7h-5.9v-3.7H463.8z M457.9,348v-7.8h5.9v7.8H457.9z"
						/>
				</g>
				<g>
					<rect x="435.2" y="336.2" class="st3" width="5.9" height="11.9"/>
					<path class="st12" d="M434.9,335.8v12.5h6.6v-12.5H434.9z M441.1,336.2v3.7h-5.9v-3.7H441.1z M435.2,348v-7.8h5.9v7.8H435.2z"
						/>
				</g>
				<g>
					<rect x="425.2" y="336.2" class="st3" width="5.9" height="11.9"/>
					<path class="st12" d="M424.9,335.8v12.5h6.6v-12.5H424.9z M431.1,336.2v3.7h-5.9v-3.7H431.1z M425.2,348v-7.8h5.9v7.8H425.2z"
						/>
				</g>
				<g>
					<rect x="467.9" y="354" class="st3" width="5.9" height="11.9"/>
					<path class="st12" d="M467.6,353.7v12.5h6.6v-12.5H467.6z M473.8,354v3.7h-5.9V354H473.8z M467.9,365.9v-7.8h5.9v7.8H467.9z"/>
				</g>
				<g>
					<rect x="457.9" y="354" class="st3" width="5.9" height="11.9"/>
					<path class="st12" d="M457.5,353.7v12.5h6.6v-12.5H457.5z M463.8,354v3.7h-5.9V354H463.8z M457.9,365.9v-7.8h5.9v7.8H457.9z"/>
				</g>
				<g>
					<rect x="435.2" y="354" class="st3" width="5.9" height="11.9"/>
					<path class="st12" d="M434.9,353.7v12.5h6.6v-12.5H434.9z M441.1,354v3.7h-5.9V354H441.1z M435.2,365.9v-7.8h5.9v7.8H435.2z"/>
				</g>
				<g>
					<rect x="425.2" y="354" class="st3" width="5.9" height="11.9"/>
					<path class="st12" d="M424.9,353.7v12.5h6.6v-12.5H424.9z M431.1,354v3.7h-5.9V354H431.1z M425.2,365.9v-7.8h5.9v7.8H425.2z"/>
				</g>
			</g>
		</g>
		<g>
			<polygon class="st14" points="365,246.2 314.4,264.1 415.6,264.1 			"/>
			<polygon class="st15" points="406.5,264.1 364.8,249.1 323.1,264.1 321.4,264.1 321.4,264.7 321.3,264.8 321.4,264.8 
				321.4,374.4 408.7,374.4 408.7,264.1 			"/>
			<rect x="321.1" y="374.4" class="st11" width="87.7" height="17"/>
			<rect x="359.3" y="354" class="st16" width="11.4" height="20"/>
			<polygon class="st17" points="376.9,391.5 353.1,391.5 356.3,374 373.7,374 			"/>
			<g>
				<g>
					<rect x="394.8" y="274.2" class="st3" width="6.4" height="13"/>
					<path class="st18" d="M394.5,273.8v13.6h7.1v-13.6H394.5z M401.3,274.2v4h-6.4v-4H401.3z M394.8,287.2v-8.5h6.4v8.5H394.8z"/>
				</g>
				<g>
					<rect x="382.9" y="274.2" class="st3" width="6.4" height="13"/>
					<path class="st18" d="M382.5,273.8v13.6h7.1v-13.6H382.5z M389.3,274.2v4h-6.4v-4H389.3z M382.9,287.2v-8.5h6.4v8.5H382.9z"/>
				</g>
				<g>
					<rect x="370.9" y="274.2" class="st3" width="6.4" height="13"/>
					<path class="st18" d="M370.6,273.8v13.6h7.1v-13.6H370.6z M377.3,274.2v4h-6.4v-4H377.3z M370.9,287.2v-8.5h6.4v8.5H370.9z"/>
				</g>
				<g>
					<rect x="352.6" y="274.2" class="st3" width="6.4" height="13"/>
					<path class="st18" d="M352.3,273.8v13.6h7.1v-13.6H352.3z M359.1,274.2v4h-6.4v-4H359.1z M352.6,287.2v-8.5h6.4v8.5H352.6z"/>
				</g>
				<g>
					<rect x="340.7" y="274.2" class="st3" width="6.4" height="13"/>
					<path class="st18" d="M340.3,273.8v13.6h7.1v-13.6H340.3z M347.1,274.2v4h-6.4v-4H347.1z M340.7,287.2v-8.5h6.4v8.5H340.7z"/>
				</g>
				<g>
					<rect x="328.7" y="274.2" class="st3" width="6.4" height="13"/>
					<path class="st18" d="M328.4,273.8v13.6h7.1v-13.6H328.4z M335.1,274.2v4h-6.4v-4H335.1z M328.7,287.2v-8.5h6.4v8.5H328.7z"/>
				</g>
				<g>
					<rect x="394.8" y="293.6" class="st3" width="6.4" height="13"/>
					<path class="st18" d="M394.5,293.2v13.6h7.1v-13.6H394.5z M401.3,293.6v4h-6.4v-4H401.3z M394.8,306.6V298h6.4v8.5H394.8z"/>
				</g>
				<g>
					<rect x="382.9" y="293.6" class="st3" width="6.4" height="13"/>
					<path class="st18" d="M382.5,293.2v13.6h7.1v-13.6H382.5z M389.3,293.6v4h-6.4v-4H389.3z M382.9,306.6V298h6.4v8.5H382.9z"/>
				</g>
				<g>
					<rect x="370.9" y="293.6" class="st3" width="6.4" height="13"/>
					<path class="st18" d="M370.6,293.2v13.6h7.1v-13.6H370.6z M377.3,293.6v4h-6.4v-4H377.3z M370.9,306.6V298h6.4v8.5H370.9z"/>
				</g>
				<g>
					<rect x="352.6" y="293.6" class="st3" width="6.4" height="13"/>
					<path class="st18" d="M352.3,293.2v13.6h7.1v-13.6H352.3z M359.1,293.6v4h-6.4v-4H359.1z M352.6,306.6V298h6.4v8.5H352.6z"/>
				</g>
				<g>
					<rect x="340.7" y="293.6" class="st3" width="6.4" height="13"/>
					<path class="st18" d="M340.3,293.2v13.6h7.1v-13.6H340.3z M347.1,293.6v4h-6.4v-4H347.1z M340.7,306.6V298h6.4v8.5H340.7z"/>
				</g>
				<g>
					<rect x="328.7" y="293.6" class="st3" width="6.4" height="13"/>
					<path class="st18" d="M328.4,293.2v13.6h7.1v-13.6H328.4z M335.1,293.6v4h-6.4v-4H335.1z M328.7,306.6V298h6.4v8.5H328.7z"/>
				</g>
				<g>
					<rect x="394.8" y="313" class="st3" width="6.4" height="13"/>
					<path class="st18" d="M394.5,312.6v13.6h7.1v-13.6H394.5z M401.3,313v4h-6.4v-4H401.3z M394.8,326v-8.5h6.4v8.5H394.8z"/>
				</g>
				<g>
					<rect x="382.9" y="313" class="st3" width="6.4" height="13"/>
					<path class="st18" d="M382.5,312.6v13.6h7.1v-13.6H382.5z M389.3,313v4h-6.4v-4H389.3z M382.9,326v-8.5h6.4v8.5H382.9z"/>
				</g>
				<g>
					<rect x="370.9" y="313" class="st3" width="6.4" height="13"/>
					<path class="st18" d="M370.6,312.6v13.6h7.1v-13.6H370.6z M377.3,313v4h-6.4v-4H377.3z M370.9,326v-8.5h6.4v8.5H370.9z"/>
				</g>
				<g>
					<rect x="352.6" y="313" class="st3" width="6.4" height="13"/>
					<path class="st18" d="M352.3,312.6v13.6h7.1v-13.6H352.3z M359.1,313v4h-6.4v-4H359.1z M352.6,326v-8.5h6.4v8.5H352.6z"/>
				</g>
				<g>
					<rect x="340.7" y="313" class="st3" width="6.4" height="13"/>
					<path class="st18" d="M340.3,312.6v13.6h7.1v-13.6H340.3z M347.1,313v4h-6.4v-4H347.1z M340.7,326v-8.5h6.4v8.5H340.7z"/>
				</g>
				<g>
					<rect x="328.7" y="313" class="st3" width="6.4" height="13"/>
					<path class="st18" d="M328.4,312.6v13.6h7.1v-13.6H328.4z M335.1,313v4h-6.4v-4H335.1z M328.7,326v-8.5h6.4v8.5H328.7z"/>
				</g>
				<g>
					<rect x="394.8" y="332.4" class="st3" width="6.4" height="13"/>
					<path class="st18" d="M394.5,332v13.6h7.1V332H394.5z M401.3,332.4v4h-6.4v-4H401.3z M394.8,345.4v-8.5h6.4v8.5H394.8z"/>
				</g>
				<g>
					<rect x="382.9" y="332.4" class="st3" width="6.4" height="13"/>
					<path class="st18" d="M382.5,332v13.6h7.1V332H382.5z M389.3,332.4v4h-6.4v-4H389.3z M382.9,345.4v-8.5h6.4v8.5H382.9z"/>
				</g>
				<g>
					<rect x="370.9" y="332.4" class="st3" width="6.4" height="13"/>
					<path class="st18" d="M370.6,332v13.6h7.1V332H370.6z M377.3,332.4v4h-6.4v-4H377.3z M370.9,345.4v-8.5h6.4v8.5H370.9z"/>
				</g>
				<g>
					<rect x="352.6" y="332.4" class="st3" width="6.4" height="13"/>
					<path class="st18" d="M352.3,332v13.6h7.1V332H352.3z M359.1,332.4v4h-6.4v-4H359.1z M352.6,345.4v-8.5h6.4v8.5H352.6z"/>
				</g>
				<g>
					<rect x="340.7" y="332.4" class="st3" width="6.4" height="13"/>
					<path class="st18" d="M340.3,332v13.6h7.1V332H340.3z M347.1,332.4v4h-6.4v-4H347.1z M340.7,345.4v-8.5h6.4v8.5H340.7z"/>
				</g>
				<g>
					<rect x="328.7" y="332.4" class="st3" width="6.4" height="13"/>
					<path class="st18" d="M328.4,332v13.6h7.1V332H328.4z M335.1,332.4v4h-6.4v-4H335.1z M328.7,345.4v-8.5h6.4v8.5H328.7z"/>
				</g>
				<g>
					<rect x="394.8" y="354.2" class="st3" width="6.4" height="13"/>
					<path class="st18" d="M394.5,353.8v13.6h7.1v-13.6H394.5z M401.3,354.2v4h-6.4v-4H401.3z M394.8,367.1v-8.5h6.4v8.5H394.8z"/>
				</g>
				<g>
					<rect x="382.9" y="354.2" class="st3" width="6.4" height="13"/>
					<path class="st18" d="M382.5,353.8v13.6h7.1v-13.6H382.5z M389.3,354.2v4h-6.4v-4H389.3z M382.9,367.1v-8.5h6.4v8.5H382.9z"/>
				</g>
				<g>
					<rect x="340.7" y="354.2" class="st3" width="6.4" height="13"/>
					<path class="st18" d="M340.3,353.8v13.6h7.1v-13.6H340.3z M347.1,354.2v4h-6.4v-4H347.1z M340.7,367.1v-8.5h6.4v8.5H340.7z"/>
				</g>
				<g>
					<rect x="328.7" y="354.2" class="st3" width="6.4" height="13"/>
					<path class="st18" d="M328.4,353.8v13.6h7.1v-13.6H328.4z M335.1,354.2v4h-6.4v-4H335.1z M328.7,367.1v-8.5h6.4v8.5H328.7z"/>
				</g>
			</g>
		</g>
		<g>
			<polygon class="st14" points="635.4,246.2 584.8,264.1 686,264.1 			"/>
			<polygon class="st15" points="676.9,264.1 635.2,249.1 593.5,264.1 591.8,264.1 591.8,264.7 591.7,264.8 591.8,264.8 
				591.8,374.4 679.1,374.4 679.1,264.1 			"/>
			<rect x="591.6" y="374.4" class="st11" width="87.7" height="17"/>
			<rect x="629.7" y="354" class="st16" width="11.4" height="20"/>
			<polygon class="st17" points="647.3,391.5 623.5,391.5 626.7,374 644.1,374 			"/>
			<g>
				<g>
					<rect x="665.3" y="274.2" class="st3" width="6.4" height="13"/>
					<path class="st18" d="M664.9,273.8v13.6h7.1v-13.6H664.9z M671.7,274.2v4h-6.4v-4H671.7z M665.3,287.2v-8.5h6.4v8.5H665.3z"/>
				</g>
				<g>
					<rect x="653.3" y="274.2" class="st3" width="6.4" height="13"/>
					<path class="st18" d="M652.9,273.8v13.6h7.1v-13.6H652.9z M659.7,274.2v4h-6.4v-4H659.7z M653.3,287.2v-8.5h6.4v8.5H653.3z"/>
				</g>
				<g>
					<rect x="641.3" y="274.2" class="st3" width="6.4" height="13"/>
					<path class="st18" d="M641,273.8v13.6h7.1v-13.6H641z M647.8,274.2v4h-6.4v-4H647.8z M641.3,287.2v-8.5h6.4v8.5H641.3z"/>
				</g>
				<g>
					<rect x="623.1" y="274.2" class="st3" width="6.4" height="13"/>
					<path class="st18" d="M622.7,273.8v13.6h7.1v-13.6H622.7z M629.5,274.2v4h-6.4v-4H629.5z M623.1,287.2v-8.5h6.4v8.5H623.1z"/>
				</g>
				<g>
					<rect x="611.1" y="274.2" class="st3" width="6.4" height="13"/>
					<path class="st18" d="M610.7,273.8v13.6h7.1v-13.6H610.7z M617.5,274.2v4h-6.4v-4H617.5z M611.1,287.2v-8.5h6.4v8.5H611.1z"/>
				</g>
				<g>
					<rect x="599.1" y="274.2" class="st3" width="6.4" height="13"/>
					<path class="st18" d="M598.8,273.8v13.6h7.1v-13.6H598.8z M605.6,274.2v4h-6.4v-4H605.6z M599.1,287.2v-8.5h6.4v8.5H599.1z"/>
				</g>
				<g>
					<rect x="665.3" y="293.6" class="st3" width="6.4" height="13"/>
					<path class="st18" d="M664.9,293.2v13.6h7.1v-13.6H664.9z M671.7,293.6v4h-6.4v-4H671.7z M665.3,306.6V298h6.4v8.5H665.3z"/>
				</g>
				<g>
					<rect x="653.3" y="293.6" class="st3" width="6.4" height="13"/>
					<path class="st18" d="M652.9,293.2v13.6h7.1v-13.6H652.9z M659.7,293.6v4h-6.4v-4H659.7z M653.3,306.6V298h6.4v8.5H653.3z"/>
				</g>
				<g>
					<rect x="641.3" y="293.6" class="st3" width="6.4" height="13"/>
					<path class="st18" d="M641,293.2v13.6h7.1v-13.6H641z M647.8,293.6v4h-6.4v-4H647.8z M641.3,306.6V298h6.4v8.5H641.3z"/>
				</g>
				<g>
					<rect x="623.1" y="293.6" class="st3" width="6.4" height="13"/>
					<path class="st18" d="M622.7,293.2v13.6h7.1v-13.6H622.7z M629.5,293.6v4h-6.4v-4H629.5z M623.1,306.6V298h6.4v8.5H623.1z"/>
				</g>
				<g>
					<rect x="611.1" y="293.6" class="st3" width="6.4" height="13"/>
					<path class="st18" d="M610.7,293.2v13.6h7.1v-13.6H610.7z M617.5,293.6v4h-6.4v-4H617.5z M611.1,306.6V298h6.4v8.5H611.1z"/>
				</g>
				<g>
					<rect x="599.1" y="293.6" class="st3" width="6.4" height="13"/>
					<path class="st18" d="M598.8,293.2v13.6h7.1v-13.6H598.8z M605.6,293.6v4h-6.4v-4H605.6z M599.1,306.6V298h6.4v8.5H599.1z"/>
				</g>
				<g>
					<rect x="665.3" y="313" class="st3" width="6.4" height="13"/>
					<path class="st18" d="M664.9,312.6v13.6h7.1v-13.6H664.9z M671.7,313v4h-6.4v-4H671.7z M665.3,326v-8.5h6.4v8.5H665.3z"/>
				</g>
				<g>
					<rect x="653.3" y="313" class="st3" width="6.4" height="13"/>
					<path class="st18" d="M652.9,312.6v13.6h7.1v-13.6H652.9z M659.7,313v4h-6.4v-4H659.7z M653.3,326v-8.5h6.4v8.5H653.3z"/>
				</g>
				<g>
					<rect x="641.3" y="313" class="st3" width="6.4" height="13"/>
					<path class="st18" d="M641,312.6v13.6h7.1v-13.6H641z M647.8,313v4h-6.4v-4H647.8z M641.3,326v-8.5h6.4v8.5H641.3z"/>
				</g>
				<g>
					<rect x="623.1" y="313" class="st3" width="6.4" height="13"/>
					<path class="st18" d="M622.7,312.6v13.6h7.1v-13.6H622.7z M629.5,313v4h-6.4v-4H629.5z M623.1,326v-8.5h6.4v8.5H623.1z"/>
				</g>
				<g>
					<rect x="611.1" y="313" class="st3" width="6.4" height="13"/>
					<path class="st18" d="M610.7,312.6v13.6h7.1v-13.6H610.7z M617.5,313v4h-6.4v-4H617.5z M611.1,326v-8.5h6.4v8.5H611.1z"/>
				</g>
				<g>
					<rect x="599.1" y="313" class="st3" width="6.4" height="13"/>
					<path class="st18" d="M598.8,312.6v13.6h7.1v-13.6H598.8z M605.6,313v4h-6.4v-4H605.6z M599.1,326v-8.5h6.4v8.5H599.1z"/>
				</g>
				<g>
					<rect x="665.3" y="332.4" class="st3" width="6.4" height="13"/>
					<path class="st18" d="M664.9,332v13.6h7.1V332H664.9z M671.7,332.4v4h-6.4v-4H671.7z M665.3,345.4v-8.5h6.4v8.5H665.3z"/>
				</g>
				<g>
					<rect x="653.3" y="332.4" class="st3" width="6.4" height="13"/>
					<path class="st18" d="M652.9,332v13.6h7.1V332H652.9z M659.7,332.4v4h-6.4v-4H659.7z M653.3,345.4v-8.5h6.4v8.5H653.3z"/>
				</g>
				<g>
					<rect x="641.3" y="332.4" class="st3" width="6.4" height="13"/>
					<path class="st18" d="M641,332v13.6h7.1V332H641z M647.8,332.4v4h-6.4v-4H647.8z M641.3,345.4v-8.5h6.4v8.5H641.3z"/>
				</g>
				<g>
					<rect x="623.1" y="332.4" class="st3" width="6.4" height="13"/>
					<path class="st18" d="M622.7,332v13.6h7.1V332H622.7z M629.5,332.4v4h-6.4v-4H629.5z M623.1,345.4v-8.5h6.4v8.5H623.1z"/>
				</g>
				<g>
					<rect x="611.1" y="332.4" class="st3" width="6.4" height="13"/>
					<path class="st18" d="M610.7,332v13.6h7.1V332H610.7z M617.5,332.4v4h-6.4v-4H617.5z M611.1,345.4v-8.5h6.4v8.5H611.1z"/>
				</g>
				<g>
					<rect x="599.1" y="332.4" class="st3" width="6.4" height="13"/>
					<path class="st18" d="M598.8,332v13.6h7.1V332H598.8z M605.6,332.4v4h-6.4v-4H605.6z M599.1,345.4v-8.5h6.4v8.5H599.1z"/>
				</g>
				<g>
					<rect x="665.3" y="354.2" class="st3" width="6.4" height="13"/>
					<path class="st18" d="M664.9,353.8v13.6h7.1v-13.6H664.9z M671.7,354.2v4h-6.4v-4H671.7z M665.3,367.1v-8.5h6.4v8.5H665.3z"/>
				</g>
				<g>
					<rect x="653.3" y="354.2" class="st3" width="6.4" height="13"/>
					<path class="st18" d="M652.9,353.8v13.6h7.1v-13.6H652.9z M659.7,354.2v4h-6.4v-4H659.7z M653.3,367.1v-8.5h6.4v8.5H653.3z"/>
				</g>
				<g>
					<rect x="611.1" y="354.2" class="st3" width="6.4" height="13"/>
					<path class="st18" d="M610.7,353.8v13.6h7.1v-13.6H610.7z M617.5,354.2v4h-6.4v-4H617.5z M611.1,367.1v-8.5h6.4v8.5H611.1z"/>
				</g>
				<g>
					<rect x="599.1" y="354.2" class="st3" width="6.4" height="13"/>
					<path class="st18" d="M598.8,353.8v13.6h7.1v-13.6H598.8z M605.6,354.2v4h-6.4v-4H605.6z M599.1,367.1v-8.5h6.4v8.5H599.1z"/>
				</g>
			</g>
		</g>
		<g>
			<polygon class="st14" points="809.1,246.2 758.5,264.1 859.6,264.1 			"/>
			<polygon class="st19" points="850.6,264.1 808.9,249.1 767.1,264.1 765.4,264.1 765.4,264.7 765.4,264.8 765.4,264.8 
				765.4,374.4 852.7,374.4 852.7,264.1 			"/>
			<rect x="765.2" y="374.4" class="st11" width="87.7" height="17"/>
			<rect x="803.4" y="354" class="st16" width="11.4" height="20"/>
			<polygon class="st17" points="821,391.5 797.2,391.5 800.4,374 817.7,374 			"/>
			<g>
				<g>
					<rect x="838.9" y="274.2" class="st3" width="6.4" height="13"/>
					<path class="st18" d="M838.6,273.8v13.6h7.1v-13.6H838.6z M845.3,274.2v4h-6.4v-4H845.3z M838.9,287.2v-8.5h6.4v8.5H838.9z"/>
				</g>
				<g>
					<rect x="827" y="274.2" class="st3" width="6.4" height="13"/>
					<path class="st18" d="M826.6,273.8v13.6h7.1v-13.6H826.6z M833.4,274.2v4H827v-4H833.4z M827,287.2v-8.5h6.4v8.5H827z"/>
				</g>
				<g>
					<rect x="815" y="274.2" class="st3" width="6.4" height="13"/>
					<path class="st18" d="M814.6,273.8v13.6h7.1v-13.6H814.6z M821.4,274.2v4H815v-4H821.4z M815,287.2v-8.5h6.4v8.5H815z"/>
				</g>
				<g>
					<rect x="796.7" y="274.2" class="st3" width="6.4" height="13"/>
					<path class="st18" d="M796.4,273.8v13.6h7.1v-13.6H796.4z M803.1,274.2v4h-6.4v-4H803.1z M796.7,287.2v-8.5h6.4v8.5H796.7z"/>
				</g>
				<g>
					<rect x="784.8" y="274.2" class="st3" width="6.4" height="13"/>
					<path class="st18" d="M784.4,273.8v13.6h7.1v-13.6H784.4z M791.2,274.2v4h-6.4v-4H791.2z M784.8,287.2v-8.5h6.4v8.5H784.8z"/>
				</g>
				<g>
					<rect x="772.8" y="274.2" class="st3" width="6.4" height="13"/>
					<path class="st18" d="M772.4,273.8v13.6h7.1v-13.6H772.4z M779.2,274.2v4h-6.4v-4H779.2z M772.8,287.2v-8.5h6.4v8.5H772.8z"/>
				</g>
				<g>
					<rect x="838.9" y="293.6" class="st3" width="6.4" height="13"/>
					<path class="st18" d="M838.6,293.2v13.6h7.1v-13.6H838.6z M845.3,293.6v4h-6.4v-4H845.3z M838.9,306.6V298h6.4v8.5H838.9z"/>
				</g>
				<g>
					<rect x="827" y="293.6" class="st3" width="6.4" height="13"/>
					<path class="st18" d="M826.6,293.2v13.6h7.1v-13.6H826.6z M833.4,293.6v4H827v-4H833.4z M827,306.6V298h6.4v8.5H827z"/>
				</g>
				<g>
					<rect x="815" y="293.6" class="st3" width="6.4" height="13"/>
					<path class="st18" d="M814.6,293.2v13.6h7.1v-13.6H814.6z M821.4,293.6v4H815v-4H821.4z M815,306.6V298h6.4v8.5H815z"/>
				</g>
				<g>
					<rect x="796.7" y="293.6" class="st3" width="6.4" height="13"/>
					<path class="st18" d="M796.4,293.2v13.6h7.1v-13.6H796.4z M803.1,293.6v4h-6.4v-4H803.1z M796.7,306.6V298h6.4v8.5H796.7z"/>
				</g>
				<g>
					<rect x="784.8" y="293.6" class="st3" width="6.4" height="13"/>
					<path class="st18" d="M784.4,293.2v13.6h7.1v-13.6H784.4z M791.2,293.6v4h-6.4v-4H791.2z M784.8,306.6V298h6.4v8.5H784.8z"/>
				</g>
				<g>
					<rect x="772.8" y="293.6" class="st3" width="6.4" height="13"/>
					<path class="st18" d="M772.4,293.2v13.6h7.1v-13.6H772.4z M779.2,293.6v4h-6.4v-4H779.2z M772.8,306.6V298h6.4v8.5H772.8z"/>
				</g>
				<g>
					<rect x="838.9" y="313" class="st3" width="6.4" height="13"/>
					<path class="st18" d="M838.6,312.6v13.6h7.1v-13.6H838.6z M845.3,313v4h-6.4v-4H845.3z M838.9,326v-8.5h6.4v8.5H838.9z"/>
				</g>
				<g>
					<rect x="827" y="313" class="st3" width="6.4" height="13"/>
					<path class="st18" d="M826.6,312.6v13.6h7.1v-13.6H826.6z M833.4,313v4H827v-4H833.4z M827,326v-8.5h6.4v8.5H827z"/>
				</g>
				<g>
					<rect x="815" y="313" class="st3" width="6.4" height="13"/>
					<path class="st18" d="M814.6,312.6v13.6h7.1v-13.6H814.6z M821.4,313v4H815v-4H821.4z M815,326v-8.5h6.4v8.5H815z"/>
				</g>
				<g>
					<rect x="796.7" y="313" class="st3" width="6.4" height="13"/>
					<path class="st18" d="M796.4,312.6v13.6h7.1v-13.6H796.4z M803.1,313v4h-6.4v-4H803.1z M796.7,326v-8.5h6.4v8.5H796.7z"/>
				</g>
				<g>
					<rect x="784.8" y="313" class="st3" width="6.4" height="13"/>
					<path class="st18" d="M784.4,312.6v13.6h7.1v-13.6H784.4z M791.2,313v4h-6.4v-4H791.2z M784.8,326v-8.5h6.4v8.5H784.8z"/>
				</g>
				<g>
					<rect x="772.8" y="313" class="st3" width="6.4" height="13"/>
					<path class="st18" d="M772.4,312.6v13.6h7.1v-13.6H772.4z M779.2,313v4h-6.4v-4H779.2z M772.8,326v-8.5h6.4v8.5H772.8z"/>
				</g>
				<g>
					<rect x="838.9" y="332.4" class="st3" width="6.4" height="13"/>
					<path class="st18" d="M838.6,332v13.6h7.1V332H838.6z M845.3,332.4v4h-6.4v-4H845.3z M838.9,345.4v-8.5h6.4v8.5H838.9z"/>
				</g>
				<g>
					<rect x="827" y="332.4" class="st3" width="6.4" height="13"/>
					<path class="st18" d="M826.6,332v13.6h7.1V332H826.6z M833.4,332.4v4H827v-4H833.4z M827,345.4v-8.5h6.4v8.5H827z"/>
				</g>
				<g>
					<rect x="815" y="332.4" class="st3" width="6.4" height="13"/>
					<path class="st18" d="M814.6,332v13.6h7.1V332H814.6z M821.4,332.4v4H815v-4H821.4z M815,345.4v-8.5h6.4v8.5H815z"/>
				</g>
				<g>
					<rect x="796.7" y="332.4" class="st3" width="6.4" height="13"/>
					<path class="st18" d="M796.4,332v13.6h7.1V332H796.4z M803.1,332.4v4h-6.4v-4H803.1z M796.7,345.4v-8.5h6.4v8.5H796.7z"/>
				</g>
				<g>
					<rect x="784.8" y="332.4" class="st3" width="6.4" height="13"/>
					<path class="st18" d="M784.4,332v13.6h7.1V332H784.4z M791.2,332.4v4h-6.4v-4H791.2z M784.8,345.4v-8.5h6.4v8.5H784.8z"/>
				</g>
				<g>
					<rect x="772.8" y="332.4" class="st3" width="6.4" height="13"/>
					<path class="st18" d="M772.4,332v13.6h7.1V332H772.4z M779.2,332.4v4h-6.4v-4H779.2z M772.8,345.4v-8.5h6.4v8.5H772.8z"/>
				</g>
				<g>
					<rect x="838.9" y="354.2" class="st3" width="6.4" height="13"/>
					<path class="st18" d="M838.6,353.8v13.6h7.1v-13.6H838.6z M845.3,354.2v4h-6.4v-4H845.3z M838.9,367.1v-8.5h6.4v8.5H838.9z"/>
				</g>
				<g>
					<rect x="827" y="354.2" class="st3" width="6.4" height="13"/>
					<path class="st18" d="M826.6,353.8v13.6h7.1v-13.6H826.6z M833.4,354.2v4H827v-4H833.4z M827,367.1v-8.5h6.4v8.5H827z"/>
				</g>
				<g>
					<rect x="784.8" y="354.2" class="st3" width="6.4" height="13"/>
					<path class="st18" d="M784.4,353.8v13.6h7.1v-13.6H784.4z M791.2,354.2v4h-6.4v-4H791.2z M784.8,367.1v-8.5h6.4v8.5H784.8z"/>
				</g>
				<g>
					<rect x="772.8" y="354.2" class="st3" width="6.4" height="13"/>
					<path class="st18" d="M772.4,353.8v13.6h7.1v-13.6H772.4z M779.2,354.2v4h-6.4v-4H779.2z M772.8,367.1v-8.5h6.4v8.5H772.8z"/>
				</g>
			</g>
		</g>
		<g>
			<rect x="10.9" y="283.1" class="st20" width="47.7" height="90.4"/>
			<rect x="10.9" y="373.5" class="st11" width="47.7" height="17.8"/>
			<rect x="42.1" y="352.1" class="st16" width="12" height="21"/>
			<polygon class="st17" points="58.1,391.3 38.3,391.3 41,373 55.4,373 			"/>
			<polygon class="st14" points="64.3,283.8 5.3,283.8 10.7,272.5 58.9,272.5 			"/>
			<g>
				<rect x="16.5" y="266.2" class="st14" width="3.6" height="12.9"/>
				<rect x="15.3" y="264.1" class="st14" width="6" height="2.1"/>
			</g>
			<g>
				<g>
					<rect x="44.4" y="291" class="st3" width="7" height="14.1"/>
					<path class="st18" d="M44,290.6v14.8h7.8v-14.8H44z M51.3,291v4.3h-7V291H51.3z M44.4,305.1v-9.3h7v9.3H44.4z"/>
				</g>
				<g>
					<rect x="31.3" y="291" class="st3" width="7" height="14.1"/>
					<path class="st18" d="M30.9,290.6v14.8h7.8v-14.8H30.9z M38.3,291v4.3h-7V291H38.3z M31.3,305.1v-9.3h7v9.3H31.3z"/>
				</g>
				<g>
					<rect x="18.3" y="291" class="st3" width="7" height="14.1"/>
					<path class="st18" d="M17.9,290.6v14.8h7.8v-14.8H17.9z M25.3,291v4.3h-7V291H25.3z M18.3,305.1v-9.3h7v9.3H18.3z"/>
				</g>
				<g>
					<rect x="44.4" y="310.9" class="st3" width="7" height="14.1"/>
					<path class="st18" d="M44,310.5v14.8h7.8v-14.8H44z M51.3,310.9v4.3h-7v-4.3H51.3z M44.4,325v-9.3h7v9.3H44.4z"/>
				</g>
				<g>
					<rect x="31.3" y="310.9" class="st3" width="7" height="14.1"/>
					<path class="st18" d="M30.9,310.5v14.8h7.8v-14.8H30.9z M38.3,310.9v4.3h-7v-4.3H38.3z M31.3,325v-9.3h7v9.3H31.3z"/>
				</g>
				<g>
					<rect x="18.3" y="310.9" class="st3" width="7" height="14.1"/>
					<path class="st18" d="M17.9,310.5v14.8h7.8v-14.8H17.9z M25.3,310.9v4.3h-7v-4.3H25.3z M18.3,325v-9.3h7v9.3H18.3z"/>
				</g>
				<g>
					<rect x="44.4" y="330.9" class="st3" width="7" height="14.1"/>
					<path class="st18" d="M44,330.4v14.8h7.8v-14.8H44z M51.3,330.9v4.3h-7v-4.3H51.3z M44.4,344.9v-9.3h7v9.3H44.4z"/>
				</g>
				<g>
					<rect x="31.3" y="330.9" class="st3" width="7" height="14.1"/>
					<path class="st18" d="M30.9,330.4v14.8h7.8v-14.8H30.9z M38.3,330.9v4.3h-7v-4.3H38.3z M31.3,344.9v-9.3h7v9.3H31.3z"/>
				</g>
				<g>
					<rect x="18.3" y="330.9" class="st3" width="7" height="14.1"/>
					<path class="st18" d="M17.9,330.4v14.8h7.8v-14.8H17.9z M25.3,330.9v4.3h-7v-4.3H25.3z M18.3,344.9v-9.3h7v9.3H18.3z"/>
				</g>
				<g>
					<rect x="31.3" y="351.2" class="st3" width="7" height="14.1"/>
					<path class="st18" d="M30.9,350.8v14.8h7.8v-14.8H30.9z M38.3,351.2v4.3h-7v-4.3H38.3z M31.3,365.3V356h7v9.3H31.3z"/>
				</g>
				<g>
					<rect x="18.3" y="351.2" class="st3" width="7" height="14.1"/>
					<path class="st18" d="M17.9,350.8v14.8h7.8v-14.8H17.9z M25.3,351.2v4.3h-7v-4.3H25.3z M18.3,365.3V356h7v9.3H18.3z"/>
				</g>
			</g>
		</g>
		<g>
			<rect x="865.8" y="283.1" class="st20" width="47.7" height="90.4"/>
			<rect x="865.8" y="373.5" class="st11" width="47.7" height="17.8"/>
			<rect x="896.9" y="352.1" class="st16" width="12" height="21"/>
			<polygon class="st17" points="912.9,391.3 893.1,391.3 895.8,373 910.2,373 			"/>
			<polygon class="st14" points="919.1,283.8 860.1,283.8 865.5,272.5 913.7,272.5 			"/>
			<g>
				<rect x="871.3" y="266.2" class="st14" width="3.6" height="12.9"/>
				<rect x="870.1" y="264.1" class="st14" width="6" height="2.1"/>
			</g>
			<g>
				<g>
					<rect x="899.2" y="291" class="st3" width="7" height="14.1"/>
					<path class="st18" d="M898.8,290.6v14.8h7.8v-14.8H898.8z M906.1,291v4.3h-7V291H906.1z M899.2,305.1v-9.3h7v9.3H899.2z"/>
				</g>
				<g>
					<rect x="886.1" y="291" class="st3" width="7" height="14.1"/>
					<path class="st18" d="M885.7,290.6v14.8h7.8v-14.8H885.7z M893.1,291v4.3h-7V291H893.1z M886.1,305.1v-9.3h7v9.3H886.1z"/>
				</g>
				<g>
					<rect x="873.1" y="291" class="st3" width="7" height="14.1"/>
					<path class="st18" d="M872.7,290.6v14.8h7.8v-14.8H872.7z M880.1,291v4.3h-7V291H880.1z M873.1,305.1v-9.3h7v9.3H873.1z"/>
				</g>
				<g>
					<rect x="899.2" y="310.9" class="st3" width="7" height="14.1"/>
					<path class="st18" d="M898.8,310.5v14.8h7.8v-14.8H898.8z M906.1,310.9v4.3h-7v-4.3H906.1z M899.2,325v-9.3h7v9.3H899.2z"/>
				</g>
				<g>
					<rect x="886.1" y="310.9" class="st3" width="7" height="14.1"/>
					<path class="st18" d="M885.7,310.5v14.8h7.8v-14.8H885.7z M893.1,310.9v4.3h-7v-4.3H893.1z M886.1,325v-9.3h7v9.3H886.1z"/>
				</g>
				<g>
					<rect x="873.1" y="310.9" class="st3" width="7" height="14.1"/>
					<path class="st18" d="M872.7,310.5v14.8h7.8v-14.8H872.7z M880.1,310.9v4.3h-7v-4.3H880.1z M873.1,325v-9.3h7v9.3H873.1z"/>
				</g>
				<g>
					<rect x="899.2" y="330.9" class="st3" width="7" height="14.1"/>
					<path class="st18" d="M898.8,330.4v14.8h7.8v-14.8H898.8z M906.1,330.9v4.3h-7v-4.3H906.1z M899.2,344.9v-9.3h7v9.3H899.2z"/>
				</g>
				<g>
					<rect x="886.1" y="330.9" class="st3" width="7" height="14.1"/>
					<path class="st18" d="M885.7,330.4v14.8h7.8v-14.8H885.7z M893.1,330.9v4.3h-7v-4.3H893.1z M886.1,344.9v-9.3h7v9.3H886.1z"/>
				</g>
				<g>
					<rect x="873.1" y="330.9" class="st3" width="7" height="14.1"/>
					<path class="st18" d="M872.7,330.4v14.8h7.8v-14.8H872.7z M880.1,330.9v4.3h-7v-4.3H880.1z M873.1,344.9v-9.3h7v9.3H873.1z"/>
				</g>
				<g>
					<rect x="886.1" y="351.2" class="st3" width="7" height="14.1"/>
					<path class="st18" d="M885.7,350.8v14.8h7.8v-14.8H885.7z M893.1,351.2v4.3h-7v-4.3H893.1z M886.1,365.3V356h7v9.3H886.1z"/>
				</g>
				<g>
					<rect x="873.1" y="351.2" class="st3" width="7" height="14.1"/>
					<path class="st18" d="M872.7,350.8v14.8h7.8v-14.8H872.7z M880.1,351.2v4.3h-7v-4.3H880.1z M873.1,365.3V356h7v9.3H873.1z"/>
				</g>
			</g>
		</g>
		<g>
			<polygon class="st14" points="193.6,252.4 146.6,269.1 240.6,269.1 			"/>
			<polygon class="st21" points="232.2,269 193.4,255.1 154.7,269 153.1,269 153.1,269.6 153,269.6 153.1,269.6 153.1,371.4 
				234.2,371.4 234.2,269 			"/>
			<rect x="152.9" y="371.4" class="st11" width="81.5" height="18.1"/>
			<g>
				<rect x="187.6" y="350.2" class="st22" width="12" height="21.1"/>
				<g>
					<polygon class="st14" points="203.5,389.5 183.7,389.5 184.1,387 184.3,385.6 184.7,382.8 184.9,381.4 185.2,379 185.4,377.7 
						185.8,375.2 186,373.9 186.4,371.1 200.8,371.1 201.3,373.9 201.4,375.2 201.8,377.7 202,379 202.3,381.4 202.5,382.8 
						203,385.6 203.1,387 					"/>
					<polygon class="st23" points="202.5,382.8 184.7,382.8 184.9,381.9 202.3,381.9 					"/>
					<polygon class="st23" points="203.1,387 184.1,387 184.3,386.1 203,386.1 					"/>
					<polygon class="st23" points="202,379 185.2,379 185.4,378.3 201.8,378.3 					"/>
					<polygon class="st23" points="201.4,375.2 185.8,375.2 186,374.4 201.3,374.4 					"/>
				</g>
			</g>
			<g>
				<rect x="164.4" y="348" class="st3" width="5.9" height="12"/>
				<path class="st12" d="M164.1,347.7v12.6h6.6v-12.6H164.1z M170.4,348v3.7h-5.9V348H170.4z M164.4,360v-7.9h5.9v7.9H164.4z"/>
			</g>
			<g>
				<rect x="216.8" y="348" class="st3" width="5.9" height="12"/>
				<path class="st12" d="M216.5,347.7v12.6h6.6v-12.6H216.5z M222.8,348v3.7h-5.9V348H222.8z M216.8,360v-7.9h5.9v7.9H216.8z"/>
			</g>
			<g>
				<rect x="164.4" y="330.2" class="st3" width="5.9" height="12"/>
				<path class="st12" d="M164.1,329.8v12.6h6.6v-12.6H164.1z M170.4,330.2v3.7h-5.9v-3.7H170.4z M164.4,342.1v-7.9h5.9v7.9H164.4z"
					/>
			</g>
			<g>
				<rect x="181.3" y="329" class="st12" width="8.5" height="15.8"/>
				<rect x="182" y="329.6" class="st3" width="7.2" height="14.6"/>
			</g>
			<g>
				<rect x="189.4" y="329" class="st12" width="8.5" height="15.8"/>
				<rect x="190" y="329.6" class="st3" width="7.2" height="14.6"/>
			</g>
			<g>
				<rect x="197.5" y="329" class="st12" width="8.5" height="15.8"/>
				<rect x="198.1" y="329.6" class="st3" width="7.2" height="14.6"/>
			</g>
			<g>
				<rect x="216.8" y="330.2" class="st3" width="5.9" height="12"/>
				<path class="st12" d="M216.5,329.8v12.6h6.6v-12.6H216.5z M222.8,330.2v3.7h-5.9v-3.7H222.8z M216.8,342.1v-7.9h5.9v7.9H216.8z"
					/>
			</g>
			<g>
				<rect x="164.4" y="312.2" class="st3" width="5.9" height="12"/>
				<path class="st12" d="M164.1,311.8v12.6h6.6v-12.6H164.1z M170.4,312.2v3.7h-5.9v-3.7H170.4z M164.4,324.1v-7.9h5.9v7.9H164.4z"
					/>
			</g>
			<g>
				<rect x="181.3" y="310" class="st12" width="8.5" height="15.8"/>
				<rect x="182" y="310.6" class="st3" width="7.2" height="14.6"/>
			</g>
			<g>
				<rect x="189.4" y="310" class="st12" width="8.5" height="15.8"/>
				<rect x="190" y="310.6" class="st3" width="7.2" height="14.6"/>
			</g>
			<g>
				<rect x="197.5" y="310" class="st12" width="8.5" height="15.8"/>
				<rect x="198.1" y="310.6" class="st3" width="7.2" height="14.6"/>
			</g>
			<g>
				<rect x="216.8" y="312.2" class="st3" width="5.9" height="12"/>
				<path class="st12" d="M216.5,311.8v12.6h6.6v-12.6H216.5z M222.8,312.2v3.7h-5.9v-3.7H222.8z M216.8,324.1v-7.9h5.9v7.9H216.8z"
					/>
			</g>
			<g>
				<rect x="164.4" y="294.2" class="st3" width="5.9" height="12"/>
				<path class="st12" d="M164.1,293.8v12.6h6.6v-12.6H164.1z M170.4,294.2v3.7h-5.9v-3.7H170.4z M164.4,306.2v-7.9h5.9v7.9H164.4z"
					/>
			</g>
			<g>
				<rect x="181.3" y="290.9" class="st12" width="8.5" height="15.8"/>
				<rect x="182" y="291.6" class="st3" width="7.2" height="14.6"/>
			</g>
			<g>
				<rect x="189.4" y="290.9" class="st12" width="8.5" height="15.8"/>
				<rect x="190" y="291.6" class="st3" width="7.2" height="14.6"/>
			</g>
			<g>
				<rect x="197.5" y="290.9" class="st12" width="8.5" height="15.8"/>
				<rect x="198.1" y="291.6" class="st3" width="7.2" height="14.6"/>
			</g>
			<g>
				<rect x="216.8" y="294.2" class="st3" width="5.9" height="12"/>
				<path class="st12" d="M216.5,293.8v12.6h6.6v-12.6H216.5z M222.8,294.2v3.7h-5.9v-3.7H222.8z M216.8,306.2v-7.9h5.9v7.9H216.8z"
					/>
			</g>
			<g>
				<rect x="164.4" y="276.5" class="st3" width="5.9" height="12"/>
				<path class="st12" d="M164.1,276.2v12.6h6.6v-12.6H164.1z M170.4,276.5v3.7h-5.9v-3.7H170.4z M164.4,288.5v-7.9h5.9v7.9H164.4z"
					/>
			</g>
			<g>
				<rect x="181.3" y="271.9" class="st12" width="8.5" height="15.8"/>
				<rect x="182" y="272.5" class="st3" width="7.2" height="14.6"/>
			</g>
			<g>
				<rect x="189.4" y="271.9" class="st12" width="8.5" height="15.8"/>
				<rect x="190" y="272.5" class="st3" width="7.2" height="14.6"/>
			</g>
			<g>
				<rect x="197.5" y="271.9" class="st12" width="8.5" height="15.8"/>
				<rect x="198.1" y="272.5" class="st3" width="7.2" height="14.6"/>
			</g>
			<g>
				<rect x="216.8" y="276.5" class="st3" width="5.9" height="12"/>
				<path class="st12" d="M216.5,276.2v12.6h6.6v-12.6H216.5z M222.8,276.5v3.7h-5.9v-3.7H222.8z M216.8,288.5v-7.9h5.9v7.9H216.8z"
					/>
			</g>
			<g>
				<path class="st24" d="M180.7,336.1v0.7v0.5v6.8v0.9v0.3h25.8V345v-0.9v-6.8v-0.5v-0.7H180.7z M190.2,337.3h2.7v6.8h-2.7V337.3z
					 M188.9,344.1h-2.7v-6.8h2.7V344.1z M194.3,337.3h2.7v6.8h-2.7V337.3z M198.4,337.3h2.7v6.8h-2.7V337.3z M182.1,337.3h2.7v6.8
					h-2.7V337.3z M205.2,344.1h-2.7v-6.8h2.7V344.1z"/>
				<path class="st24" d="M180.7,317.1v0.7v0.5v6.8v0.9v0.3h25.8V326V325v-6.8v-0.5v-0.7H180.7z M190.2,318.3h2.7v6.8h-2.7V318.3z
					 M188.9,325h-2.7v-6.8h2.7V325z M194.3,318.3h2.7v6.8h-2.7V318.3z M198.4,318.3h2.7v6.8h-2.7V318.3z M182.1,318.3h2.7v6.8h-2.7
					V318.3z M205.2,325h-2.7v-6.8h2.7V325z"/>
				<path class="st24" d="M180.7,298.1v0.7v0.5v6.8v0.9v0.3h25.8v-0.3V306v-6.8v-0.5v-0.7H180.7z M190.2,299.2h2.7v6.8h-2.7V299.2z
					 M188.9,306h-2.7v-6.8h2.7V306z M194.3,299.2h2.7v6.8h-2.7V299.2z M198.4,299.2h2.7v6.8h-2.7V299.2z M182.1,299.2h2.7v6.8h-2.7
					V299.2z M205.2,306h-2.7v-6.8h2.7V306z"/>
				<path class="st24" d="M180.7,279.1v0.7v0.5v6.8v0.9v0.3h25.8v-0.3V287v-6.8v-0.5v-0.7H180.7z M190.2,280.2h2.7v6.8h-2.7V280.2z
					 M188.9,287h-2.7v-6.8h2.7V287z M194.3,280.2h2.7v6.8h-2.7V280.2z M198.4,280.2h2.7v6.8h-2.7V280.2z M182.1,280.2h2.7v6.8h-2.7
					V280.2z M205.2,287h-2.7v-6.8h2.7V287z"/>
			</g>
		</g>
		<g>
			<polygon class="st14" points="537.2,252.4 490.2,269.1 584.1,269.1 			"/>
			<polygon class="st19" points="575.7,269 537,255.1 498.2,269 496.6,269 496.6,269.6 496.6,269.6 496.6,269.6 496.6,371.4 
				577.7,371.4 577.7,269 			"/>
			<rect x="496.4" y="371.4" class="st11" width="81.5" height="18.1"/>
			<g>
				<rect x="531.1" y="350.2" class="st22" width="12" height="21.1"/>
				<g>
					<polygon class="st14" points="547.1,389.5 527.3,389.5 527.6,387 527.8,385.6 528.2,382.8 528.4,381.4 528.8,379 529,377.7 
						529.3,375.2 529.5,373.9 529.9,371.1 544.4,371.1 544.8,373.9 545,375.2 545.3,377.7 545.5,379 545.9,381.4 546.1,382.8 
						546.5,385.6 546.7,387 					"/>
					<polygon class="st23" points="546.1,382.8 528.2,382.8 528.4,381.9 545.9,381.9 					"/>
					<polygon class="st23" points="546.7,387 527.6,387 527.8,386.1 546.5,386.1 					"/>
					<polygon class="st23" points="545.5,379 528.8,379 529,378.3 545.3,378.3 					"/>
					<polygon class="st23" points="545,375.2 529.3,375.2 529.5,374.4 544.8,374.4 					"/>
				</g>
			</g>
			<g>
				<rect x="508" y="348" class="st3" width="5.9" height="12"/>
				<path class="st12" d="M507.7,347.7v12.6h6.6v-12.6H507.7z M513.9,348v3.7H508V348H513.9z M508,360v-7.9h5.9v7.9H508z"/>
			</g>
			<g>
				<rect x="560.4" y="348" class="st3" width="5.9" height="12"/>
				<path class="st12" d="M560.1,347.7v12.6h6.6v-12.6H560.1z M566.3,348v3.7h-5.9V348H566.3z M560.4,360v-7.9h5.9v7.9H560.4z"/>
			</g>
			<g>
				<rect x="508" y="330.2" class="st3" width="5.9" height="12"/>
				<path class="st12" d="M507.7,329.8v12.6h6.6v-12.6H507.7z M513.9,330.2v3.7H508v-3.7H513.9z M508,342.1v-7.9h5.9v7.9H508z"/>
			</g>
			<g>
				<rect x="524.8" y="329" class="st12" width="8.5" height="15.8"/>
				<rect x="525.5" y="329.6" class="st3" width="7.2" height="14.6"/>
			</g>
			<g>
				<rect x="532.9" y="329" class="st12" width="8.5" height="15.8"/>
				<rect x="533.6" y="329.6" class="st3" width="7.2" height="14.6"/>
			</g>
			<g>
				<rect x="541" y="329" class="st12" width="8.5" height="15.8"/>
				<rect x="541.7" y="329.6" class="st3" width="7.2" height="14.6"/>
			</g>
			<g>
				<rect x="560.4" y="330.2" class="st3" width="5.9" height="12"/>
				<path class="st12" d="M560.1,329.8v12.6h6.6v-12.6H560.1z M566.3,330.2v3.7h-5.9v-3.7H566.3z M560.4,342.1v-7.9h5.9v7.9H560.4z"
					/>
			</g>
			<g>
				<rect x="508" y="312.2" class="st3" width="5.9" height="12"/>
				<path class="st12" d="M507.7,311.8v12.6h6.6v-12.6H507.7z M513.9,312.2v3.7H508v-3.7H513.9z M508,324.1v-7.9h5.9v7.9H508z"/>
			</g>
			<g>
				<rect x="524.8" y="310" class="st12" width="8.5" height="15.8"/>
				<rect x="525.5" y="310.6" class="st3" width="7.2" height="14.6"/>
			</g>
			<g>
				<rect x="532.9" y="310" class="st12" width="8.5" height="15.8"/>
				<rect x="533.6" y="310.6" class="st3" width="7.2" height="14.6"/>
			</g>
			<g>
				<rect x="541" y="310" class="st12" width="8.5" height="15.8"/>
				<rect x="541.7" y="310.6" class="st3" width="7.2" height="14.6"/>
			</g>
			<g>
				<rect x="560.4" y="312.2" class="st3" width="5.9" height="12"/>
				<path class="st12" d="M560.1,311.8v12.6h6.6v-12.6H560.1z M566.3,312.2v3.7h-5.9v-3.7H566.3z M560.4,324.1v-7.9h5.9v7.9H560.4z"
					/>
			</g>
			<g>
				<rect x="508" y="294.2" class="st3" width="5.9" height="12"/>
				<path class="st12" d="M507.7,293.8v12.6h6.6v-12.6H507.7z M513.9,294.2v3.7H508v-3.7H513.9z M508,306.2v-7.9h5.9v7.9H508z"/>
			</g>
			<g>
				<rect x="524.8" y="290.9" class="st12" width="8.5" height="15.8"/>
				<rect x="525.5" y="291.6" class="st3" width="7.2" height="14.6"/>
			</g>
			<g>
				<rect x="532.9" y="290.9" class="st12" width="8.5" height="15.8"/>
				<rect x="533.6" y="291.6" class="st3" width="7.2" height="14.6"/>
			</g>
			<g>
				<rect x="541" y="290.9" class="st12" width="8.5" height="15.8"/>
				<rect x="541.7" y="291.6" class="st3" width="7.2" height="14.6"/>
			</g>
			<g>
				<rect x="560.4" y="294.2" class="st3" width="5.9" height="12"/>
				<path class="st12" d="M560.1,293.8v12.6h6.6v-12.6H560.1z M566.3,294.2v3.7h-5.9v-3.7H566.3z M560.4,306.2v-7.9h5.9v7.9H560.4z"
					/>
			</g>
			<g>
				<rect x="508" y="276.5" class="st3" width="5.9" height="12"/>
				<path class="st12" d="M507.7,276.2v12.6h6.6v-12.6H507.7z M513.9,276.5v3.7H508v-3.7H513.9z M508,288.5v-7.9h5.9v7.9H508z"/>
			</g>
			<g>
				<rect x="524.8" y="271.9" class="st12" width="8.5" height="15.8"/>
				<rect x="525.5" y="272.5" class="st3" width="7.2" height="14.6"/>
			</g>
			<g>
				<rect x="532.9" y="271.9" class="st12" width="8.5" height="15.8"/>
				<rect x="533.6" y="272.5" class="st3" width="7.2" height="14.6"/>
			</g>
			<g>
				<rect x="541" y="271.9" class="st12" width="8.5" height="15.8"/>
				<rect x="541.7" y="272.5" class="st3" width="7.2" height="14.6"/>
			</g>
			<g>
				<rect x="560.4" y="276.5" class="st3" width="5.9" height="12"/>
				<path class="st12" d="M560.1,276.2v12.6h6.6v-12.6H560.1z M566.3,276.5v3.7h-5.9v-3.7H566.3z M560.4,288.5v-7.9h5.9v7.9H560.4z"
					/>
			</g>
			<g>
				<path class="st24" d="M524.3,336.1v0.7v0.5v6.8v0.9v0.3h25.8V345v-0.9v-6.8v-0.5v-0.7H524.3z M533.8,337.3h2.7v6.8h-2.7V337.3z
					 M532.4,344.1h-2.7v-6.8h2.7V344.1z M537.8,337.3h2.7v6.8h-2.7V337.3z M541.9,337.3h2.7v6.8h-2.7V337.3z M525.6,337.3h2.7v6.8
					h-2.7V337.3z M548.7,344.1H546v-6.8h2.7V344.1z"/>
				<path class="st24" d="M524.3,317.1v0.7v0.5v6.8v0.9v0.3h25.8V326V325v-6.8v-0.5v-0.7H524.3z M533.8,318.3h2.7v6.8h-2.7V318.3z
					 M532.4,325h-2.7v-6.8h2.7V325z M537.8,318.3h2.7v6.8h-2.7V318.3z M541.9,318.3h2.7v6.8h-2.7V318.3z M525.6,318.3h2.7v6.8h-2.7
					V318.3z M548.7,325H546v-6.8h2.7V325z"/>
				<path class="st24" d="M524.3,298.1v0.7v0.5v6.8v0.9v0.3h25.8v-0.3V306v-6.8v-0.5v-0.7H524.3z M533.8,299.2h2.7v6.8h-2.7V299.2z
					 M532.4,306h-2.7v-6.8h2.7V306z M537.8,299.2h2.7v6.8h-2.7V299.2z M541.9,299.2h2.7v6.8h-2.7V299.2z M525.6,299.2h2.7v6.8h-2.7
					V299.2z M548.7,306H546v-6.8h2.7V306z"/>
				<path class="st24" d="M524.3,279.1v0.7v0.5v6.8v0.9v0.3h25.8v-0.3V287v-6.8v-0.5v-0.7H524.3z M533.8,280.2h2.7v6.8h-2.7V280.2z
					 M532.4,287h-2.7v-6.8h2.7V287z M537.8,280.2h2.7v6.8h-2.7V280.2z M541.9,280.2h2.7v6.8h-2.7V280.2z M525.6,280.2h2.7v6.8h-2.7
					V280.2z M548.7,287H546v-6.8h2.7V287z"/>
			</g>
		</g>
		<g>
			<polygon class="st14" points="973.3,252.4 926.3,269.1 1020.2,269.1 			"/>
			<polygon class="st21" points="1011.8,269 973.1,255.1 934.3,269 932.7,269 932.7,269.6 932.7,269.6 932.7,269.6 932.7,371.4 
				1013.8,371.4 1013.8,269 			"/>
			<rect x="932.5" y="371.4" class="st11" width="81.5" height="18.1"/>
			<g>
				<rect x="967.2" y="350.2" class="st22" width="12" height="21.1"/>
				<g>
					<polygon class="st14" points="983.2,389.5 963.4,389.5 963.7,387 963.9,385.6 964.3,382.8 964.5,381.4 964.9,379 965.1,377.7 
						965.4,375.2 965.6,373.9 966,371.1 980.5,371.1 980.9,373.9 981.1,375.2 981.5,377.7 981.6,379 982,381.4 982.2,382.8 
						982.6,385.6 982.8,387 					"/>
					<polygon class="st23" points="982.2,382.8 964.3,382.8 964.5,381.9 982,381.9 					"/>
					<polygon class="st23" points="982.8,387 963.7,387 963.9,386.1 982.6,386.1 					"/>
					<polygon class="st23" points="981.6,379 964.9,379 965.1,378.3 981.5,378.3 					"/>
					<polygon class="st23" points="981.1,375.2 965.4,375.2 965.6,374.4 980.9,374.4 					"/>
				</g>
			</g>
			<g>
				<rect x="944.1" y="348" class="st3" width="5.9" height="12"/>
				<path class="st12" d="M943.8,347.7v12.6h6.6v-12.6H943.8z M950,348v3.7h-5.9V348H950z M944.1,360v-7.9h5.9v7.9H944.1z"/>
			</g>
			<g>
				<rect x="996.5" y="348" class="st3" width="5.9" height="12"/>
				<path class="st12" d="M996.2,347.7v12.6h6.6v-12.6H996.2z M1002.4,348v3.7h-5.9V348H1002.4z M996.5,360v-7.9h5.9v7.9H996.5z"/>
			</g>
			<g>
				<rect x="944.1" y="330.2" class="st3" width="5.9" height="12"/>
				<path class="st12" d="M943.8,329.8v12.6h6.6v-12.6H943.8z M950,330.2v3.7h-5.9v-3.7H950z M944.1,342.1v-7.9h5.9v7.9H944.1z"/>
			</g>
			<g>
				<rect x="960.9" y="329" class="st12" width="8.5" height="15.8"/>
				<rect x="961.6" y="329.6" class="st3" width="7.2" height="14.6"/>
			</g>
			<g>
				<rect x="969" y="329" class="st12" width="8.5" height="15.8"/>
				<rect x="969.7" y="329.6" class="st3" width="7.2" height="14.6"/>
			</g>
			<g>
				<rect x="977.1" y="329" class="st12" width="8.5" height="15.8"/>
				<rect x="977.8" y="329.6" class="st3" width="7.2" height="14.6"/>
			</g>
			<g>
				<rect x="996.5" y="330.2" class="st3" width="5.9" height="12"/>
				<path class="st12" d="M996.2,329.8v12.6h6.6v-12.6H996.2z M1002.4,330.2v3.7h-5.9v-3.7H1002.4z M996.5,342.1v-7.9h5.9v7.9H996.5
					z"/>
			</g>
			<g>
				<rect x="944.1" y="312.2" class="st3" width="5.9" height="12"/>
				<path class="st12" d="M943.8,311.8v12.6h6.6v-12.6H943.8z M950,312.2v3.7h-5.9v-3.7H950z M944.1,324.1v-7.9h5.9v7.9H944.1z"/>
			</g>
			<g>
				<rect x="960.9" y="310" class="st12" width="8.5" height="15.8"/>
				<rect x="961.6" y="310.6" class="st3" width="7.2" height="14.6"/>
			</g>
			<g>
				<rect x="969" y="310" class="st12" width="8.5" height="15.8"/>
				<rect x="969.7" y="310.6" class="st3" width="7.2" height="14.6"/>
			</g>
			<g>
				<rect x="977.1" y="310" class="st12" width="8.5" height="15.8"/>
				<rect x="977.8" y="310.6" class="st3" width="7.2" height="14.6"/>
			</g>
			<g>
				<rect x="996.5" y="312.2" class="st3" width="5.9" height="12"/>
				<path class="st12" d="M996.2,311.8v12.6h6.6v-12.6H996.2z M1002.4,312.2v3.7h-5.9v-3.7H1002.4z M996.5,324.1v-7.9h5.9v7.9H996.5
					z"/>
			</g>
			<g>
				<rect x="944.1" y="294.2" class="st3" width="5.9" height="12"/>
				<path class="st12" d="M943.8,293.8v12.6h6.6v-12.6H943.8z M950,294.2v3.7h-5.9v-3.7H950z M944.1,306.2v-7.9h5.9v7.9H944.1z"/>
			</g>
			<g>
				<rect x="960.9" y="290.9" class="st12" width="8.5" height="15.8"/>
				<rect x="961.6" y="291.6" class="st3" width="7.2" height="14.6"/>
			</g>
			<g>
				<rect x="969" y="290.9" class="st12" width="8.5" height="15.8"/>
				<rect x="969.7" y="291.6" class="st3" width="7.2" height="14.6"/>
			</g>
			<g>
				<rect x="977.1" y="290.9" class="st12" width="8.5" height="15.8"/>
				<rect x="977.8" y="291.6" class="st3" width="7.2" height="14.6"/>
			</g>
			<g>
				<rect x="996.5" y="294.2" class="st3" width="5.9" height="12"/>
				<path class="st12" d="M996.2,293.8v12.6h6.6v-12.6H996.2z M1002.4,294.2v3.7h-5.9v-3.7H1002.4z M996.5,306.2v-7.9h5.9v7.9H996.5
					z"/>
			</g>
			<g>
				<rect x="944.1" y="276.5" class="st3" width="5.9" height="12"/>
				<path class="st12" d="M943.8,276.2v12.6h6.6v-12.6H943.8z M950,276.5v3.7h-5.9v-3.7H950z M944.1,288.5v-7.9h5.9v7.9H944.1z"/>
			</g>
			<g>
				<rect x="960.9" y="271.9" class="st12" width="8.5" height="15.8"/>
				<rect x="961.6" y="272.5" class="st3" width="7.2" height="14.6"/>
			</g>
			<g>
				<rect x="969" y="271.9" class="st12" width="8.5" height="15.8"/>
				<rect x="969.7" y="272.5" class="st3" width="7.2" height="14.6"/>
			</g>
			<g>
				<rect x="977.1" y="271.9" class="st12" width="8.5" height="15.8"/>
				<rect x="977.8" y="272.5" class="st3" width="7.2" height="14.6"/>
			</g>
			<g>
				<rect x="996.5" y="276.5" class="st3" width="5.9" height="12"/>
				<path class="st12" d="M996.2,276.2v12.6h6.6v-12.6H996.2z M1002.4,276.5v3.7h-5.9v-3.7H1002.4z M996.5,288.5v-7.9h5.9v7.9H996.5
					z"/>
			</g>
			<g>
				<path class="st18" d="M960.4,336.1v0.7v0.5v6.8v0.9v0.3h25.8V345v-0.9v-6.8v-0.5v-0.7H960.4z M969.9,337.3h2.7v6.8h-2.7V337.3z
					 M968.5,344.1h-2.7v-6.8h2.7V344.1z M973.9,337.3h2.7v6.8h-2.7V337.3z M978,337.3h2.7v6.8H978V337.3z M961.7,337.3h2.7v6.8h-2.7
					V337.3z M984.8,344.1h-2.7v-6.8h2.7V344.1z"/>
				<path class="st18" d="M960.4,317.1v0.7v0.5v6.8v0.9v0.3h25.8V326V325v-6.8v-0.5v-0.7H960.4z M969.9,318.3h2.7v6.8h-2.7V318.3z
					 M968.5,325h-2.7v-6.8h2.7V325z M973.9,318.3h2.7v6.8h-2.7V318.3z M978,318.3h2.7v6.8H978V318.3z M961.7,318.3h2.7v6.8h-2.7
					V318.3z M984.8,325h-2.7v-6.8h2.7V325z"/>
				<path class="st18" d="M960.4,298.1v0.7v0.5v6.8v0.9v0.3h25.8v-0.3V306v-6.8v-0.5v-0.7H960.4z M969.9,299.2h2.7v6.8h-2.7V299.2z
					 M968.5,306h-2.7v-6.8h2.7V306z M973.9,299.2h2.7v6.8h-2.7V299.2z M978,299.2h2.7v6.8H978V299.2z M961.7,299.2h2.7v6.8h-2.7
					V299.2z M984.8,306h-2.7v-6.8h2.7V306z"/>
				<path class="st18" d="M960.4,279.1v0.7v0.5v6.8v0.9v0.3h25.8v-0.3V287v-6.8v-0.5v-0.7H960.4z M969.9,280.2h2.7v6.8h-2.7V280.2z
					 M968.5,287h-2.7v-6.8h2.7V287z M973.9,280.2h2.7v6.8h-2.7V280.2z M978,280.2h2.7v6.8H978V280.2z M961.7,280.2h2.7v6.8h-2.7
					V280.2z M984.8,287h-2.7v-6.8h2.7V287z"/>
			</g>
		</g>
	</g>
	<g>
		<g>
			<path class="st25" d="M78.4,374.8c0.5-1,0.8-2.1,0.8-3.3c0-2.3-1-4.3-2.6-5.4c0.1-0.4,0.2-0.9,0.2-1.4c0-2.3-1.6-4.2-3.6-4.2
				c-2,0-3.6,1.9-3.6,4.2c0,0.5,0.1,1,0.2,1.5c-1.5,1.2-2.5,3.2-2.5,5.4c0,1.2,0.3,2.3,0.8,3.3c-1,1.3-1.6,3.1-1.6,5
				c0,4.3,3,7.7,6.7,7.7c3.7,0,6.7-3.4,6.7-7.7C80,377.8,79.4,376.1,78.4,374.8z"/>
			<path class="st26" d="M70.7,393.9c0.2-0.1,0.9-3.7,1-4.2c0.1-0.5,0.6-5.1,0.6-5.1v-5.5l-2-1.5v-1l2.3,1.4v-2.7l-0.9-3h0.9
				l0.7,2.4l1.4-3.2h0.8l-1.2,3.8v4.1l2.6-0.7l0.6,0.6l-2.9,1.1l0.1,2.9L75,390l0.9,3.9C75.8,394.6,71.8,395.3,70.7,393.9z"/>
		</g>
		<g>
			<path class="st25" d="M244.6,374.8c0.5-1,0.8-2.1,0.8-3.3c0-2.3-1-4.3-2.6-5.4c0.1-0.4,0.2-0.9,0.2-1.4c0-2.3-1.6-4.2-3.6-4.2
				s-3.6,1.9-3.6,4.2c0,0.5,0.1,1,0.2,1.5c-1.5,1.2-2.5,3.2-2.5,5.4c0,1.2,0.3,2.3,0.8,3.3c-1,1.3-1.6,3.1-1.6,5
				c0,4.3,3,7.7,6.7,7.7s6.7-3.4,6.7-7.7C246.1,377.8,245.6,376.1,244.6,374.8z"/>
			<path class="st26" d="M236.8,393.9c0.2-0.1,0.9-3.7,1-4.2c0.1-0.5,0.6-5.1,0.6-5.1v-5.5l-2-1.5v-1l2.3,1.4v-2.7l-0.9-3h0.9
				l0.7,2.4l1.4-3.2h0.8l-1.2,3.8v4.1l2.6-0.7l0.6,0.6l-2.9,1.1l0.1,2.9l0.5,6.5l0.9,3.9C241.9,394.6,238,395.3,236.8,393.9z"/>
		</g>
		<g>
			<path class="st25" d="M1027.1,374.8c0.5-1,0.8-2.1,0.8-3.3c0-2.3-1-4.3-2.6-5.4c0.1-0.4,0.2-0.9,0.2-1.4c0-2.3-1.6-4.2-3.6-4.2
				s-3.6,1.9-3.6,4.2c0,0.5,0.1,1,0.2,1.5c-1.5,1.2-2.5,3.2-2.5,5.4c0,1.2,0.3,2.3,0.8,3.3c-1,1.3-1.6,3.1-1.6,5
				c0,4.3,3,7.7,6.7,7.7c3.7,0,6.7-3.4,6.7-7.7C1028.6,377.8,1028,376.1,1027.1,374.8z"/>
			<path class="st26" d="M1019.3,393.9c0.2-0.1,0.9-3.7,1-4.2c0.1-0.5,0.6-5.1,0.6-5.1v-5.5l-2-1.5v-1l2.3,1.4v-2.7l-0.9-3h0.9
				l0.7,2.4l1.4-3.2h0.8l-1.2,3.8v4.1l2.6-0.7l0.6,0.6l-2.9,1.1l0.1,2.9l0.5,6.5l0.9,3.9C1024.4,394.6,1020.4,395.3,1019.3,393.9z"
				/>
		</g>
		<g>
			<path class="st25" d="M495.7,374.8c0.5-1,0.8-2.1,0.8-3.3c0-2.3-1-4.3-2.6-5.4c0.1-0.4,0.2-0.9,0.2-1.4c0-2.3-1.6-4.2-3.6-4.2
				s-3.6,1.9-3.6,4.2c0,0.5,0.1,1,0.2,1.5c-1.5,1.2-2.5,3.2-2.5,5.4c0,1.2,0.3,2.3,0.8,3.3c-1,1.3-1.6,3.1-1.6,5
				c0,4.3,3,7.7,6.7,7.7c3.7,0,6.7-3.4,6.7-7.7C497.3,377.8,496.7,376.1,495.7,374.8z"/>
			<path class="st26" d="M487.9,393.9c0.2-0.1,0.9-3.7,1-4.2c0.1-0.5,0.6-5.1,0.6-5.1v-5.5l-2-1.5v-1l2.3,1.4v-2.7l-0.9-3h0.9
				l0.7,2.4l1.4-3.2h0.8l-1.2,3.8v4.1l2.6-0.7l0.6,0.6l-2.9,1.1l0.1,2.9l0.5,6.5l0.9,3.9C493,394.6,489.1,395.3,487.9,393.9z"/>
		</g>
		<g>
			<path class="st25" d="M864.5,374.8c0.5-1,0.8-2.1,0.8-3.3c0-2.3-1-4.3-2.6-5.4c0.1-0.4,0.2-0.9,0.2-1.4c0-2.3-1.6-4.2-3.6-4.2
				s-3.6,1.9-3.6,4.2c0,0.5,0.1,1,0.2,1.5c-1.5,1.2-2.5,3.2-2.5,5.4c0,1.2,0.3,2.3,0.8,3.3c-1,1.3-1.6,3.1-1.6,5
				c0,4.3,3,7.7,6.7,7.7c3.7,0,6.7-3.4,6.7-7.7C866.1,377.8,865.5,376.1,864.5,374.8z"/>
			<path class="st26" d="M856.8,393.9c0.2-0.1,0.9-3.7,1-4.2c0.1-0.5,0.6-5.1,0.6-5.1v-5.5l-2-1.5v-1l2.3,1.4v-2.7l-0.9-3h0.9
				l0.7,2.4l1.4-3.2h0.8l-1.2,3.8v4.1l2.6-0.7l0.6,0.6l-2.9,1.1l0.1,2.9l0.5,6.5l0.9,3.9C861.9,394.6,857.9,395.3,856.8,393.9z"/>
		</g>
		<g>
			<path class="st25" d="M9,369.3c0.7,2.1,0.8,4.5,0.1,6.7c-0.9,2.8-3,4.3-5.1,4.1c-0.2,0-0.3-0.1-0.5-0.1c-0.5-0.1-1.1-0.4-1.6-0.8
				c-0.2-0.2-0.4-0.3-0.6-0.5c-1.1,1.5-2.5,2.2-4.1,2c-0.7-0.1-1.4-0.4-2.1-0.9c-2.7-2-3.9-6.6-2.7-10.4c0.1-0.4,0.3-0.8,0.5-1.2
				c-2-2.3-2.8-6.2-1.7-9.5c1-2.9,3.1-4.4,5.3-4c0.1-0.6,0.2-1.1,0.4-1.7c1.2-3.7,4.4-5.2,7.2-3.2c0.1,0.1,0.2,0.1,0.3,0.2
				c1.7,1.4,2.7,3.8,2.9,6.3c0.1,0.1,0.2,0.1,0.3,0.2c2.7,2,3.9,6.6,2.7,10.4C9.9,367.9,9.5,368.7,9,369.3z"/>
			<path class="st27" d="M9,369.3c0.7,2.1,0.8,4.5,0.1,6.7c-0.9,2.8-3,4.3-5.1,4.1c-0.1-0.1-0.2-0.2-0.3-0.3
				c-0.1,0.1-0.1,0.1-0.2,0.2c-0.5-0.1-1.1-0.4-1.6-0.8c-0.2-0.2-0.4-0.3-0.6-0.5c-1.1,1.5-2.5,2.2-4.1,2c-2.5-2.1-3.6-6.5-2.4-10.2
				c0.1-0.4,0.3-0.8,0.5-1.2c-2-2.3-2.8-6.2-1.7-9.5c1-2.9,3.1-4.4,5.3-4c0.1-0.6,0.2-1.1,0.4-1.7c0.9-2.8,3-4.3,5.1-4.1
				c1.7,1.4,2.7,3.8,2.9,6.3c0.1,0.1,0.2,0.1,0.3,0.2c2.7,2,3.9,6.6,2.7,10.4C9.9,367.9,9.5,368.7,9,369.3z"/>
			<path class="st26" d="M-2,394c0.2-0.1,1-4,1.1-4.6c0.1-0.5,0.6-5.6,0.6-5.6v-6l-2.2-1.6v-1.1l2.5,1.5v-2.9l-1-3.2h1l0.7,2.6
				l1.5-3.5h0.9l-1.4,4.1v4.4l2.8-0.7l0.6,0.7l-3.2,1.2l0.1,3.2l0.6,7.1l1,4.3l-1.7,0.4L0,395.9l-0.7-1.1L-2,394z"/>
		</g>
		<g>
			<path class="st25" d="M153.6,369.3c0.7,2.1,0.8,4.5,0.1,6.7c-0.9,2.8-3,4.3-5.1,4.1c-0.2,0-0.3-0.1-0.5-0.1
				c-0.5-0.1-1.1-0.4-1.6-0.8c-0.2-0.2-0.4-0.3-0.6-0.5c-1.1,1.5-2.5,2.2-4.1,2c-0.7-0.1-1.4-0.4-2.1-0.9c-2.7-2-3.9-6.6-2.7-10.4
				c0.1-0.4,0.3-0.8,0.5-1.2c-2-2.3-2.8-6.2-1.7-9.5c1-2.9,3.1-4.4,5.3-4c0.1-0.6,0.2-1.1,0.4-1.7c1.2-3.7,4.4-5.2,7.2-3.2
				c0.1,0.1,0.2,0.1,0.3,0.2c1.7,1.4,2.7,3.8,2.9,6.3c0.1,0.1,0.2,0.1,0.3,0.2c2.7,2,3.9,6.6,2.7,10.4
				C154.6,367.9,154.1,368.7,153.6,369.3z"/>
			<path class="st27" d="M153.6,369.3c0.7,2.1,0.8,4.5,0.1,6.7c-0.9,2.8-3,4.3-5.1,4.1c-0.1-0.1-0.2-0.2-0.3-0.3
				c-0.1,0.1-0.1,0.1-0.2,0.2c-0.5-0.1-1.1-0.4-1.6-0.8c-0.2-0.2-0.4-0.3-0.6-0.5c-1.1,1.5-2.5,2.2-4.1,2c-2.5-2.1-3.6-6.5-2.4-10.2
				c0.1-0.4,0.3-0.8,0.5-1.2c-2-2.3-2.8-6.2-1.7-9.5c1-2.9,3.1-4.4,5.3-4c0.1-0.6,0.2-1.1,0.4-1.7c0.9-2.8,3-4.3,5.1-4.1
				c1.7,1.4,2.7,3.8,2.9,6.3c0.1,0.1,0.2,0.1,0.3,0.2c2.7,2,3.9,6.6,2.7,10.4C154.6,367.9,154.1,368.7,153.6,369.3z"/>
			<path class="st26" d="M142.7,394c0.2-0.1,1-4,1.1-4.6c0.1-0.5,0.6-5.6,0.6-5.6v-6l-2.2-1.6v-1.1l2.5,1.5v-2.9l-1-3.2h1l0.7,2.6
				l1.5-3.5h0.9l-1.4,4.1v4.4l2.8-0.7l0.6,0.7l-3.2,1.2l0.1,3.2l0.6,7.1l1,4.3l-1.6,0.4l-2.2,1.5l-0.7-1.1L142.7,394z"/>
		</g>
		<g>
			<path class="st25" d="M324.7,369.3c0.7,2.1,0.8,4.5,0.1,6.7c-0.9,2.8-3,4.3-5.1,4.1c-0.2,0-0.3-0.1-0.5-0.1
				c-0.5-0.1-1.1-0.4-1.6-0.8c-0.2-0.2-0.4-0.3-0.6-0.5c-1.1,1.5-2.5,2.2-4.1,2c-0.7-0.1-1.4-0.4-2.1-0.9c-2.7-2-3.9-6.6-2.7-10.4
				c0.1-0.4,0.3-0.8,0.5-1.2c-2-2.3-2.8-6.2-1.7-9.5c1-2.9,3.1-4.4,5.3-4c0.1-0.6,0.2-1.1,0.4-1.7c1.2-3.7,4.5-5.2,7.2-3.2
				c0.1,0.1,0.2,0.1,0.3,0.2c1.7,1.4,2.7,3.8,2.9,6.3c0.1,0.1,0.2,0.1,0.3,0.2c2.7,2,3.9,6.6,2.7,10.4
				C325.6,367.9,325.2,368.7,324.7,369.3z"/>
			<path class="st27" d="M324.7,369.3c0.7,2.1,0.8,4.5,0.1,6.7c-0.9,2.8-3,4.3-5.1,4.1c-0.1-0.1-0.2-0.2-0.3-0.3
				c-0.1,0.1-0.1,0.1-0.2,0.2c-0.5-0.1-1.1-0.4-1.6-0.8c-0.2-0.2-0.4-0.3-0.6-0.5c-1.1,1.5-2.5,2.2-4.1,2c-2.5-2.1-3.6-6.5-2.4-10.2
				c0.1-0.4,0.3-0.8,0.5-1.2c-2-2.3-2.8-6.2-1.7-9.5c1-2.9,3.1-4.4,5.3-4c0.1-0.6,0.2-1.1,0.4-1.7c0.9-2.8,3-4.3,5.1-4.1
				c1.7,1.4,2.7,3.8,2.9,6.3c0.1,0.1,0.2,0.1,0.3,0.2c2.7,2,3.9,6.6,2.7,10.4C325.6,367.9,325.2,368.7,324.7,369.3z"/>
			<path class="st26" d="M313.7,394c0.2-0.1,1-4,1.1-4.6c0.1-0.5,0.6-5.6,0.6-5.6v-6l-2.2-1.6v-1.1l2.5,1.5v-2.9l-1-3.2h1l0.7,2.6
				l1.5-3.5h0.9l-1.4,4.1v4.4l2.8-0.7l0.6,0.7l-3.2,1.2l0.1,3.2l0.6,7.1l1,4.3l-1.6,0.4l-2.2,1.5l-0.7-1.1L313.7,394z"/>
		</g>
		<g>
			<path class="st25" d="M593.1,369.3c0.7,2.1,0.8,4.5,0.1,6.7c-0.9,2.8-3,4.3-5.1,4.1c-0.2,0-0.3-0.1-0.5-0.1
				c-0.5-0.1-1.1-0.4-1.6-0.8c-0.2-0.2-0.4-0.3-0.6-0.5c-1.1,1.5-2.5,2.2-4.1,2c-0.7-0.1-1.4-0.4-2.1-0.9c-2.7-2-3.9-6.6-2.7-10.4
				c0.1-0.4,0.3-0.8,0.5-1.2c-2-2.3-2.8-6.2-1.7-9.5c1-2.9,3.1-4.4,5.3-4c0.1-0.6,0.2-1.1,0.4-1.7c1.2-3.7,4.5-5.2,7.2-3.2
				c0.1,0.1,0.2,0.1,0.3,0.2c1.7,1.4,2.7,3.8,2.9,6.3c0.1,0.1,0.2,0.1,0.3,0.2c2.7,2,3.9,6.6,2.7,10.4
				C594,367.9,593.6,368.7,593.1,369.3z"/>
			<path class="st27" d="M593.1,369.3c0.7,2.1,0.8,4.5,0.1,6.7c-0.9,2.8-3,4.3-5.1,4.1c-0.1-0.1-0.2-0.2-0.3-0.3
				c-0.1,0.1-0.1,0.1-0.2,0.2c-0.5-0.1-1.1-0.4-1.6-0.8c-0.2-0.2-0.4-0.3-0.6-0.5c-1.1,1.5-2.5,2.2-4.1,2c-2.5-2.1-3.6-6.5-2.4-10.2
				c0.1-0.4,0.3-0.8,0.5-1.2c-2-2.3-2.8-6.2-1.7-9.5c1-2.9,3.1-4.4,5.3-4c0.1-0.6,0.2-1.1,0.4-1.7c0.9-2.8,3-4.3,5.1-4.1
				c1.7,1.4,2.7,3.8,2.9,6.3c0.1,0.1,0.2,0.1,0.3,0.2c2.7,2,3.9,6.6,2.7,10.4C594,367.9,593.6,368.7,593.1,369.3z"/>
			<path class="st26" d="M582.1,394c0.2-0.1,1-4,1.1-4.6c0.1-0.5,0.6-5.6,0.6-5.6v-6l-2.2-1.6v-1.1l2.5,1.5v-2.9l-1-3.2h1l0.7,2.6
				l1.5-3.5h0.9l-1.4,4.1v4.4l2.8-0.7l0.6,0.7l-3.2,1.2l0.1,3.2l0.6,7.1l1,4.3l-1.7,0.4l-2.2,1.5l-0.7-1.1L582.1,394z"/>
		</g>
		<g>
			<path class="st25" d="M420.9,369.3c0.7,2.1,0.8,4.5,0.1,6.7c-0.9,2.8-3,4.3-5.1,4.1c-0.2,0-0.3-0.1-0.5-0.1
				c-0.5-0.1-1.1-0.4-1.6-0.8c-0.2-0.2-0.4-0.3-0.6-0.5c-1.1,1.5-2.5,2.2-4.1,2c-0.7-0.1-1.4-0.4-2.1-0.9c-2.7-2-3.9-6.6-2.7-10.4
				c0.1-0.4,0.3-0.8,0.5-1.2c-2-2.3-2.8-6.2-1.7-9.5c1-2.9,3.1-4.4,5.3-4c0.1-0.6,0.2-1.1,0.4-1.7c1.2-3.7,4.5-5.2,7.2-3.2
				c0.1,0.1,0.2,0.1,0.3,0.2c1.7,1.4,2.7,3.8,2.9,6.3c0.1,0.1,0.2,0.1,0.3,0.2c2.7,2,3.9,6.6,2.7,10.4
				C421.8,367.9,421.4,368.7,420.9,369.3z"/>
			<path class="st27" d="M420.9,369.3c0.7,2.1,0.8,4.5,0.1,6.7c-0.9,2.8-3,4.3-5.1,4.1c-0.1-0.1-0.2-0.2-0.3-0.3
				c-0.1,0.1-0.1,0.1-0.2,0.2c-0.5-0.1-1.1-0.4-1.6-0.8c-0.2-0.2-0.4-0.3-0.6-0.5c-1.1,1.5-2.5,2.2-4.1,2c-2.5-2.1-3.6-6.5-2.4-10.2
				c0.1-0.4,0.3-0.8,0.5-1.2c-2-2.3-2.8-6.2-1.7-9.5c1-2.9,3.1-4.4,5.3-4c0.1-0.6,0.2-1.1,0.4-1.7c0.9-2.8,3-4.3,5.1-4.1
				c1.7,1.4,2.7,3.8,2.9,6.3c0.1,0.1,0.2,0.1,0.3,0.2c2.7,2,3.9,6.6,2.7,10.4C421.8,367.9,421.4,368.7,420.9,369.3z"/>
			<path class="st26" d="M409.9,394c0.2-0.1,1-4,1.1-4.6c0.1-0.5,0.6-5.6,0.6-5.6v-6l-2.2-1.6v-1.1l2.5,1.5v-2.9l-1-3.2h1l0.7,2.6
				l1.5-3.5h0.9l-1.4,4.1v4.4l2.8-0.7l0.6,0.7l-3.2,1.2l0.1,3.2l0.6,7.1l1,4.3l-1.6,0.4l-2.2,1.5l-0.7-1.1L409.9,394z"/>
		</g>
		<g>
			<path class="st25" d="M692.8,369.3c0.7,2.1,0.8,4.5,0.1,6.7c-0.9,2.8-3,4.3-5.1,4.1c-0.2,0-0.3-0.1-0.5-0.1
				c-0.5-0.1-1.1-0.4-1.6-0.8c-0.2-0.2-0.4-0.3-0.6-0.5c-1.1,1.5-2.5,2.2-4.1,2c-0.7-0.1-1.4-0.4-2.1-0.9c-2.7-2-3.9-6.6-2.7-10.4
				c0.1-0.4,0.3-0.8,0.5-1.2c-2-2.3-2.8-6.2-1.7-9.5c1-2.9,3.1-4.4,5.3-4c0.1-0.6,0.2-1.1,0.4-1.7c1.2-3.7,4.5-5.2,7.2-3.2
				c0.1,0.1,0.2,0.1,0.3,0.2c1.7,1.4,2.7,3.8,2.9,6.3c0.1,0.1,0.2,0.1,0.3,0.2c2.7,2,3.9,6.6,2.7,10.4
				C693.7,367.9,693.3,368.7,692.8,369.3z"/>
			<path class="st27" d="M692.8,369.3c0.7,2.1,0.8,4.5,0.1,6.7c-0.9,2.8-3,4.3-5.1,4.1c-0.1-0.1-0.2-0.2-0.3-0.3
				c-0.1,0.1-0.1,0.1-0.2,0.2c-0.5-0.1-1.1-0.4-1.6-0.8c-0.2-0.2-0.4-0.3-0.6-0.5c-1.1,1.5-2.5,2.2-4.1,2c-2.5-2.1-3.6-6.5-2.4-10.2
				c0.1-0.4,0.3-0.8,0.5-1.2c-2-2.3-2.8-6.2-1.7-9.5c1-2.9,3.1-4.4,5.3-4c0.1-0.6,0.2-1.1,0.4-1.7c0.9-2.8,3-4.3,5.1-4.1
				c1.7,1.4,2.7,3.8,2.9,6.3c0.1,0.1,0.2,0.1,0.3,0.2c2.7,2,3.9,6.6,2.7,10.4C693.7,367.9,693.3,368.7,692.8,369.3z"/>
			<path class="st26" d="M681.8,394c0.2-0.1,1-4,1.1-4.6c0.1-0.5,0.6-5.6,0.6-5.6v-6l-2.2-1.6v-1.1l2.5,1.5v-2.9l-1-3.2h1l0.7,2.6
				l1.5-3.5h0.9l-1.4,4.1v4.4l2.8-0.7l0.6,0.7l-3.2,1.2l0.1,3.2l0.6,7.1l1,4.3l-1.7,0.4l-2.2,1.5l-0.7-1.1L681.8,394z"/>
		</g>
		<g>
			<path class="st25" d="M928.7,369.3c0.7,2.1,0.8,4.5,0.1,6.7c-0.9,2.8-3,4.3-5.1,4.1c-0.2,0-0.3-0.1-0.5-0.1
				c-0.5-0.1-1.1-0.4-1.6-0.8c-0.2-0.2-0.4-0.3-0.6-0.5c-1.1,1.5-2.5,2.2-4.1,2c-0.7-0.1-1.4-0.4-2.1-0.9c-2.7-2-3.9-6.6-2.7-10.4
				c0.1-0.4,0.3-0.8,0.5-1.2c-2-2.3-2.8-6.2-1.7-9.5c1-2.9,3.1-4.4,5.3-4c0.1-0.6,0.2-1.1,0.4-1.7c1.2-3.7,4.5-5.2,7.2-3.2
				c0.1,0.1,0.2,0.1,0.3,0.2c1.7,1.4,2.7,3.8,2.9,6.3c0.1,0.1,0.2,0.1,0.3,0.2c2.7,2,3.9,6.6,2.7,10.4
				C929.6,367.9,929.2,368.7,928.7,369.3z"/>
			<path class="st27" d="M928.7,369.3c0.7,2.1,0.8,4.5,0.1,6.7c-0.9,2.8-3,4.3-5.1,4.1c-0.1-0.1-0.2-0.2-0.3-0.3
				c-0.1,0.1-0.1,0.1-0.2,0.2c-0.5-0.1-1.1-0.4-1.6-0.8c-0.2-0.2-0.4-0.3-0.6-0.5c-1.1,1.5-2.5,2.2-4.1,2c-2.5-2.1-3.6-6.5-2.4-10.2
				c0.1-0.4,0.3-0.8,0.5-1.2c-2-2.3-2.8-6.2-1.7-9.5c1-2.9,3.1-4.4,5.3-4c0.1-0.6,0.2-1.1,0.4-1.7c0.9-2.8,3-4.3,5.1-4.1
				c1.7,1.4,2.7,3.8,2.9,6.3c0.1,0.1,0.2,0.1,0.3,0.2c2.7,2,3.9,6.6,2.7,10.4C929.6,367.9,929.2,368.7,928.7,369.3z"/>
			<path class="st26" d="M917.7,394c0.2-0.1,1-4,1.1-4.6c0.1-0.5,0.6-5.6,0.6-5.6v-6l-2.2-1.6v-1.1l2.5,1.5v-2.9l-1-3.2h1l0.7,2.6
				l1.5-3.5h0.9l-1.4,4.1v4.4l2.8-0.7l0.6,0.7l-3.2,1.2l0.1,3.2l0.6,7.1l1,4.3l-1.7,0.4l-2.2,1.5l-0.7-1.1L917.7,394z"/>
		</g>
		<g>
			<path class="st25" d="M767.9,369.3c0.7,2.1,0.8,4.5,0.1,6.7c-0.9,2.8-3,4.3-5.1,4.1c-0.2,0-0.3-0.1-0.5-0.1
				c-0.5-0.1-1.1-0.4-1.6-0.8c-0.2-0.2-0.4-0.3-0.6-0.5c-1.1,1.5-2.5,2.2-4.1,2c-0.7-0.1-1.4-0.4-2.1-0.9c-2.7-2-3.9-6.6-2.7-10.4
				c0.1-0.4,0.3-0.8,0.5-1.2c-2-2.3-2.8-6.2-1.7-9.5c1-2.9,3.1-4.4,5.3-4c0.1-0.6,0.2-1.1,0.4-1.7c1.2-3.7,4.5-5.2,7.2-3.2
				c0.1,0.1,0.2,0.1,0.3,0.2c1.7,1.4,2.7,3.8,2.9,6.3c0.1,0.1,0.2,0.1,0.3,0.2c2.7,2,3.9,6.6,2.7,10.4
				C768.8,367.9,768.4,368.7,767.9,369.3z"/>
			<path class="st27" d="M767.9,369.3c0.7,2.1,0.8,4.5,0.1,6.7c-0.9,2.8-3,4.3-5.1,4.1c-0.1-0.1-0.2-0.2-0.3-0.3
				c-0.1,0.1-0.1,0.1-0.2,0.2c-0.5-0.1-1.1-0.4-1.6-0.8c-0.2-0.2-0.4-0.3-0.6-0.5c-1.1,1.5-2.5,2.2-4.1,2c-2.5-2.1-3.6-6.5-2.4-10.2
				c0.1-0.4,0.3-0.8,0.5-1.2c-2-2.3-2.8-6.2-1.7-9.5c1-2.9,3.1-4.4,5.3-4c0.1-0.6,0.2-1.1,0.4-1.7c0.9-2.8,3-4.3,5.1-4.1
				c1.7,1.4,2.7,3.8,2.9,6.3c0.1,0.1,0.2,0.1,0.3,0.2c2.7,2,3.9,6.6,2.7,10.4C768.8,367.9,768.4,368.7,767.9,369.3z"/>
			<path class="st26" d="M756.9,394c0.2-0.1,1-4,1.1-4.6c0.1-0.5,0.6-5.6,0.6-5.6v-6l-2.2-1.6v-1.1l2.5,1.5v-2.9l-1-3.2h1l0.7,2.6
				l1.5-3.5h0.9l-1.4,4.1v4.4l2.8-0.7l0.6,0.7l-3.2,1.2l0.1,3.2l0.6,7.1l1,4.3l-1.7,0.4l-2.2,1.5l-0.7-1.1L756.9,394z"/>
		</g>
	</g>
	<g>
		<rect x="-113.3" y="412.8" class="st28" width="1212.2" height="4.1"/>
		<rect x="-113.2" y="400.3" class="st29" width="1212.2" height="12"/>
		<rect x="-113.2" y="440.1" class="st29" width="1212.2" height="11.5"/>
		<g>
			<rect x="-108.9" y="416.9" class="st7" width="1208.4" height="25.9"/>
			<rect x="33.4" y="425.6" class="st30" width="65" height="3.6"/>
			<rect x="140.6" y="425.6" class="st30" width="65" height="3.6"/>
			<rect x="247.7" y="425.6" class="st30" width="65" height="3.6"/>
			<rect x="354.8" y="425.6" class="st30" width="65" height="3.6"/>
			<rect x="462" y="425.6" class="st30" width="65" height="3.6"/>
			<rect x="569.1" y="425.6" class="st30" width="65" height="3.6"/>
			<rect x="676.2" y="425.6" class="st30" width="65" height="3.6"/>
			<rect x="783.4" y="425.6" class="st30" width="65" height="3.6"/>
			<rect x="890.5" y="425.6" class="st30" width="65" height="3.6"/>
			<rect x="997.6" y="425.6" class="st30" width="65" height="3.6"/>
		</g>
	</g>
	<rect x="-109" y="452.6" class="st6" width="1207.7" height="134.5"/>
</g>
</svg>
