<?xml version="1.0" encoding="utf-8"?>
<!-- Generator: Adobe Illustrator 25.4.1, SVG Export Plug-In . SVG Version: 6.00 Build 0)  -->
<svg version="1.1" id="Слой_1" xmlns="http://www.w3.org/2000/svg" xmlns:xlink="http://www.w3.org/1999/xlink" x="0px" y="0px"
	 viewBox="0 0 1024 500" enable-background="new 0 0 1024 500" xml:space="preserve">
<g>
	<g>
		
			<rect x="-0.398" y="204.298" transform="matrix(-1 2.320798e-11 -2.320798e-11 -1 1023.6015 704.2983)" fill="#B5CD75" width="1024.398" height="295.702"/>
		<g>
			<polygon id="road_00000041261003250599681560000011748084055713744313_" fill="#B14C59" points="647.491,204.298 
				682.647,204.298 839.163,500 484.678,500 			"/>
			<polygon fill="#E4E4E3" points="682.647,204.298 851.768,500 823.519,500 676.353,204.298 			"/>
			<polygon fill="#E4E4E3" points="641.198,204.298 472.076,500 500.325,500 647.491,204.298 			"/>
			<g>
				<polygon id="lane1_00000134242018820220312490000001824144665879114885_" fill="#E4E4E3" points="523.149,488.087 
					800.399,488.087 791.961,471.126 531.682,471.126 				"/>
			</g>
		</g>
		
			<rect x="-0.398" y="0" transform="matrix(-1 3.851129e-11 -3.851129e-11 -1 1023.6015 204.8514)" fill="#D4ECF2" width="1024.398" height="204.851"/>
		<g>
			<path fill="#E2EFF2" d="M525.093,30.591c-3.895,4.979-22.95-0.031-24.543,6.086c-1.06,4.068,8.362,9.95,12.272,11.495
				c9.679,3.825,31.537-2.535,41.632,0c5.159,1.296,13.551,8.944,18.753,10.053c10.294,2.196,32.498,1.517,41.995-3.021
				c4.521-2.16,15.073-9.838,13.678-14.651c-1.94-6.689-20.914-3.57-26.957-7.032c-3.775-2.163-8.335-10.531-12.307-12.307
				c-9.643-4.312-19.349,6.155-29.909,6.401c-5.675,0.132-30.979-9.005-34.613-4.643C523.874,24.435,526.267,29.09,525.093,30.591z"
				/>
			<path fill="#E2EFF2" d="M160.24,123.537c2.57-3.179,14.839,0.259,15.933-3.681c0.727-2.619-5.304-6.521-7.816-7.56
				c-6.219-2.574-20.419,1.312-26.92-0.432c-3.323-0.891-8.669-5.924-12.022-6.695c-6.634-1.527-20.998-1.319-27.186,1.517
				c-2.946,1.35-9.849,6.205-8.996,9.331c1.185,4.346,13.486,2.525,17.358,4.827c2.419,1.438,5.28,6.896,7.83,8.085
				c6.191,2.888,12.575-3.779,19.406-3.828c3.671-0.026,19.938,6.144,22.333,3.361C160.964,127.53,159.465,124.495,160.24,123.537z"
				/>
			<path fill="#E2EFF2" d="M409.179,92.043c-3.892,2.638-11.462,11.816-9.637,16.149c1.949,4.629,15.116,2.303,19.535,4.688
				c3.932,2.123,8.943,10.421,13.024,12.242c6.982,3.117,23.548,5.844,30.475,2.605c3.6-1.683,6.189-10.335,9.116-13.024
				c4.491-4.125,21.018-6.144,21.098-12.242c0.086-6.576-15.894-12.834-22.401-13.795c-7.796-1.152-22.782,9.777-30.475,8.064
				c-3.067-0.683-6.757-6.811-9.637-8.064C425.379,86.536,413.6,89.046,409.179,92.043z"/>
			<path fill="#E2EFF2" d="M1024,32.997v38.027c-3.934,2.219-10.24,3.587-13.534,3.407c-9.533-0.512-25.056-14.823-34.464-16.421
				c-7.728-1.309-23.931,6.384-31.174,3.387c-4.794-1.981-14.378-11.143-13.026-16.148c2.821-10.424,29.573-15.374,40.376-15.37
				c7.666,0.004,20.985,11.065,28.651,10.94C1007.004,40.717,1014.295,32.751,1024,32.997z"/>
			<path fill="#E2EFF2" d="M881.488,97.664c-5.091,8.428-28.08,11.545-37.899,10.744c-6.236-0.508-14.675-3.008-20.903-3.63
				c-4.603-0.461-16.105,0.328-20.512-1.078c-2.188-0.699-4.669-1.703-6.611-3.087V88.862c4.399-4.52,12.026-8.681,16.183-10.166
				c8.463-3.028,27.189,6.849,36.14,7.619c8.099,0.695,25.775-6.009,31.452-0.195C882.652,89.51,883.942,93.605,881.488,97.664z"/>
			<path fill="#E2EFF2" d="M135.972,55.094c5.091-8.428,28.08-11.545,37.899-10.744c6.236,0.508,14.675,3.008,20.903,3.63
				c4.603,0.461,16.105-0.328,20.512,1.078c2.188,0.699,4.669,1.703,6.611,3.087v11.752c-4.399,4.52-12.026,8.681-16.183,10.166
				c-8.463,3.028-27.189-6.849-36.14-7.619c-8.099-0.695-25.775,6.009-31.452,0.195C134.808,63.248,133.519,59.153,135.972,55.094z"
				/>
			<path fill="#E2EFF2" d="M-0.092,95.727V68.637c12.698-0.14,23.924,1.573,47.723,7.418c1.598,0.391,2.901,1.26,2.022,2.65
				c-2.075,3.277-8.152,10.218-10.584,11.492C30.406,94.743,12.032,95.607-0.092,95.727z"/>
		</g>
	</g>
	<g>
		<g>
			<g id="s-r-leg-1_00000111158140838885421040000004497692535301770629_">
				<circle fill="#F8BA98" stroke="#D89977" stroke-width="2" stroke-miterlimit="10" cx="576.342" cy="307.906" r="6.715"/>
				<polygon fill="#F8BA98" stroke="#D89977" stroke-miterlimit="10" points="574.688,301.537 607.627,291.047 613.324,308.934 
					585.788,314.264 577.686,314.676 				"/>
				<path fill="none" stroke="#D89977" stroke-miterlimit="10" d="M578.487,302.895c14.378-4.579,19.796-4.688,19.796-4.688"/>
				<path fill="none" stroke="#D89977" stroke-miterlimit="10" d="M582.822,310.748c0,0,0.946-1.09,13.665-3.912"/>
				<circle fill="none" cx="654.872" cy="289.987" r="11.174"/>
				<polygon fill="#9DCCEF" stroke="#6AA5CD" stroke-miterlimit="10" points="654.08,278.821 630.243,283.618 604.951,290.82 
					600.993,292.08 603.584,302.185 607.083,311.202 611.236,310.555 629.661,306.803 656.516,301.04 				"/>
				<path fill="#C2DB9C" stroke="#63BC99" stroke-miterlimit="10" d="M604.951,290.82c0,0,1.799,7.62,2.591,10.105
					c0.783,2.457,3.694,9.631,3.694,9.631l-4.153,0.647c0,0-2.76-6.715-3.499-9.017c-0.797-2.483-2.591-10.105-2.591-10.105
					L604.951,290.82z"/>
			</g>
			<g>
				<g id="f-r-leg-1_00000078731731938490011740000009453107615935425208_">
					<polygon fill="#F8BA98" stroke="#D89977" stroke-miterlimit="10" points="616.821,378.805 601.134,346.705 597.788,331.722 
						592.318,322.673 585.292,313.249 582.918,306.542 571.267,312.304 574.134,319.57 578.254,333.035 585.445,346.49 
						609.62,383.158 					"/>
					<polyline fill="none" stroke="#D89977" stroke-miterlimit="10" points="578.428,327.765 581.597,335.186 589.584,350.014 					
						"/>
					<path fill="none" stroke="#D89977" stroke-miterlimit="10" d="M587.181,325.837c8.702,14.396,11.933,16.648,11.933,16.648"/>
					<circle fill="#F8BA98" cx="576.342" cy="307.906" r="6.715"/>
					<circle fill="#F8BA98" cx="613.1" cy="380.783" r="4.207"/>
				</g>
				<g id="l-boot-1_00000136411774744021511560000008888871312303849896_">
					<path fill="#68B0B2" stroke="#68B0B2" stroke-miterlimit="10" d="M600.973,405.424l0.118-0.796
						c0.323-2.173,1.261-4.208,2.703-5.866c1.801-2.069,2.849-4.686,2.975-7.427l0.319-6.918l0.624,0.131
						c1.578,0.332,3.223,0.099,4.648-0.657c0,0,0.895-0.405,1.148-0.609c2.969-2.4,3.799-4.357,4.031-5.228
						c0.066-0.247,0.339-0.37,0.57-0.261l0.956,0.45c0.973,0.458,1.878,1.035,2.707,1.703l1.341,12.056l0,0l-0.981,1.328
						l-4.797,8.681l-8.897,6.842l-6.631,0.723C601.053,408.331,600.759,406.863,600.973,405.424z"/>
					<path fill="#BBDEDE" stroke="#BBDEDE" stroke-miterlimit="10" d="M621.343,382.13l0.428-2.185
						c1.187,0.957,2.214,2.108,3.021,3.42l0.993,1.614l0.985,3.235l-3.657,3.788l0,0l-0.744-1.581
						C621.153,387.837,620.793,384.933,621.343,382.13z"/>
					<path fill="#82A4A4" stroke="#82A4A4" stroke-miterlimit="10" d="M613.285,385.182l-1.159,9.461
						c-1.141,0.491-4.099,1.568-6.197,0.607l-0.005,0.01c0.493-1.244,0.783-2.569,0.845-3.924l0.319-6.918l0.624,0.131
						c1.578,0.332,3.223,0.099,4.648-0.657c0,0,0.895-0.405,1.148-0.609c0.054-0.043,0.101-0.085,0.154-0.128
						C613.207,383.871,613.254,384.512,613.285,385.182z"/>
					<path fill="#BBDEDE" stroke="#BBDEDE" stroke-miterlimit="10" d="M613.285,385.182l-1.278,10.435
						c0.041,0.891,0.378,1.743,0.957,2.422l3.911,4.755l1.43-1.363l-3.313-4.213c-0.53-0.655-0.84-1.459-0.888-2.3
						c0,0,1.225-6.502,1.275-8.7c0.032-1.395,0.286-2.358,0.997-3.309l3.277-4.389l-1.552-0.731c-0.277-0.13-0.607-0.05-0.793,0.193
						l-0.316,0.731c-0.613,1.415-1.556,2.649-2.69,3.694C613.174,383.446,613.244,384.288,613.285,385.182z"/>
					<path fill="#BBDEDE" stroke="#BBDEDE" stroke-miterlimit="10" d="M612.579,396.069c0,0-3.342,2.31-7.451,0.828l0.8-1.647
						c2.65,1.214,6.674-0.825,6.674-0.825L612.579,396.069z"/>
					<line fill="none" stroke="#020203" stroke-miterlimit="10" x1="607.016" y1="385.983" x2="613.242" y2="385.096"/>
					<line fill="none" stroke="#020203" stroke-miterlimit="10" x1="606.977" y1="386.406" x2="612.708" y2="389.528"/>
					<line fill="none" stroke="#020203" stroke-miterlimit="10" x1="614.362" y1="384.936" x2="606.823" y2="390.178"/>
					<line fill="none" stroke="#020203" stroke-miterlimit="10" x1="613.705" y1="390.291" x2="606.17" y2="394.587"/>
					<line fill="none" stroke="#020203" stroke-miterlimit="10" x1="606.793" y1="390.835" x2="612.291" y2="393.809"/>
					<path fill="#E2DCDC" stroke="#E2DCDC" stroke-miterlimit="10" d="M627.514,387.841L627.514,387.841
						c-0.385,1.968-1.197,3.828-2.379,5.449l-1.583,2.172l-2.441,4.349c-1.554,2.768-3.664,5.185-6.197,7.099l-2.25,1.699
						c-2.044,1.544-4.504,2.441-7.063,2.575l-1.242,0.065c-0.888,0.046-1.729-0.399-2.189-1.16l-0.285-0.472l3.028-0.353
						c2.307-0.269,4.497-1.158,6.338-2.574l2.288-1.759c2.504-1.926,4.585-4.347,6.113-7.112l2.481-4.489l0.981-1.328
						c1.313-1.779,2.177-3.849,2.518-6.034l0.154-0.988L627.514,387.841z"/>
				</g>
			</g>
		</g>
		<g>
			<g id="s-r-leg-1_00000163031531068057832420000007159264785845812670_">
				<circle fill="#F8BA98" stroke="#D89977" stroke-width="2" stroke-miterlimit="10" cx="694.473" cy="366.194" r="6.715"/>
				<polygon fill="#F8BA98" stroke="#D89977" stroke-miterlimit="10" points="701.063,365.332 696.363,331.083 677.765,333.635 
					684.798,360.786 687.912,368.277 				"/>
				<path fill="none" stroke="#D89977" stroke-miterlimit="10" d="M698.203,362.487c-2.052-14.95-4.284-19.887-4.284-19.887"/>
				<path fill="none" stroke="#D89977" stroke-miterlimit="10" d="M689.249,361.951c0,0,0.577-1.323-2.347-14.019"/>
				<circle fill="none" cx="676.996" cy="287.977" r="11.174"/>
				<polygon fill="#9DCCEF" stroke="#6AA5CD" stroke-miterlimit="10" points="687.417,283.889 693.341,307.471 697.719,333.401 
					698.284,337.516 688.047,339.525 678.402,340.245 677.199,336.217 672.661,317.97 666.311,291.248 				"/>
				<path fill="#C2DB9C" stroke="#63BC99" stroke-miterlimit="10" d="M697.719,333.401c0,0-7.653,1.654-10.237,2.008
					c-2.555,0.35-10.283,0.808-10.283,0.808l1.203,4.028c0,0,7.249-0.397,9.645-0.72c2.585-0.349,10.237-2.008,10.237-2.008
					L697.719,333.401z"/>
			</g>
			<g>
				<g id="f-r-leg-1_00000147213633825646019350000016691203474262274949_">
					<polygon fill="#F8BA98" stroke="#D89977" stroke-miterlimit="10" points="666.664,442.953 676.652,408.649 677.398,393.315 
						681.246,383.467 686.564,372.983 687.761,365.97 700.223,369.663 698.635,377.312 696.869,391.281 692.075,405.765 
						674.5,446.015 					"/>
					<polyline fill="none" stroke="#D89977" stroke-miterlimit="10" points="695.8,386.119 693.941,393.97 688.597,409.942 					"/>
					<path fill="none" stroke="#D89977" stroke-miterlimit="10" d="M686.847,385.709c-6.123,15.668-8.922,18.438-8.922,18.438"/>
					<circle fill="#F8BA98" cx="694.473" cy="366.194" r="6.715"/>
					<circle fill="#F8BA98" cx="670.667" cy="444.267" r="4.207"/>
				</g>
				<g id="r-boot-1_00000155113595935871299770000017069740089755144877_">
					<path fill="#68B0B2" stroke="#68B0B2" stroke-miterlimit="10" d="M690.501,462.346l-0.415-0.689
						c-1.134-1.882-2.783-3.4-4.751-4.375c-2.458-1.218-4.432-3.23-5.603-5.711l-2.955-6.264l-0.526,0.361
						c-1.329,0.913-2.937,1.331-4.543,1.181c0,0-0.982-0.03-1.294-0.121c-3.664-1.073-5.183-2.561-5.731-3.275
						c-0.155-0.203-0.455-0.211-0.626-0.022l-0.709,0.783c-0.722,0.797-1.336,1.677-1.844,2.613l3.399,11.644l0,0l1.416,0.849
						l7.767,6.168l10.845,2.894l6.399-1.883C691.544,465.061,691.252,463.592,690.501,462.346z"/>
					<path fill="#BBDEDE" stroke="#BBDEDE" stroke-miterlimit="10" d="M662.738,448.68l-1.235-1.852
						c-0.728,1.34-1.233,2.797-1.473,4.318l-0.296,1.871l0.335,3.365l4.833,2.09l0,0l0.078-1.745
						C665.109,453.874,664.323,451.055,662.738,448.68z"/>
					<path fill="#82A4A4" stroke="#82A4A4" stroke-miterlimit="10" d="M671.35,448.397l4.709,8.288
						c1.242,0.014,4.387-0.129,5.954-1.823l0.008,0.007c-0.934-0.958-1.711-2.07-2.29-3.297l-2.955-6.264l-0.526,0.361
						c-1.329,0.913-2.937,1.331-4.543,1.181c0,0-0.982-0.03-1.294-0.121c-0.066-0.019-0.126-0.04-0.191-0.059
						C670.917,447.157,671.121,447.767,671.35,448.397z"/>
					<path fill="#BBDEDE" stroke="#BBDEDE" stroke-miterlimit="10" d="M671.35,448.397l5.193,9.141
						c0.305,0.839,0.322,1.755,0.048,2.604l-1.781,5.894l-1.844-0.708l1.438-5.163c0.237-0.808,0.214-1.67-0.065-2.464
						c0,0-3.632-5.531-4.523-7.54c-0.566-1.275-1.171-2.066-2.193-2.671l-4.713-2.791l1.152-1.272
						c0.205-0.227,0.541-0.28,0.806-0.127l0.573,0.553c1.11,1.07,2.455,1.847,3.904,2.375
						C670.784,446.752,671.044,447.556,671.35,448.397z"/>
					<path fill="#BBDEDE" stroke="#BBDEDE" stroke-miterlimit="10" d="M676.189,458.175c0,0,3.974,0.846,7.196-2.101l-1.372-1.212
						c-1.979,2.14-6.478,1.805-6.478,1.805L676.189,458.175z"/>
					<line fill="none" stroke="#020203" stroke-miterlimit="10" x1="677.445" y1="446.725" x2="671.356" y2="448.301"/>
					<line fill="none" stroke="#020203" stroke-miterlimit="10" x1="677.643" y1="447.101" x2="673.554" y2="452.187"/>
					<line fill="none" stroke="#020203" stroke-miterlimit="10" x1="670.262" y1="448.584" x2="679.236" y2="450.523"/>
					<line fill="none" stroke="#020203" stroke-miterlimit="10" x1="672.928" y1="453.275" x2="681.535" y2="454.342"/>
					<line fill="none" stroke="#020203" stroke-miterlimit="10" x1="679.517" y1="451.118" x2="675.586" y2="455.978"/>
					<path fill="#E2DCDC" stroke="#E2DCDC" stroke-miterlimit="10" d="M659.238,456.324L659.238,456.324
						c1.113,1.669,2.578,3.073,4.292,4.115l2.297,1.396l3.926,3.076c2.499,1.958,5.376,3.377,8.451,4.169l2.73,0.703
						c2.481,0.639,5.097,0.521,7.51-0.34l1.172-0.418c0.837-0.299,1.442-1.034,1.574-1.913l0.082-0.545l-2.931,0.839
						c-2.232,0.639-4.596,0.661-6.84,0.062l-2.788-0.744c-3.052-0.815-5.904-2.249-8.378-4.214l-4.016-3.189l-1.416-0.849
						c-1.897-1.137-3.49-2.716-4.646-4.602l-0.522-0.853L659.238,456.324z"/>
				</g>
			</g>
		</g>
		<g id="ass-1_00000078032543052229046160000011686752722963035310_">
			<path fill="#9DCCEF" d="M683.698,274.552c0,0-9.908,2.971-18.776,3.746c-8.711,0.761-19.141-0.435-19.141-0.435l-2.107,10.378
				c0,0,2.744,10.066,7.466,12.125c1.634,0.713,14.034,1.447,15.845,1.289c1.872-0.164,13.846-3.025,15.329-4.011
				c4.29-2.853,5.258-13.236,5.258-13.236L683.698,274.552z"/>
			<path fill="#C2DB9C" stroke="#63BC99" stroke-miterlimit="10" d="M683.698,274.552c0,0-11.364,3.098-18.753,3.744
				c-8.041,0.702-19.164-0.433-19.164-0.433l-0.741,3.648c0,0,12.281,0.871,20.201,0.18c7.84-0.685,19.68-4.027,19.68-4.027
				L683.698,274.552z"/>
		</g>
		<g id="body-1_00000034075241733107739050000009910055656476467346_">
			<path fill="#F8BA98" stroke="#D89977" stroke-miterlimit="10" d="M678.465,185.141l-3.133-1.237L670,183.439l-7.084-2.917
				l-0.76-8.69l-6.459,0.564l-6.459,0.564l0.758,8.69l-6.471,4.1l-5.17,1.383l-2.871,1.761l-10.002,3.995l4.293,14.789l3.248,4.656
				l5.469,10.979c0,0,11.577,36.485,7.29,54.549c0,0,11.498,1.102,19.164,0.433c6.196-0.541,18.753-3.744,18.753-3.744
				c-7.308-17.052-2.229-54.991-2.229-54.991l3.282-11.509l2.089-5.493l2.169-15.216L678.465,185.141z"/>
			<line fill="none" stroke="#D89977" stroke-miterlimit="10" x1="661.581" y1="240.045" x2="664.325" y2="271.465"/>
			<path fill="none" stroke="#D89977" stroke-miterlimit="10" d="M658.009,234.894c-4.623,4.087-5.888,9.205-5.888,9.205"/>
			<line fill="none" stroke="#D89977" stroke-miterlimit="10" x1="645.859" y1="227.636" x2="652.711" y2="231.259"/>
			<line fill="none" stroke="#D89977" stroke-miterlimit="10" x1="643.807" y1="232.658" x2="648.724" y2="233.718"/>
			<line fill="none" stroke="#D89977" stroke-miterlimit="10" x1="644.999" y1="237.396" x2="648.088" y2="237.126"/>
			<path fill="none" stroke="#D89977" stroke-miterlimit="10" d="M638.06,218.385l2.45,3.256c0.548,0.728,1.539,1.162,2.62,1.147
				l9.688-0.134c1.355-0.019,2.678-0.415,3.743-1.12l1.59-1.054"/>
			<path fill="none" stroke="#D89977" stroke-miterlimit="10" d="M664.253,234.349c7.018,3.733,7.394,8.045,7.394,8.045"/>
			<line fill="none" stroke="#D89977" stroke-miterlimit="10" x1="674.961" y1="225.095" x2="669.222" y2="229.554"/>
			<line fill="none" stroke="#D89977" stroke-miterlimit="10" x1="677.851" y1="229.685" x2="673.593" y2="231.419"/>
			<line fill="none" stroke="#D89977" stroke-miterlimit="10" x1="677.499" y1="234.558" x2="674.41" y2="234.827"/>
			<path fill="none" stroke="#D89977" stroke-miterlimit="10" d="M681.038,214.632l-1.849,3.631
				c-0.413,0.812-1.315,1.411-2.382,1.584l-9.564,1.547c-1.338,0.216-2.71,0.056-3.88-0.455l-1.749-0.762"/>
			<line fill="none" stroke="#D89977" stroke-miterlimit="10" x1="659.721" y1="218.48" x2="658.617" y2="205.829"/>
			<line fill="none" stroke="#D89977" stroke-miterlimit="10" x1="655.165" y1="259.353" x2="671.293" y2="257.945"/>
			<line fill="none" stroke="#D89977" stroke-miterlimit="10" x1="661.226" y1="271.736" x2="667.47" y2="271.191"/>
			<line fill="none" stroke="#D89977" stroke-miterlimit="10" x1="657.728" y1="247.305" x2="666.907" y2="246.504"/>
			
				<ellipse transform="matrix(0.9962 -0.087 0.087 0.9962 -16.5226 56.9231)" fill="#D89977" cx="644.865" cy="218.039" rx="1.55" ry="1.237"/>
			
				<ellipse transform="matrix(0.9962 -0.087 0.087 0.9962 -16.1877 59.4718)" fill="#D89977" cx="674.276" cy="215.471" rx="1.55" ry="1.237"/>
			
				<ellipse transform="matrix(0.9962 -0.087 0.087 0.9962 -20.1577 58.6951)" fill="#D89977" cx="663.379" cy="260.634" rx="1.55" ry="1.237"/>
			<path fill="none" stroke="#D89977" stroke-miterlimit="10" d="M642.495,190.894l1.943,0.494c1.023,0.26,2.121,0.309,3.194,0.141
				l1.305-0.204c1.219-0.19,2.467-0.064,3.56,0.36l1.8,0.698"/>
			<path fill="none" stroke="#D89977" stroke-miterlimit="10" d="M671.701,188.381l-1.669,0.772
				c-0.962,0.433-2.035,0.672-3.121,0.693l-1.32,0.026c-1.234,0.024-2.441,0.364-3.444,0.971l-1.652,1"/>
		</g>
		<g>
			<g>
				<path fill="#EEEDED" d="M632.89,135.302c-0.215-1.628,0.474-3.912,2.357-5.147c2.962-1.942,6.692-1.677,9.21-1.218
					c2.728,0.498,4.092,3.058,4.152,4.691c0.075,2.048-1.681,4.638-3.678,5.4c-2.639,1.008-5.719,1.252-8.45,0.595
					C634.914,139.247,633.118,137.025,632.89,135.302z"/>
				<g>
					<circle fill="#6DABA8" cx="640.782" cy="134.254" r="3.062"/>
					<circle fill="#020203" cx="640.782" cy="134.254" r="1.312"/>
				</g>
				
					<path id="l-down-eyelid_00000117675851845756806380000014921205384454096554_" fill="#F2B290" stroke="#E6A081" stroke-miterlimit="10" d="
					M633.538,138.856c0,0,3.852,0.883,7.065,0.6c3.223-0.283,7.86-1.655,7.86-1.655l0.273,4.991l-14.575,1.443L633.538,138.856z"/>
				
					<path id="l-top-eyelid_00000016054464335781796700000003246759574553486758_" fill="#F2B290" stroke="#E6A081" stroke-miterlimit="10" d="
					M632.145,132.321c0,0,3.782-2.482,8.072-2.844c4.261-0.36,8.487,1.145,8.487,1.145l-1.701-9.536l-15.519,2.175L632.145,132.321z
					"/>
			</g>
			<g>
				<path fill="#EEEDED" d="M671.7,131.913c-0.07-1.641-1.144-3.771-3.214-4.661c-3.254-1.399-6.882-0.492-9.281,0.396
					c-2.601,0.963-3.5,3.721-3.276,5.339c0.281,2.03,2.46,4.276,4.558,4.681c2.774,0.536,5.849,0.242,8.425-0.878
					C670.39,136.149,671.774,133.649,671.7,131.913z"/>
				<g>
					<circle fill="#6DABA8" cx="663.746" cy="132.249" r="3.062"/>
					<circle fill="#020203" cx="663.746" cy="132.249" r="1.312"/>
				</g>
				
					<path id="r-down-eyelid_00000180337525595353547490000010433461619630921608_" fill="#F2B290" stroke="#E6A081" stroke-miterlimit="10" d="
					M671.677,135.526c0,0-3.641,1.537-6.854,1.816c-3.223,0.28-8.028-0.268-8.028-0.268l0.596,4.963l14.604-1.105L671.677,135.526z"
					/>
				
					<path id="r-top-eyelid_00000104700104535900379850000012887078157821026960_" fill="#F2B290" stroke="#E6A081" stroke-miterlimit="10" d="
					M671.917,128.848c0,0-4.154-1.789-8.443-1.402c-4.259,0.384-8.161,2.598-8.161,2.598l0.022-9.686l15.661-0.548L671.917,128.848z
					"/>
			</g>
			
				<path id="face-1_00000072961247983867362840000005967754955953238943_" fill="#F9C0A2" stroke="#D89977" stroke-miterlimit="10" d="
				M676.133,139.056l-46.377,4.05c2.182,13.065,14.436,29.314,14.532,29.417c2.013,2.186,8.66,2.761,11.621,2.502
				c2.961-0.259,9.404-1.979,11.011-4.478C667.009,170.408,676.247,152.176,676.133,139.056z"/>
			<g id="mouth1_00000088826676937331905800000004955412245693210278_">
				<path fill="#E06B47" d="M665.345,157.309c0,0-1.787,0.899-3.588,1.156c-1.665,0.238-3.995,0.101-3.995,0.101
					c-0.929-0.067-1.846,0.191-2.631,0.741l0,0c-0.344,0.241-0.771,0.278-1.151,0.1l-0.001-0.001
					c-0.867-0.406-1.816-0.502-2.718-0.275c0,0-1.67,0.513-3.532,0.583c-1.884,0.07-4.155-0.512-4.155-0.512
					c-0.451-0.099-0.899,0.146-1.11,0.605l0,0l0,0.001c1.318,4.069,9.307,5.634,12.596,5.346c3.426-0.299,10.433-3.236,11.48-7.44
					l0,0l0-0.001C666.255,157.297,665.772,157.134,665.345,157.309z"/>
				<path fill="none" stroke="#DE5735" stroke-linecap="round" stroke-miterlimit="10" d="M642.609,159.884
					c0,0,5.51,2.102,10.45,2.25c1.226,0.037,2.44-0.102,3.646-0.331c5.523-1.049,9.683-3.942,9.683-3.942"/>
			</g>
			<path fill="#F9C0A2" stroke="#D89977" stroke-miterlimit="10" d="M676.183,139.628l0.101,1.179
				c0.091,1.055,0.776,1.932,1.683,2.151c0.676,0.164,1.37-0.066,1.854-0.612c0.89-1.006,1.405-2.373,1.439-3.822l0.121-5.226
				l0.285-5.337c0.058-1.096-0.219-2.191-0.784-3.095c-0.591-0.946-1.677-1.287-2.579-0.811l-0.331,0.174
				c-0.583,0.307-1,0.913-1.129,1.637l-0.471,2.649l-0.349,2.468c-0.169-4.068-0.465-8.092-0.694-12.029
				c-0.248-18.428-14.137-22.193-26.145-20.93c-12.045,0.836-25.071,6.952-22.122,25.144c0.457,3.917,0.863,7.931,1.402,11.967
				l-0.772-2.37l-0.923-2.527c-0.252-0.691-0.768-1.215-1.395-1.417l-0.356-0.114c-0.971-0.312-1.981,0.212-2.399,1.246
				c-0.4,0.989-0.483,2.115-0.235,3.184l1.206,5.207l1.025,5.126c0.284,1.422,1.028,2.679,2.079,3.515
				c0.571,0.454,1.295,0.56,1.932,0.282c0.855-0.373,1.378-1.356,1.285-2.411l-0.105-1.179 M648.602,133.628
				c0.075,2.048-1.681,4.638-3.678,5.4c-2.639,1.008-5.719,1.252-8.45,0.595c-1.567-0.377-3.363-2.598-3.591-4.321
				c-0.215-1.628,0.474-3.912,2.357-5.147c2.962-1.942,6.692-1.677,9.21-1.218C647.179,129.435,648.543,131.995,648.602,133.628z
				 M671.7,131.913c0.074,1.736-1.31,4.236-2.788,4.878c-2.576,1.12-5.651,1.414-8.425,0.878c-2.098-0.405-4.276-2.651-4.558-4.681
				c-0.224-1.618,0.675-4.376,3.276-5.339c2.4-0.888,6.028-1.796,9.281-0.396C670.556,128.143,671.63,130.272,671.7,131.913z"/>
			<path fill="#EDAD8C" d="M676.931,130.24l0.262-1.474c0.072-0.403,0.304-0.74,0.628-0.911l0.184-0.097
				c0.502-0.265,1.107-0.075,1.435,0.451l0.242,0.387c0.158,0.253,0.236,0.56,0.22,0.867l-0.184,3.439l-0.084,3.641
				c-0.008,0.337-0.127,0.654-0.334,0.888l-0.45,0.508c-0.269,0.304-0.656,0.432-1.032,0.341l0,0
				c-0.505-0.122-0.886-0.61-0.937-1.197l-0.217-2.526c-0.086-1.004-0.059-2.014,0.081-3.004L676.931,130.24z"/>
			<path fill="#EDAD8C" d="M627.438,134.559l-0.512-1.407c-0.14-0.385-0.427-0.677-0.776-0.79l-0.198-0.064
				c-0.54-0.175-1.103,0.116-1.336,0.691l-0.172,0.422c-0.112,0.277-0.136,0.592-0.067,0.892l0.773,3.357l0.709,3.572
				c0.066,0.33,0.238,0.622,0.482,0.817l0.53,0.423c0.318,0.253,0.72,0.313,1.075,0.159l0,0c0.476-0.207,0.768-0.753,0.717-1.34
				l-0.221-2.526c-0.088-1.004-0.288-1.994-0.596-2.945L627.438,134.559z"/>
			<g>
				<path fill="#F5B493" d="M647.502,149.979c0,0,1.862-3.055,2.078-3.991c0.683-2.962,0.806-12.088,0.806-12.088l1.902,15.303
					L647.502,149.979z"/>
				<path fill="#F5B493" d="M659.874,148.909c0,0-2.378-2.734-2.753-3.618c-1.186-2.799-2.895-11.725-2.895-11.725l0.779,15.401
					L659.874,148.909z"/>
				<path fill="#EFAA8B" d="M650.849,131.519c-0.397,0.499-0.585,1.132-0.523,1.767c0.209,2.156,0.694,7.252,0.797,9.25
					c0.072,1.402,0.07,4.369-0.683,5.586c-0.574,0.928-3.14,1.587-3.681,2.532c-0.232,0.405-0.291,1.662,0.16,1.828
					c0.806,0.298,4.414,0.166,5.841-0.142c0.285-0.061,1.162-0.101,1.162-0.101s0.871-0.113,1.162-0.101
					c1.459,0.055,5.034-0.44,5.777-0.873c0.415-0.242,0.139-1.469-0.16-1.828c-0.697-0.837-3.338-1.041-4.064-1.856
					c-0.953-1.069-1.469-3.99-1.641-5.383c-0.245-1.985-0.65-7.085-0.818-9.246c-0.049-0.637-0.345-1.229-0.824-1.652l-0.002-0.001
					C652.609,130.642,651.467,130.743,650.849,131.519L650.849,131.519z"/>
				
					<ellipse transform="matrix(0.999 -0.0443 0.0443 0.999 -6.0833 28.9275)" fill="#B57F69" cx="650.267" cy="151.851" rx="2.708" ry="0.367"/>
				
					<ellipse transform="matrix(0.9916 -0.1296 0.1296 0.9916 -14.0514 86.4564)" fill="#B57F69" cx="657.454" cy="151.224" rx="2.708" ry="0.367"/>
			</g>
			<path fill="#B87645" d="M654.655,122.033c0.512-5.107,17.808-5.427,16.228-0.49c-0.182,0.569-0.819,0.841-1.368,0.605
				c-4.744-2.045-9.215,0.132-13.91,0.765C655.082,122.984,654.602,122.558,654.655,122.033z"/>
			<path fill="#B87645" d="M648.039,122.997c-0.614-5.495-18.907-2.706-16.077,2.067c0.275,0.463,0.895,0.57,1.344,0.272
				c4.431-2.942,9.353-1.427,14.212-1.703C647.842,123.614,648.075,123.318,648.039,122.997z"/>
			<g id="hair1_00000181074673491809739580000003920855271275656856_">
				<path fill="#A06B46" d="M628.298,136.146l0.306-0.795c0.286-0.744,0.399-1.565,0.328-2.384l-1.133-11.78
					c-0.154-1.765,0.295-3.513,1.254-4.873l2.506-3.558c0.331-0.47,0.884-0.652,1.394-0.458l0.749,0.285l2.803-2.214
					c0.235-0.186,0.544-0.204,0.802-0.047l1.154,0.704c0.353,0.215,0.59,0.619,0.63,1.072l0.017,0.199l1.792-2.2
					c0.18-0.221,0.49-0.215,0.673,0.014l0.845,1.058l1.958-2.266c0.127-0.146,0.33-0.16,0.477-0.033l1.009,0.879l0.32-0.327
					c0.234-0.239,0.609-0.136,0.734,0.202l0.212,0.574l1.225-2.234c0.114-0.207,0.37-0.23,0.518-0.045l1.176,1.465l0.889-0.685
					c0.193-0.148,0.455-0.104,0.609,0.104l1.156,1.562l1.724-2.075c0.163-0.197,0.428-0.229,0.632-0.078l1.558,1.158l0.975-2.082
					c0.112-0.239,0.412-0.241,0.536-0.003l0.618,1.184c0.112,0.215,0.182,0.455,0.203,0.703l0.096,1.105l0.805-1.292
					c0.154-0.248,0.225-0.553,0.198-0.861l-0.013-0.153c-0.018-0.209,0.207-0.316,0.328-0.156l0.238,0.314
					c0.464,0.612,1.013,1.131,1.625,1.535l0.699,0.461l-0.055-0.628c-0.024-0.274,0.235-0.453,0.439-0.304l1.668,1.219l1.459-1.417
					c0.182-0.177,0.46-0.14,0.611,0.081l0.561,0.826l0.536-0.905c0.24-0.405,0.741-0.464,1.063-0.126l2.173,2.286
					c1.372,1.443,2.251,3.398,2.472,5.498l1.411,11.797c0.078,0.745,0.243,1.476,0.49,2.175l0.213,0.604l0.568-3.564
					c0.099-0.618,0.579-4.515,0.579-4.515l0.335-1.894l-1.117-7.052l-0.426-4.874l-1.525-3.597l-0.895-3.092l-1.591-1.229
					l-1.348-3.675l-1.663,0.145l-2.549-2.575l-3.702-0.298l-3.884-1.775l-3.493,0.554l-3.278-1.081l-0.371,0.841l-4.375-1.421
					l-0.948,1.699l-5.982,0.522l-1.909,1.659l-1.309-0.134l-2.907,1.995l-1.717,0.15l-2.027,2.166l-4.177,3.287l0.863,0.236
					l-2.297,3.433l0.27,0.598l-1.356,4.035l0.547,0.512l-0.711,5.284l1.15,5.495l-0.314,0.985c0,0,2.82,5.478,3.241,9.322
					C627.723,134.082,628.298,136.146,628.298,136.146z"/>
			</g>
		</g>
		<g>
			<g id="s-r-arm-1_00000000180617937187294710000014786065299106260143_">
				<circle fill="#F8BA98" stroke="#D89977" stroke-miterlimit="10" cx="578.775" cy="219.644" r="5.445"/>
				<circle fill="#F8BA98" cx="628.167" cy="200.104" r="7.687"/>
				<polyline fill="#F8BA98" stroke="#D89977" stroke-miterlimit="10" points="625.407,192.887 616.345,197.598 605.14,200.445 
					577.818,214.275 582.244,223.842 591.178,219.267 608.086,214.35 621.569,208.713 626.714,207.655 				"/>
				<polyline fill="none" stroke="#D89977" stroke-miterlimit="10" points="617.33,206.618 608.849,208.309 600.008,212.443 				"/>
				<line fill="#F8BA98" stroke="#D89977" stroke-miterlimit="10" x1="602.818" y1="201.62" x2="599.303" y2="207.456"/>
			</g>
			<g>
				<g id="f-r-arm-1_00000158748566064188782780000011230288944126468000_">
					<path fill="#F8BA98" stroke="#D89977" stroke-miterlimit="10" d="M574.14,216.695l-8.304,10.09l-18.121,33.453l4.448,4.171
						c0,0,14.805-20.184,20.153-26.583c1.124-1.345,4.746-5.159,4.746-5.159l5.472-9.152L574.14,216.695z"/>
					<polyline fill="none" stroke="#D89977" stroke-miterlimit="10" points="575.365,225.85 571.955,230.154 568.991,235.711 					
						"/>
					<line fill="none" stroke="#D89977" stroke-miterlimit="10" x1="571.328" y1="226.983" x2="565.805" y2="231.972"/>
					<circle fill="#F8BA98" cx="578.736" cy="219.615" r="5.144"/>
				</g>
				<g id="l-palm_00000093136694091058574280000008367902843609431171_">
					
						<path id="l-finger_00000006704293704645504120000012687102624374057648_" fill="#F8BA98" stroke="#D89977" stroke-miterlimit="10" d="
						M551.142,278.495c0,0-2.894,2.781-4.01,3.169c-1.417,0.492-2.803-0.406-2.803-0.406l4.058-5.178"/>
					<path fill="#F8BA98" stroke="#D89977" stroke-miterlimit="10" d="M551.142,278.495c0,0,1.095-3.075,1.414-4.181
						c0.316-1.098,0.347-2.258,0.279-3.399c-0.099-1.677-0.386-6.707-0.386-6.707l-4.701-4.104l-2.213,0.596
						c-0.809,0.218-1.593,0.516-2.342,0.89l-0.883,0.441c-2.059,1.029-3.908,2.432-5.453,4.138l-5.278,6.351
						c-0.408,0.45-0.405,1.137,0.005,1.584l0.419,0.456c0.442,0.482,1.193,0.51,1.67,0.063l3.846-4.175l-4.204,5.135
						c-0.425,0.514-0.406,1.264,0.045,1.755l0.412,0.449c0.508,0.554,1.373,0.58,1.914,0.058l4.598-4.805l-4.381,5.288
						c-0.522,0.625-0.501,1.541,0.05,2.141l0.534,0.582c0.652,0.711,1.777,0.701,2.416-0.022l4.4-5.114l-4.038,5.629
						c-0.426,0.609-0.372,1.431,0.13,1.979l0.441,0.481c0.66,0.719,1.807,0.676,2.411-0.091l6.14-7.834"/>
					<circle fill="#F8BA98" cx="549.908" cy="262.374" r="3.133"/>
				</g>
			</g>
		</g>
		<g>
			<g id="s-r-arm-1_00000078738792943548115760000014150060527717650852_">
				<circle fill="#F8BA98" stroke="#D89977" stroke-miterlimit="10" cx="731.414" cy="224.893" r="5.965"/>
				<circle fill="#F8BA98" cx="687.596" cy="194.872" r="7.687"/>
				<polyline fill="#F8BA98" stroke="#D89977" stroke-miterlimit="10" points="691.889,188.448 699.68,195.053 709.972,200.318 
					733.541,219.87 727.1,228.215 719.405,221.77 704.011,213.221 692.117,204.731 687.336,202.556 				"/>
				<polyline fill="none" stroke="#D89977" stroke-miterlimit="10" points="696.716,203.629 704.609,207.162 712.312,213.156 				
					"/>
				<line fill="#F8BA98" stroke="#D89977" stroke-miterlimit="10" x1="711.975" y1="201.979" x2="714.107" y2="208.45"/>
			</g>
			<g>
				<g id="f-r-arm-1_00000173121294023060860440000003136154954576741304_">
					<path fill="#F8BA98" stroke="#D89977" stroke-miterlimit="10" d="M735.312,229.456l-9.363,9.115l-31.828,20.843l-4.527-4.085
						c0,0,18.881-16.434,24.812-22.297c1.246-1.232,4.746-5.159,4.746-5.159l8.664-6.215L735.312,229.456z"/>
					<polyline fill="none" stroke="#D89977" stroke-miterlimit="10" points="726.087,228.998 722.082,232.755 716.792,236.171 					
						"/>
					<line fill="none" stroke="#D89977" stroke-miterlimit="10" x1="725.294" y1="233.115" x2="720.783" y2="239.035"/>
					<circle fill="#F8BA98" cx="731.414" cy="224.893" r="5.445"/>
				</g>
				<g id="r-palm-1_00000042001859708653456190000010788074153080803488_">
					<path fill="#F8BA98" stroke="#D89977" stroke-miterlimit="10" d="M675.484,257.639c0,0,3.131-1.466,4.208-1.876
						c1.068-0.407,2.221-0.534,3.364-0.561c1.679-0.04,6.716-0.174,6.716-0.174l4.482,4.343l-0.41,2.255
						c-0.15,0.824-0.382,1.631-0.692,2.408l-0.366,0.917c-0.854,2.137-2.098,4.097-3.67,5.778l-5.711,5.65
						c-0.415,0.444-1.099,0.499-1.579,0.127l-0.489-0.379c-0.517-0.401-0.608-1.146-0.202-1.659l3.661-4.041l-4.586,4.417
						c-0.477,0.467-1.225,0.51-1.753,0.101l-0.481-0.373c-0.594-0.46-0.692-1.32-0.217-1.902l4.225-4.782l-4.905,4.806
						c-0.58,0.573-1.494,0.628-2.138,0.129l-0.625-0.484c-0.763-0.591-0.846-1.712-0.179-2.409l4.73-4.81l-5.273,4.493
						c-0.571,0.475-1.396,0.49-1.983,0.035l-0.516-0.4c-0.772-0.598-0.824-1.745-0.11-2.41l7.295-6.771"/>
					<circle fill="#F8BA98" cx="691.81" cy="257.408" r="3.133"/>
					
						<path id="r-finger_00000097463287913217922240000006357389065813531014_" fill="#F8BA98" stroke="#D89977" stroke-miterlimit="10" d="
						M675.532,257.605c0,0-2.531,3.115-2.824,4.26c-0.372,1.453,0.638,2.759,0.638,2.759l4.932-4.56"/>
				</g>
			</g>
		</g>
	</g>
	<g>
		<g>
			<g id="s-r-leg-40_00000142160765265345777610000002209625524327621504_">
				<path fill="#F8BA98" stroke="#D89977" stroke-miterlimit="10" d="M405.233,365.752c0,0,4.986-6.919,7.127-17.014
					c1.144-5.396,1.886-10.884,1.886-10.884l-42.409,0.082c1.876,9.957,3.107,11.783,4.813,15.719
					c2.886,6.658,8.899,14.347,8.899,14.347L405.233,365.752z"/>
				<circle fill="none" cx="388.881" cy="286.601" r="20.032"/>
				<path fill="#9DCCEF" stroke="#6AA5CD" stroke-miterlimit="10" d="M409.535,283.968c0,0,4.506,11.722,5.332,24.961
					c0.959,15.368-0.203,29.098-0.203,29.098l-21.987,1.146l-21.303-1.169c0,0-2.112-10.846-2.615-22.043
					c-0.758-16.863,0.214-27.125,0.214-27.125L409.535,283.968z"/>
				<path fill="#C2DB9C" stroke="#63BC99" stroke-miterlimit="10" d="M414.815,334.421c0,0-14.372,0.522-22.138,0.598
					c-8.437,0.082-21.927-0.598-21.927-0.598l0.624,3.583c0,0,12.99,1.169,21.303,1.169c9.436,0,21.987-1.146,21.987-1.146
					L414.815,334.421z"/>
			</g>
			<g>
				<g id="f-r-leg-40_00000003093102696633323010000003577149152570997914_">
					<path fill="#F8BA98" stroke="#D89977" stroke-miterlimit="10" d="M397.386,448.125c0,0-6.955-13.683-10.893-25.31
						c-1.265-3.736-4.813-14.941-5.36-17.419c-0.897-4.066-1.876-10.616-1.732-14.389c0.196-5.116,1.454-9.767,2.329-12.967
						c1.01-3.69,4.013-9.073,4.013-9.073l19.51-2.078c0,0,4.572,4.926,7.079,11.059c1.485,3.632,3.588,9.904,4.154,15.1
						c0.783,7.194-1.328,21.782-1.835,25.603c-1.763,13.296-8.853,29.474-8.853,29.474H397.386z"/>
					<circle fill="#F8BA98" cx="395.349" cy="366.509" r="9.912"/>
					<circle fill="#F8BA98" cx="401.593" cy="447.893" r="4.207"/>
				</g>
				<g id="l-boot-1_00000049930741489520907190000001681021163863578002_">
					<path fill="#68B0B2" stroke="#68B0B2" stroke-miterlimit="10" d="M423.729,462.706l-0.513-0.62
						c-1.401-1.693-3.256-2.949-5.348-3.621c-2.611-0.839-4.863-2.537-6.388-4.816l-3.852-5.756l-0.466,0.435
						c-1.179,1.1-2.707,1.752-4.318,1.842c0,0-0.976,0.117-1.297,0.072c-3.783-0.518-5.505-1.763-6.154-2.389
						c-0.184-0.177-0.481-0.142-0.623,0.071l-0.585,0.879c-0.596,0.896-1.072,1.857-1.436,2.858l5.089,11.011l0,0l1.526,0.63
						l8.596,4.947l11.154,1.253l6.049-2.811C425.164,465.236,424.657,463.827,423.729,462.706z"/>
					<path fill="#BBDEDE" stroke="#BBDEDE" stroke-miterlimit="10" d="M394.246,453.31l-1.497-1.648
						c-0.521,1.433-0.804,2.949-0.816,4.489l-0.015,1.895l0.831,3.278l5.089,1.349l0,0l-0.181-1.738
						C397.361,458.095,396.166,455.424,394.246,453.31z"/>
					<path fill="#82A4A4" stroke="#82A4A4" stroke-miterlimit="10" d="M402.721,451.753l5.886,7.497
						c1.23-0.171,4.319-0.778,5.618-2.686l0.009,0.006c-1.066-0.809-1.999-1.793-2.754-2.921l-3.852-5.756l-0.466,0.435
						c-1.179,1.1-2.707,1.752-4.318,1.842c0,0-0.976,0.117-1.297,0.072c-0.068-0.009-0.131-0.021-0.198-0.03
						C402.109,450.591,402.401,451.164,402.721,451.753z"/>
					<path fill="#BBDEDE" stroke="#BBDEDE" stroke-miterlimit="10" d="M402.721,451.753l6.492,8.269
						c0.426,0.784,0.578,1.688,0.434,2.568l-0.887,6.093l-1.929-0.426l0.656-5.319c0.115-0.834-0.036-1.683-0.43-2.427
						c0,0-4.412-4.931-5.592-6.786c-0.749-1.177-1.464-1.87-2.565-2.317l-5.075-2.061l0.95-1.428
						c0.169-0.255,0.493-0.357,0.778-0.246l0.649,0.462c1.256,0.894,2.702,1.462,4.213,1.77
						C401.917,450.21,402.294,450.967,402.721,451.753z"/>
					<path fill="#BBDEDE" stroke="#BBDEDE" stroke-miterlimit="10" d="M408.957,460.705c0,0,4.055,0.247,6.804-3.146l-1.537-0.995
						c-1.64,2.41-6.138,2.746-6.138,2.746L408.957,460.705z"/>
					<line fill="none" stroke="#020203" stroke-miterlimit="10" x1="408.5" y1="449.196" x2="402.713" y2="451.657"/>
					<line fill="none" stroke="#020203" stroke-miterlimit="10" x1="408.752" y1="449.538" x2="405.462" y2="455.174"/>
					<line fill="none" stroke="#020203" stroke-miterlimit="10" x1="401.672" y1="452.1" x2="410.835" y2="452.685"/>
					<line fill="none" stroke="#020203" stroke-miterlimit="10" x1="405.005" y1="456.343" x2="413.675" y2="456.121"/>
					<line fill="none" stroke="#020203" stroke-miterlimit="10" x1="411.201" y1="453.232" x2="408.034" y2="458.622"/>
					<path fill="#E2DCDC" stroke="#E2DCDC" stroke-miterlimit="10" d="M391.919,461.39L391.919,461.39
						c1.348,1.485,3.005,2.657,4.855,3.433l2.479,1.039l4.339,2.459c2.762,1.565,5.818,2.542,8.976,2.869l2.804,0.29
						c2.548,0.264,5.118-0.241,7.376-1.45l1.097-0.587c0.784-0.419,1.273-1.236,1.273-2.125v-0.551l-2.774,1.265
						c-2.113,0.963-4.448,1.335-6.755,1.076l-2.868-0.322c-3.139-0.353-6.173-1.348-8.911-2.924l-4.445-2.558l-1.526-0.629
						c-2.044-0.843-3.855-2.168-5.277-3.861l-0.643-0.766V461.39z"/>
				</g>
			</g>
		</g>
		<g>
			<g id="s-r-leg-40_00000181066420121184908030000005165633236842462369_">
				<path fill="#F8BA98" stroke="#D89977" stroke-miterlimit="10" d="M330.842,365.752c0,0-4.986-6.919-7.127-17.014
					c-1.144-5.396-1.886-10.884-1.886-10.884l42.409,0.082c-1.876,9.957-3.107,11.783-4.813,15.719
					c-2.886,6.658-8.899,14.347-8.899,14.347L330.842,365.752z"/>
				<circle fill="none" cx="347.193" cy="286.601" r="20.032"/>
				<path fill="#9DCCEF" stroke="#6AA5CD" stroke-miterlimit="10" d="M326.54,283.968c0,0-4.506,11.722-5.332,24.961
					c-0.959,15.368,0.203,29.098,0.203,29.098l21.987,1.146l21.303-1.169c0,0,2.112-10.846,2.615-22.043
					c0.758-16.863-0.214-27.125-0.214-27.125L326.54,283.968z"/>
				<path fill="#C2DB9C" stroke="#63BC99" stroke-miterlimit="10" d="M321.26,334.421c0,0,14.372,0.522,22.138,0.598
					c8.437,0.082,21.927-0.598,21.927-0.598l-0.624,3.583c0,0-12.99,1.169-21.303,1.169c-9.436,0-21.987-1.146-21.987-1.146
					L321.26,334.421z"/>
			</g>
			<g>
				<g id="f-r-leg-40_00000081644218825784438670000010553958880913251239_">
					<path fill="#F8BA98" stroke="#D89977" stroke-miterlimit="10" d="M338.689,448.125c0,0,6.955-13.683,10.893-25.31
						c1.265-3.736,4.813-14.941,5.36-17.419c0.897-4.066,1.876-10.616,1.732-14.389c-0.196-5.116-1.454-9.767-2.329-12.967
						c-1.01-3.69-4.013-9.073-4.013-9.073l-19.51-2.078c0,0-4.572,4.926-7.079,11.059c-1.485,3.632-3.588,9.904-4.154,15.1
						c-0.783,7.194,1.328,21.782,1.835,25.603c1.763,13.296,8.853,29.474,8.853,29.474H338.689z"/>
					<circle fill="#F8BA98" cx="340.726" cy="366.509" r="9.912"/>
					<circle fill="#F8BA98" cx="334.482" cy="447.893" r="4.207"/>
				</g>
				<g id="r-boot-1_00000168828470794345585340000011286377786042501773_">
					<path fill="#68B0B2" stroke="#68B0B2" stroke-miterlimit="10" d="M312.469,462.706l0.513-0.62
						c1.401-1.693,3.256-2.949,5.348-3.621c2.611-0.839,4.863-2.537,6.388-4.816l3.852-5.756l0.466,0.435
						c1.179,1.1,2.707,1.752,4.318,1.842c0,0,0.976,0.117,1.297,0.072c3.783-0.518,5.505-1.763,6.154-2.389
						c0.184-0.177,0.481-0.142,0.623,0.071l0.585,0.879c0.596,0.896,1.072,1.857,1.436,2.858l-5.089,11.011l0,0l-1.526,0.63
						l-8.596,4.947l-11.154,1.253l-6.049-2.811C311.034,465.236,311.542,463.827,312.469,462.706z"/>
					<path fill="#BBDEDE" stroke="#BBDEDE" stroke-miterlimit="10" d="M341.952,453.31l1.497-1.648
						c0.521,1.433,0.804,2.949,0.816,4.489l0.015,1.895l-0.831,3.278l-5.089,1.349l0,0l0.181-1.738
						C338.837,458.095,340.032,455.424,341.952,453.31z"/>
					<path fill="#82A4A4" stroke="#82A4A4" stroke-miterlimit="10" d="M333.478,451.753l-5.886,7.497
						c-1.23-0.171-4.319-0.778-5.618-2.686l-0.009,0.006c1.066-0.809,1.999-1.793,2.754-2.921l3.852-5.756l0.466,0.435
						c1.179,1.1,2.707,1.752,4.318,1.842c0,0,0.976,0.117,1.297,0.072c0.068-0.009,0.131-0.021,0.198-0.03
						C334.089,450.591,333.798,451.164,333.478,451.753z"/>
					<path fill="#BBDEDE" stroke="#BBDEDE" stroke-miterlimit="10" d="M333.478,451.753l-6.492,8.269
						c-0.426,0.784-0.578,1.688-0.434,2.568l0.887,6.093l1.929-0.426l-0.656-5.319c-0.115-0.834,0.036-1.683,0.43-2.427
						c0,0,4.412-4.931,5.592-6.786c0.749-1.177,1.464-1.87,2.565-2.317l5.075-2.061l-0.95-1.428
						c-0.169-0.255-0.493-0.357-0.778-0.246l-0.649,0.462c-1.256,0.894-2.702,1.462-4.213,1.77
						C334.281,450.21,333.905,450.967,333.478,451.753z"/>
					<path fill="#BBDEDE" stroke="#BBDEDE" stroke-miterlimit="10" d="M327.241,460.705c0,0-4.055,0.247-6.804-3.146l1.537-0.995
						c1.64,2.41,6.138,2.746,6.138,2.746L327.241,460.705z"/>
					<line fill="none" stroke="#020203" stroke-miterlimit="10" x1="327.698" y1="449.196" x2="333.486" y2="451.657"/>
					<line fill="none" stroke="#020203" stroke-miterlimit="10" x1="327.446" y1="449.538" x2="330.736" y2="455.174"/>
					<line fill="none" stroke="#020203" stroke-miterlimit="10" x1="334.526" y1="452.1" x2="325.363" y2="452.685"/>
					<line fill="none" stroke="#020203" stroke-miterlimit="10" x1="331.194" y1="456.343" x2="322.523" y2="456.121"/>
					<line fill="none" stroke="#020203" stroke-miterlimit="10" x1="324.997" y1="453.232" x2="328.164" y2="458.622"/>
					<path fill="#E2DCDC" stroke="#E2DCDC" stroke-miterlimit="10" d="M344.279,461.39L344.279,461.39
						c-1.348,1.485-3.005,2.657-4.855,3.433l-2.479,1.039l-4.339,2.459c-2.762,1.565-5.818,2.542-8.976,2.869l-2.804,0.29
						c-2.548,0.264-5.118-0.241-7.376-1.45l-1.097-0.587c-0.784-0.419-1.273-1.236-1.273-2.125v-0.551l2.774,1.265
						c2.113,0.963,4.448,1.335,6.755,1.076l2.868-0.322c3.139-0.353,6.173-1.348,8.911-2.924l4.445-2.558l1.526-0.629
						c2.044-0.843,3.855-2.168,5.277-3.861l0.643-0.766V461.39z"/>
				</g>
			</g>
		</g>
		<path id="ass-40_00000173841818266213124130000010605879740780387512_" fill="#9DCCEF" d="M328.596,273.812
			c0,0,30.697,2.098,39.441,2.098s39.441-2.098,39.441-2.098l2.056,10.156c0,0-21.3,10.266-25.825,12.728
			c-1.566,0.852-13.855,2.662-15.673,2.662c-1.818,0-14.107-1.81-15.673-2.662c-4.524-2.462-25.825-12.728-25.825-12.728
			L328.596,273.812z"/>
		<g id="body-40_00000173129371626563234310000007205625214026385546_">
			<path fill="#F8BA98" stroke="#D89977" stroke-miterlimit="10" d="M325.834,225.492c0,0,9.376-12.996,10.807-16.335
				c0.553-1.29,2.503-6.655,2.503-6.655l-4.362-19.134c0,0,7.942-3.639,11.213-4.962c2.628-1.063,4.804-2.236,6.475-2.915
				c1.17-0.475,1.935-1.611,1.935-2.874l0.001-6.641l13.632,3.633v0.001l0-0.001l13.632-3.633l0.001,6.641
				c0,1.263,0.765,2.399,1.935,2.874c1.671,0.679,3.847,1.852,6.475,2.915c3.271,1.324,11.213,4.962,11.213,4.962l-4.362,19.134
				c0,0,1.95,5.365,2.503,6.655c1.431,3.34,10.807,16.335,10.807,16.335c13.086,12.391,27.597,58.306-0.417,64.393
				c-10.58,2.299-24.093,5.926-41.786,5.926s-31.01-3.528-41.786-5.926C298.268,283.657,312.748,237.883,325.834,225.492z"/>
			<path fill="#F8BA98" stroke="#D89977" stroke-miterlimit="10" d="M394.428,204.199c0,0,6.651,3.7,9.309,10.709
				c1.208,3.186,3.038,10.633-2.211,11.115c-1.906,0.175-5.9-1.406-14.245-2.77c-6.959-1.138-15.218-1.743-17.67-6.974"/>
			<ellipse fill="#D89977" cx="392.966" cy="218.897" rx="1.55" ry="1.237"/>
			<path fill="#F8BA98" stroke="#D89977" stroke-miterlimit="10" d="M341.683,204.199c0,0-6.651,3.7-9.309,10.709
				c-1.208,3.186-3.038,10.633,2.211,11.115c1.906,0.175,5.9-1.406,14.245-2.77c6.959-1.138,15.218-1.743,17.67-6.974"/>
			<ellipse fill="#D89977" cx="343.145" cy="218.897" rx="1.55" ry="1.237"/>
			<ellipse fill="#D89977" cx="368.06" cy="265.836" rx="1.55" ry="1.237"/>
			<path fill="none" stroke="#D89977" stroke-miterlimit="10" d="M404.155,227.033c0,0-20.26-5.747-36.144-5.747
				c-16.61,0-34.648,5.747-34.648,5.747"/>
		</g>
		<g>
			<g>
				<path fill="#EEEDED" d="M387.532,130.671c0.073-1.641-0.812-3.856-2.796-4.923c-3.12-1.677-6.813-1.089-9.281-0.413
					c-2.675,0.733-3.811,3.402-3.728,5.034c0.104,2.047,2.078,4.474,4.133,5.06c2.717,0.775,5.806,0.75,8.47-0.142
					C385.858,134.776,387.454,132.407,387.532,130.671z"/>
				<g>
					<circle fill="#6DABA8" cx="379.578" cy="130.313" r="3.062"/>
					<circle fill="#020203" cx="379.578" cy="130.313" r="1.312"/>
				</g>
				
					<path id="l-down-eyelid_00000098179202289499341770000007295471825615628456_" fill="#F2B290" stroke="#E6A081" stroke-miterlimit="10" d="
					M387.194,134.267c0,0-3.761,1.214-6.986,1.213c-3.235-0.002-7.974-0.965-7.974-0.965l0.162,4.996l14.645,0.17L387.194,134.267z"
					/>
				
					<path id="l-top-eyelid_00000085941973863994122930000000391266563538540436_" fill="#F2B290" stroke="#E6A081" stroke-miterlimit="10" d="
					M388.014,127.636c0,0-3.983-2.144-8.289-2.131c-4.276,0.012-8.356,1.879-8.356,1.879l0.865-9.648l15.649,0.816L388.014,127.636z
					"/>
			</g>
			<g>
				<path fill="#EEEDED" d="M348.573,130.671c-0.073-1.641,0.812-3.856,2.796-4.923c3.12-1.677,6.813-1.089,9.281-0.413
					c2.675,0.733,3.811,3.402,3.728,5.034c-0.104,2.047-2.078,4.474-4.133,5.06c-2.717,0.775-5.806,0.75-8.47-0.142
					C350.247,134.776,348.651,132.407,348.573,130.671z"/>
				<g>
					<circle fill="#6DABA8" cx="356.527" cy="130.313" r="3.062"/>
					<circle fill="#020203" cx="356.527" cy="130.313" r="1.312"/>
				</g>
				
					<path id="r-down-eyelid_00000183231703176194441460000014166622279199904921_" fill="#F2B290" stroke="#E6A081" stroke-miterlimit="10" d="
					M348.91,134.267c0,0,3.761,1.214,6.986,1.213c3.235-0.002,7.974-0.965,7.974-0.965l-0.162,4.996l-14.645,0.17L348.91,134.267z"
					/>
				
					<path id="r-top-eyelid_00000154411303151225114670000002028245033736524731_" fill="#F2B290" stroke="#E6A081" stroke-miterlimit="10" d="
					M348.091,127.636c0,0,3.983-2.144,8.289-2.131c4.276,0.012,8.356,1.879,8.356,1.879l-0.865-9.648l-15.649,0.816L348.091,127.636
					z"/>
			</g>
			
				<path id="face-40_00000021093109355515854460000006832987863715750561_" fill="#F9C0A2" stroke="#D89977" stroke-miterlimit="10" d="
				M344.626,138.172h23.411l0,0v0h23.411c20.368,37.555-7.655,39.437-10.449,40.597c-4.419,1.835-9.367,2.822-12.962,2.822
				c-3.595,0-8.543-0.987-12.962-2.822C352.281,177.609,324.259,175.727,344.626,138.172z"/>
			<g id="mouth2-1_00000028304557681450573430000014905926363882850993_">
				<polygon fill="#E8917F" points="380.83,158.663 380.83,165.197 377.019,166.997 367.53,167.764 357.943,166.732 
					355.245,164.975 355.245,158.578 				"/>
				<rect x="380.663" y="158.578" fill="#E06B47" width="0.336" height="6.083"/>
				<rect x="355.076" y="158.578" fill="#E06B47" width="0.336" height="5.753"/>
				<g>
					<polygon fill="#E8917F" points="377.433,155.862 379.498,156.549 380.484,157.408 380.83,158.663 368.065,159.124 
						355.245,158.578 355.458,157.438 356.977,156.212 365.239,155.437 374.993,155.446 					"/>
					<g>
						<path fill="#F4F3F4" d="M368.037,155.936l-0.145,2.485c-0.018,0.303-0.237,0.539-0.501,0.539h-1.758
							c-0.277,0-0.502-0.258-0.502-0.577v-2.937h2.905V155.936z"/>
						<path fill="#F4F3F4" d="M365.132,155.446l-0.112,2.722c-0.012,0.29-0.228,0.512-0.479,0.494l-1.251-0.09
							c-0.238-0.017-0.424-0.244-0.424-0.518v-2.362L365.132,155.446z"/>
						<path fill="#F4F3F4" d="M362.867,155.446l-0.187,1.788c-0.034,0.328-0.175,0.63-0.394,0.844l0,0
							c-0.128,0.125-0.267,0.233-0.416,0.322l-0.19,0.113c-0.189,0.113-0.416,0.101-0.595-0.032l-0.166-0.123
							c-0.186-0.138-0.319-0.353-0.371-0.601l-0.199-0.952c-0.027-0.129-0.04-0.261-0.04-0.393v-0.536L362.867,155.446z"/>
						<path fill="#F4F3F4" d="M360.308,155.875l-0.101,0.721c-0.055,0.389-0.239,0.739-0.513,0.975l-0.322,0.277
							c-0.086,0.074-0.179,0.137-0.277,0.188l-0.382,0.198c-0.185,0.096-0.4,0.076-0.569-0.054l-0.249-0.191
							c-0.183-0.14-0.328-0.335-0.422-0.563l-0.497-1.214L360.308,155.875z"/>
						<path fill="#F4F3F4" d="M368.038,155.936l0.148,2.485c0.018,0.303,0.237,0.538,0.502,0.538l1.758-0.003
							c0.277,0,0.502-0.259,0.501-0.578l-0.004-2.937l-2.905,0.005L368.038,155.936z"/>
						<path fill="#F4F3F4" d="M370.943,155.441l0.115,2.722c0.012,0.29,0.228,0.512,0.48,0.493l1.251-0.092
							c0.238-0.018,0.423-0.245,0.423-0.519l-0.003-2.362L370.943,155.441z"/>
						<path fill="#F4F3F4" d="M373.208,155.437l0.189,1.788c0.035,0.328,0.176,0.629,0.395,0.843l0,0
							c0.128,0.125,0.268,0.232,0.417,0.321l0.19,0.113c0.189,0.112,0.416,0.1,0.595-0.033l0.166-0.123
							c0.186-0.138,0.319-0.354,0.37-0.602l0.198-0.953c0.027-0.129,0.04-0.261,0.04-0.393l-0.001-0.536L373.208,155.437z"/>
						<path fill="#F4F3F4" d="M375.767,155.862l0.102,0.721c0.055,0.389,0.24,0.738,0.515,0.974l0.322,0.276
							c0.086,0.074,0.179,0.137,0.277,0.187l0.382,0.198c0.185,0.096,0.4,0.075,0.569-0.055l0.249-0.191
							c0.182-0.14,0.328-0.335,0.421-0.564l0.495-1.215L375.767,155.862z"/>
					</g>
					<path fill="#E06B47" d="M355.416,158.578c-0.013-0.509,0.189-1.022,0.596-1.338h0c0.753-0.585,1.63-0.926,2.538-0.986
						l2.307-0.153l3.438-0.259c0.599-0.045,1.201-0.051,1.801-0.016l1.436,0.083c0.338,0.019,0.677,0.019,1.015-0.001l1.436-0.085
						c0.599-0.035,1.2-0.031,1.799,0.013l3.438,0.253l2.307,0.149c0.908,0.059,1.785,0.398,2.539,0.982l0,0
						c0.413,0.32,0.616,0.843,0.598,1.359h0.336c-0.022-1.134-0.407-2.254-1.14-3.117v0c-0.202-0.238-0.45-0.418-0.724-0.525
						l-1.303-0.511c-1.408-0.552-2.871-0.897-4.354-1.026l-1.149-0.1c-1.1-0.096-2.206,0.041-3.262,0.404l0,0
						c-0.671,0.231-1.387,0.231-2.058,0.002l0,0c-1.057-0.361-2.163-0.497-3.263-0.399l-1.149,0.102
						c-1.483,0.132-2.946,0.479-4.353,1.034l-1.302,0.513c-0.274,0.108-0.521,0.288-0.723,0.526v0
						c-0.727,0.858-1.11,1.97-1.136,3.096H355.416z"/>
				</g>
			</g>
			<g id="jaw_00000067232912327134528130000003269985431348249779_">
				<path fill="#F9C0A2" d="M368.065,164.925l-14.571-0.546c0,0,1.641,8.134,3.212,10.164c1.819,2.35,8.387,3.503,11.359,3.503
					c2.972,0,9.543-1.151,11.359-3.503c1.555-2.014,2.873-10.164,2.873-10.164L368.065,164.925z"/>
				<path fill="none" stroke="#D89977" stroke-miterlimit="10" d="M356.706,174.543c1.819,2.35,8.387,3.503,11.359,3.503
					c2.972,0,9.543-1.151,11.359-3.503"/>
				<g id="mouth2-2_00000136370214880244290510000004033427208604716949_">
					<polygon fill="#E8917F" points="380.814,164.379 380.271,166.059 377.019,167.285 371.582,168.052 358.949,167.676 
						356.71,166.488 355.538,165.508 355.245,164.379 368.065,164.925 					"/>
					<g>
						<path fill="#F4F3F4" d="M368.037,168.052l-0.152-2.64c-0.016-0.274-0.213-0.487-0.452-0.487h-1.342
							c-0.25,0-0.453,0.233-0.453,0.521v2.329L368.037,168.052z"/>
						<path fill="#F4F3F4" d="M365.639,167.684l-0.185-2.26c-0.017-0.213-0.173-0.376-0.359-0.376h-1.094
							c-0.199,0-0.361,0.186-0.361,0.415v2.221H365.639z"/>
						<path fill="#F4F3F4" d="M363.64,167.684l-0.131-1.077c-0.019-0.16-0.06-0.315-0.122-0.46l-0.175-0.415
							c-0.104-0.247-0.264-0.458-0.463-0.611l-0.211-0.161c-0.155-0.119-0.358-0.113-0.508,0.015l-0.24,0.206
							c-0.134,0.114-0.241,0.264-0.314,0.436l-0.329,0.777c-0.027,0.064-0.048,0.13-0.063,0.198l-0.155,0.694L363.64,167.684z"/>
						<path fill="#F4F3F4" d="M360.93,167.285l-0.154-1.111c-0.027-0.198-0.084-0.389-0.169-0.565l-0.266-0.557
							c-0.091-0.19-0.229-0.345-0.396-0.446l-0.177-0.107c-0.163-0.099-0.357-0.1-0.522-0.005l-0.189,0.11
							c-0.178,0.104-0.341,0.24-0.481,0.404l-0.137,0.159c-0.228,0.266-0.418,0.571-0.564,0.906l-0.18,0.415l1.786,0.644
							L360.93,167.285z"/>
						<path fill="#F4F3F4" d="M368.047,168.052l0.148-2.64c0.015-0.274,0.213-0.487,0.451-0.487l1.342-0.002
							c0.25,0,0.453,0.232,0.454,0.52l0.003,2.329L368.047,168.052z"/>
						<path fill="#F4F3F4" d="M370.445,167.68l0.182-2.26c0.017-0.213,0.173-0.377,0.359-0.377l1.094-0.002
							c0.199,0,0.361,0.185,0.361,0.414l0.003,2.221L370.445,167.68z"/>
						<path fill="#F4F3F4" d="M372.444,167.676l0.129-1.077c0.019-0.16,0.06-0.315,0.121-0.46l0.174-0.415
							c0.104-0.247,0.263-0.459,0.462-0.611l0.21-0.162c0.155-0.119,0.358-0.114,0.508,0.014l0.241,0.205
							c0.134,0.114,0.242,0.263,0.315,0.435l0.33,0.776c0.027,0.063,0.048,0.13,0.064,0.198l0.156,0.694L372.444,167.676z"/>
						<path fill="#F4F3F4" d="M375.153,167.273l0.152-1.111c0.027-0.198,0.084-0.389,0.168-0.565l0.266-0.557
							c0.091-0.19,0.228-0.346,0.395-0.447l0.177-0.107c0.163-0.099,0.357-0.101,0.522-0.006l0.189,0.109
							c0.178,0.103,0.341,0.239,0.482,0.403l0.137,0.159c0.229,0.265,0.419,0.571,0.565,0.905l0.181,0.415l-1.785,0.647
							L375.153,167.273z"/>
					</g>
					<path fill="#E06B47" d="M355.416,164.379c0.01,0.421,0.167,0.839,0.476,1.141l0,0c0.368,0.361,0.806,0.617,1.276,0.748
						l1.208,0.335c0.682,0.189,1.374,0.326,2.072,0.41l2.553,0.306c0.778,0.093,1.561,0.132,2.343,0.115l2.852-0.06l0,0.006
						l2.542,0.049c0.782,0.015,1.565-0.025,2.343-0.119l2.552-0.311c0.698-0.085,1.39-0.223,2.072-0.413l1.208-0.337
						c0.47-0.131,0.907-0.388,1.275-0.75c0.303-0.298,0.459-0.707,0.474-1.12h0.336c0.02,1-0.243,2.011-0.797,2.863l0,0
						c-0.326,0.501-0.773,0.879-1.286,1.087l-1.394,0.565c-1.242,0.503-2.528,0.846-3.836,1.021l-1.217,0.163
						c-0.766,0.102-1.536,0.154-2.307,0.156l-1.982,0.003v0h-2.254c-0.771,0-1.542-0.051-2.308-0.152l-1.218-0.161
						c-1.308-0.173-2.595-0.513-3.837-1.014l-1.395-0.563c-0.513-0.207-0.961-0.585-1.288-1.085c-0.56-0.858-0.823-1.877-0.8-2.885
						L355.416,164.379z"/>
				</g>
			</g>
			<path fill="#F9C0A2" stroke="#D89977" stroke-miterlimit="10" d="M391.332,138.747l-0.002,1.183
				c-0.001,1.059,0.606,1.992,1.49,2.29c0.659,0.222,1.37,0.054,1.9-0.449c0.975-0.925,1.606-2.242,1.766-3.683l0.575-5.195
				l0.748-5.292c0.154-1.087-0.027-2.202-0.512-3.152c-0.506-0.993-1.558-1.428-2.499-1.032l-0.345,0.145
				c-0.607,0.255-1.076,0.822-1.267,1.533l-0.699,2.598l-0.563,2.428c0.185-4.067,0.241-8.102,0.355-12.044
				c1.356-18.38-12.153-23.339-24.225-23.125c-12.072-0.215-25.581,4.745-24.225,23.125c0.114,3.942,0.17,7.977,0.355,12.044
				l-0.563-2.428l-0.699-2.598c-0.191-0.71-0.66-1.277-1.267-1.533l-0.344-0.145c-0.94-0.396-1.992,0.039-2.499,1.032
				c-0.484,0.95-0.665,2.065-0.512,3.152l0.748,5.292l0.575,5.195c0.16,1.441,0.791,2.758,1.766,3.683
				c0.53,0.502,1.241,0.67,1.9,0.449c0.884-0.298,1.491-1.23,1.49-2.29l-0.002-1.183 M375.461,125.336
				c2.468-0.676,6.161-1.265,9.281,0.413c1.984,1.067,2.869,3.282,2.796,4.923c-0.077,1.736-1.674,4.106-3.202,4.617
				c-2.663,0.892-5.753,0.917-8.469,0.142c-2.055-0.586-4.03-3.013-4.133-5.06C371.65,128.738,372.786,126.069,375.461,125.336z
				 M351.37,125.748c3.12-1.677,6.813-1.089,9.281-0.413c2.675,0.733,3.811,3.402,3.728,5.034c-0.104,2.047-2.078,4.474-4.133,5.06
				c-2.717,0.775-5.806,0.75-8.469-0.142c-1.528-0.512-3.125-2.881-3.202-4.617C348.5,129.03,349.385,126.815,351.37,125.748z"/>
			<path fill="#EDAD8C" d="M343.217,129.459l-0.389-1.446c-0.106-0.395-0.367-0.711-0.705-0.853l-0.192-0.081
				c-0.523-0.22-1.109,0.022-1.391,0.575l-0.207,0.406c-0.136,0.266-0.186,0.579-0.143,0.883l0.482,3.41l0.401,3.62
				c0.037,0.335,0.184,0.64,0.41,0.855l0.492,0.467c0.295,0.28,0.691,0.373,1.058,0.25l0,0c0.492-0.166,0.83-0.685,0.829-1.274
				l-0.003-2.535c-0.001-1.008-0.116-2.011-0.342-2.985L343.217,129.459z"/>
			<path fill="#EDAD8C" d="M392.898,129.456l0.387-1.447c0.106-0.396,0.366-0.711,0.704-0.854l0.192-0.081
				c0.523-0.221,1.109,0.02,1.392,0.572l0.208,0.406c0.136,0.266,0.187,0.578,0.145,0.883l-0.478,3.411l-0.396,3.62
				c-0.037,0.335-0.183,0.641-0.409,0.856l-0.492,0.468c-0.294,0.28-0.69,0.374-1.057,0.252l0,0
				c-0.492-0.165-0.831-0.683-0.831-1.273v-2.535c0-1.008,0.114-2.012,0.338-2.986L392.898,129.456z"/>
			<g>
				<path fill="#F5B493" d="M374.252,146.563c0,0-2.121-2.881-2.418-3.795c-0.938-2.891-1.854-11.972-1.854-11.972l-0.563,15.411
					L374.252,146.563z"/>
				<path fill="#F5B493" d="M361.833,146.573c0,0,2.131-2.93,2.428-3.844c0.938-2.891,1.864-11.933,1.864-11.933l0.563,15.411
					L361.833,146.573z"/>
				<path fill="#EFAA8B" d="M369.311,128.464c0.439,0.463,0.681,1.077,0.675,1.715c-0.021,2.166-0.061,7.285,0.01,9.285
					c0.05,1.403,0.31,4.358,1.166,5.506c0.653,0.875,3.266,1.307,3.887,2.202c0.266,0.384,0.435,1.63,0,1.835
					c-0.777,0.367-4.383,0.549-5.831,0.367c-0.289-0.036-1.166,0-1.166,0s-0.877-0.036-1.166,0c-1.448,0.182-5.053,0-5.831-0.367
					c-0.435-0.205-0.266-1.452,0-1.835c0.621-0.895,3.234-1.328,3.887-2.202c0.856-1.147,1.116-4.103,1.166-5.506
					c0.071-1.999,0.031-7.115,0.01-9.282c-0.006-0.639,0.237-1.255,0.677-1.718l0.001-0.001
					C367.482,127.744,368.628,127.745,369.311,128.464L369.311,128.464z"/>
				
					<ellipse transform="matrix(0.9991 -0.0428 0.0428 0.9991 -6.0245 16.0491)" fill="#B57F69" cx="371.66" cy="148.669" rx="2.708" ry="0.367"/>
				
					<ellipse transform="matrix(0.0428 -0.9991 0.9991 0.0428 200.309 506.4143)" fill="#B57F69" cx="364.445" cy="148.669" rx="0.367" ry="2.708"/>
			</g>
			<path fill="#B87645" d="M364.695,119.345c-0.954-5.043-18.213-3.857-16.209,0.924c0.231,0.551,0.889,0.767,1.415,0.484
				c4.548-2.45,9.191-0.67,13.924-0.448C364.352,120.329,364.793,119.864,364.695,119.345z"/>
			<path fill="#B87645" d="M371.37,119.73c0.133-5.528,18.6-4.34,16.195,0.661c-0.233,0.485-0.842,0.645-1.315,0.388
				c-4.671-2.545-9.441-0.608-14.307-0.46C371.619,120.327,371.362,120.053,371.37,119.73z"/>
			<g id="hair1_00000039822880509916649380000005832041548946565814_">
				<path fill="#A06B46" d="M392.179,131.112l-0.374-0.765c-0.35-0.716-0.534-1.524-0.534-2.346l0.104-11.834
					c0-1.772-0.6-3.474-1.673-4.746l-2.806-3.327c-0.371-0.439-0.938-0.572-1.428-0.335l-0.721,0.349l-2.985-1.962
					c-0.251-0.165-0.56-0.156-0.803,0.023l-1.088,0.802c-0.333,0.245-0.534,0.668-0.534,1.123v0.199l-1.976-2.036
					c-0.199-0.205-0.507-0.171-0.669,0.072l-0.75,1.127l-2.148-2.087c-0.139-0.135-0.343-0.131-0.478,0.009l-0.929,0.963
					l-0.347-0.298c-0.254-0.218-0.618-0.082-0.713,0.265l-0.162,0.59l-1.414-2.119c-0.131-0.197-0.389-0.197-0.52,0l-1.044,1.561
					l-0.945-0.605c-0.205-0.131-0.463-0.064-0.598,0.157l-1.015,1.656l-1.898-1.917c-0.18-0.182-0.447-0.191-0.636-0.023
					l-1.452,1.289l-1.153-1.989c-0.133-0.229-0.431-0.204-0.535,0.044l-0.513,1.234c-0.093,0.224-0.142,0.469-0.142,0.718v1.109
					l-0.914-1.217c-0.175-0.233-0.272-0.532-0.272-0.84v-0.153c0-0.21-0.234-0.297-0.341-0.127l-0.21,0.333
					c-0.409,0.65-0.911,1.215-1.485,1.67l-0.656,0.52v-0.631c0-0.275-0.274-0.431-0.464-0.265l-1.556,1.36l-1.577-1.285
					c-0.197-0.161-0.471-0.099-0.601,0.134l-0.487,0.872l-0.612-0.855c-0.274-0.383-0.779-0.398-1.07-0.033l-1.966,2.466
					c-1.241,1.557-1.946,3.581-1.984,5.693l-0.38,11.875c-0.013,0.749-0.114,1.492-0.299,2.209l-0.16,0.62l-0.876-3.501
					c-0.152-0.607-0.969-4.447-0.969-4.447l-0.499-1.858l0.499-7.122v-4.893l1.207-3.716l0.623-3.159l1.478-1.363l1.023-3.778h1.67
					l2.316-2.787l3.662-0.619l3.715-2.106l3.528,0.248l3.171-1.363l0.443,0.805l4.235-1.796l1.092,1.61h6.005l2.047,1.486
					l1.293-0.248l3.07,1.734h1.723l2.208,1.982l4.447,2.911l-0.839,0.31l2.586,3.221l-0.217,0.619l1.702,3.902l-0.5,0.557
					l1.168,5.202l-0.668,5.574l0.398,0.954c0,0-2.332,5.702-2.418,9.569C392.572,129.005,392.179,131.112,392.179,131.112z"/>
			</g>
		</g>
		<g>
			<g id="s-r-arm-40_00000086689208302880339590000004822773585922770854_">
				<circle fill="#F8BA98" stroke="#D89977" stroke-miterlimit="10" cx="438.42" cy="229.31" r="6.784"/>
				<circle fill="#F8BA98" cx="398.002" cy="194.873" r="11.912"/>
				<path fill="#F8BA98" stroke="#D89977" stroke-miterlimit="10" d="M401.732,183.558c0,0,11.383,0.451,21.899,9.099
					c4.602,3.784,10.898,10.282,14.095,15.482c5.22,8.492,4.711,15.886,4.711,15.886l-9.023,9.66c0,0-5.939,1.485-9.709,0.927
					c-4.984-0.737-9.96-4.028-13.386-6.747c-2.763-2.194-5.491-5.128-8.744-9.02c-3.781-4.524-7.773-12.82-7.773-12.82"/>
			</g>
			<g>
				<g id="f-l-arm-40_00000124841092393508971450000015172319444940083097_">
					<path fill="#F8BA98" stroke="#D89977" stroke-miterlimit="10" d="M445.202,229.119c0,0,9.214,7.587,8.693,22.978
						c-0.449,13.249-13.853,28.279-13.853,28.279l-6.046,0.792c0,0-7.353-11.74-9.643-19.836c-0.307-1.085-2.406-9.876-2.144-15.349
						c0.4-8.359,9.706-16.436,9.706-16.436L445.202,229.119z"/>
					<circle fill="#F8BA98" cx="438.557" cy="229.285" r="6.444"/>
				</g>
				<g id="l-palm_00000029767195169218301600000001691645713909875643_">
					
						<path id="l-finger_00000092420639103576303940000012512234753471848077_" fill="#F8BA98" stroke="#D89977" stroke-miterlimit="10" d="
						M426.606,293.202c0,0,0.727,3.947,1.407,4.913c0.864,1.227,2.513,1.306,2.513,1.306l-0.274-6.573"/>
					<path fill="#F8BA98" stroke="#D89977" stroke-miterlimit="10" d="M426.606,293.202c0,0,0.905-3.136,1.291-4.221
						c0.384-1.076,1.036-2.036,1.756-2.923c1.059-1.304,4.228-5.222,4.228-5.222l6.213-0.59l1.449,1.776
						c0.529,0.649,0.993,1.349,1.382,2.09l0.46,0.874c1.072,2.037,1.755,4.256,2.013,6.543l0.58,8.238
						c0.068,0.603-0.334,1.16-0.929,1.283l-0.606,0.126c-0.64,0.133-1.267-0.282-1.393-0.923l-0.687-5.635l0.418,6.623
						c0.045,0.666-0.408,1.263-1.061,1.399l-0.596,0.124c-0.736,0.153-1.453-0.33-1.588-1.07l-0.93-6.585l0.472,6.851
						c0.059,0.813-0.492,1.544-1.29,1.71l-0.773,0.161c-0.945,0.197-1.852-0.468-1.949-1.428l-0.589-6.721l-0.006,6.928
						c-0.009,0.743-0.533,1.379-1.261,1.531l-0.639,0.133c-0.956,0.199-1.862-0.506-1.905-1.481l-0.415-9.945"/>
					<circle fill="#F8BA98" cx="437.016" cy="280.831" r="3.133"/>
				</g>
			</g>
		</g>
		<g>
			<g id="s-r-arm-40_00000080912574039389183530000016577140627206420109_">
				<circle fill="#F8BA98" stroke="#D89977" stroke-miterlimit="10" cx="305.211" cy="236.518" r="6.647"/>
				<circle fill="#F8BA98" cx="338.196" cy="194.907" r="11.912"/>
				<path fill="#F8BA98" stroke="#D89977" stroke-miterlimit="10" d="M332.346,184.527c0,0-11.08,2.647-19.723,13.167
					c-3.782,4.604-8.701,12.198-10.83,17.919c-3.477,9.342-1.546,16.497-1.546,16.497l10.723,7.73c0,0,6.114,0.307,9.705-0.971
					c4.747-1.688,8.992-5.88,11.826-9.212c2.286-2.687,4.394-6.095,6.832-10.543c2.833-5.17,5.143-14.083,5.143-14.083"/>
			</g>
			<g>
				<g id="f-r-arm-40_00000050625374898654914710000016379621029694115203_">
					<path fill="#F8BA98" stroke="#D89977" stroke-miterlimit="10" d="M308.119,242.756c0,0,11.172,4.2,24.251-3.931
						c11.258-6.999,17.597-26.114,17.597-26.114l-2.33-5.635c0,0-13.843-0.515-22.002,1.54c-1.094,0.275-9.759,2.842-14.372,5.8
						c-7.045,4.517-9.401,16.612-9.401,16.612L308.119,242.756z"/>
					<circle fill="#F8BA98" cx="305.211" cy="236.518" r="6.513"/>
				</g>
				<g id="r-palm-2_00000121971548417083428360000018132517375376973703_">
					<path fill="#F8BA98" stroke="#D89977" stroke-miterlimit="10" d="M357.019,200.347c-1.22-1.006-2.072-2.993-1.427-4.194
						c0.473-0.881,1.008-1.79,1.324-2.047c1.321-1.074,3.276-2.74,3.106-3.627c-0.145-0.756-1.334-0.852-1.96-0.795
						c-1.491,0.136-4.401,2.85-5.11,3.771c-0.704,0.914-2.754,4.316-3.112,5.412"/>
					<g id="food-2_00000070816462309244616450000012795954126503653302_">
						<g id="food-2-4_00000084492053421255567170000015369325436333536161_">
							<g>
								<path fill="#F7B248" d="M353.064,199.61c0,0-2.021-0.091-2.624-0.297l-0.049-0.016c-0.244-0.085-0.482-0.204-0.709-0.363
									c-2.702-1.888-4.181-8.825-3.61-17.2l8.584,3.833L353.064,199.61z"/>
								<path fill="#FFE997" d="M353.654,199.735c-0.442-0.05-0.86-0.217-1.253-0.493c-2.607-1.822-4.075-8.341-3.663-16.317
									l12.575,5.615C359.488,195.418,356.495,200.057,353.654,199.735z"/>
								<path fill="#A45217" d="M357.143,200.073c0,0-2.021-0.091-2.624-0.297l-0.049-0.016c-0.244-0.085-0.482-0.204-0.709-0.363
									c-2.558-1.788-4.019-8.1-3.683-15.873l8.511,3.801L357.143,200.073z"/>
								<path fill="#6D390F" d="M365.268,189.456c-1.835,6.626-4.757,11.056-7.535,10.741c-0.442-0.05-0.86-0.218-1.253-0.493
									c-2.459-1.719-3.905-7.62-3.714-14.981l10.688,4.773L365.268,189.456z"/>
								<path fill="#67AD2F" d="M368.611,189.38l0.239-0.144c-2.008,7.326-5.483,12.412-8.744,11.623
									c-3.396-0.821-1.086-2.152-2.113-3.637c-1.063-1.538-3.109-2.559-3.632-4.406c-0.513-1.811,0.827-4.324,1.29-6.805
									l7.803,3.485L368.611,189.38z"/>
								<path fill="#E52B19" d="M360.984,196.647c-1.992,0.251-3.863-2.212-4.18-5.5c-0.158-1.64,0.103-3.172,0.65-4.329l6.001,2.68
									l0.458-0.01c0.043,0.246,0.08,0.495,0.105,0.752C364.334,193.527,362.976,196.396,360.984,196.647z"/>
								<path fill="#FFCE36" d="M364.577,200.432c-3.398-0.801-1.096-2.058-2.13-3.48c-1.071-1.473-3.121-2.457-3.653-4.222
									c-0.407-1.35,0.311-3.103,0.859-4.931l3.801,1.697l5.157-0.116C368.611,189.38,368.841,201.437,364.577,200.432z"/>
								<path fill="#E9904C" d="M362.816,189.089l-2.463-0.978c0.058,8.533,2.401,11.396,2.401,11.396l2.633-0.319L362.816,189.089z
									"/>
								<path fill="#EE8726" d="M376.511,192.612l2.205,0.619c-2.653,4.795-6.452,7.862-9.684,7.918
									c-3.578-0.669-6.255-2.629-6.218-12.059l0.639,0.407l5.157-0.116l2.333-1.409l1.995,2.278L376.511,192.612z"/>
							</g>
							<g>
								<polygon fill="#E0874B" points="368.107,186.074 370.944,187.971 368.611,189.38 363.454,189.497 360.353,188.112 
									364.872,187.952 								"/>
								<polygon fill="#F9C42F" points="366.494,184.995 368.107,186.074 364.872,187.952 360.353,188.112 359.653,187.799 
									363.012,186.945 								"/>
								<polygon fill="#E63939" points="364.512,183.67 366.494,184.995 363.012,186.945 359.653,187.799 357.454,186.817 
									360.87,186.284 								"/>
								<polygon fill="#629F30" points="362.7,182.458 364.512,183.67 360.87,186.284 357.454,186.817 355.651,186.012 
									359.856,184.55 								"/>
								<polygon fill="#A4581C" points="358.096,182.11 359.83,180.539 362.7,182.458 359.856,184.55 355.651,186.012 
									350.077,183.523 353.91,183.847 								"/>
								<polygon fill="#F5A44B" points="358.096,182.11 353.91,183.847 350.077,183.523 346.072,181.734 352.414,182.06 
									357.005,179.288 357.188,178.771 359.83,180.539 								"/>
							</g>
						</g>
						<g id="food-2-3_00000040535626505690513930000015970605054400482706_">
							<path fill="#EE8726" d="M374.532,182.854l-1.917-5.268l1.454,0.291l4.929-2.114l1.822-3.511
								c1.027,3.226,1.487,7.04,1.033,11.044c-0.423,3.733-1.584,7.128-3.136,9.933l-2.205-0.619l-3.572-2.362l-1.995-2.278
								l2.258-1.363L374.532,182.854z"/>
							<g>
								<polygon fill="#E9904C" points="380.832,172.229 378.172,171.449 375.816,175.149 372.716,176.266 370.696,176.626 
									372.615,177.586 374.069,177.877 378.998,175.764 								"/>
								<polygon fill="#E8423E" points="376.337,170.979 374.217,173.834 371.74,175.064 368.911,175.733 366.61,174.588 
									369.697,173.85 372.5,172.513 374.039,170.306 								"/>
								<polygon fill="#67AD2F" points="365.453,174.003 366.61,174.588 369.697,173.85 372.5,172.513 374.039,170.306 
									372.608,169.786 371.069,171.993 368.265,173.33 								"/>
								<polygon fill="#B06120" points="372.608,169.786 371.069,171.993 368.265,173.33 365.453,174.003 364.585,173.568 
									361.088,172.425 364.869,171.821 368.054,170.257 369.461,168.877 								"/>
								<polygon fill="#F19D65" points="362.576,170.261 356.41,170.857 361.088,172.425 364.869,171.821 368.054,170.257 
									369.461,168.877 366.511,167.845 365.141,169.183 								"/>
								<polygon fill="#FFCE36" points="370.696,176.626 372.716,176.266 375.816,175.149 378.172,171.449 376.337,170.979 
									374.217,173.834 371.74,175.064 368.911,175.733 								"/>
							</g>
							<g>
								<polygon fill="#E0874B" points="370.056,184.941 371.537,180.94 370.696,176.626 374.069,177.877 374.532,182.854 
									373.202,186.608 370.944,187.971 368.107,186.074 								"/>
								<polygon fill="#F9C42F" points="370.056,184.941 368.107,186.074 366.494,184.995 367.966,184.171 369.603,179.891 
									368.911,175.733 370.696,176.626 371.537,180.94 								"/>
								<polygon fill="#E63939" points="367.966,184.171 366.494,184.995 364.512,183.67 365.038,183.292 367.297,179.426 
									366.61,174.588 368.911,175.733 369.603,179.891 								"/>
								<polygon fill="#629F30" points="365.038,183.292 364.512,183.67 362.7,182.458 363.582,181.809 365.622,177.959 
									365.453,174.003 366.61,174.588 367.297,179.426 								"/>
								<polygon fill="#A4581C" points="363.582,181.809 362.7,182.458 359.83,180.539 361.132,179.359 362.08,176.026 
									361.088,172.425 364.585,173.568 365.453,174.003 365.622,177.959 								"/>
								<polygon fill="#F5A44B" points="356.41,170.857 361.088,172.425 362.08,176.026 361.132,179.359 359.83,180.539 
									357.188,178.771 358.335,175.534 								"/>
							</g>
						</g>
						<g id="food-2-2_00000059284078722695310690000017974230370868414118_">
							<path fill="#F7B248" d="M354.656,185.567l-8.584-3.833c0.055-0.811,0.129-1.635,0.224-2.47
								c0.464-4.089,1.341-7.831,2.458-10.872l4.267,1.395l3.302,1.08L354.656,185.567z"/>
							<path fill="#FFE997" d="M361.313,188.54l-12.575-5.615c0.057-1.093,0.148-2.213,0.277-3.352
								c0.438-3.859,1.243-7.409,2.271-10.352l9.802,3.204l1.897,0.62c0.114,2.486,0.027,5.221-0.297,8.078
								C362.388,183.774,361.913,186.278,361.313,188.54z"/>
							<path fill="#A45217" d="M350.077,183.523c0.053-1.233,0.15-2.502,0.297-3.796c0.425-3.746,1.197-7.2,2.182-10.091
								l3.748,1.225l4.002,1.308l-1.718,15.154L350.077,183.523z"/>
							<path fill="#6D390F" d="M366.767,181.586c-0.321,2.83-0.841,5.49-1.5,7.87l-1.813,0.041l-10.688-4.773
								c0.039-1.51,0.146-3.079,0.328-4.688c0.353-3.111,1.244-6.995,2.005-9.568l9.486,3.101l2.524,2.59
								C367.089,177.892,366.98,179.712,366.767,181.586z"/>
							<path fill="#67AD2F" d="M370.236,181.969c-0.291,2.565-0.77,5.02-1.386,7.267l-0.239,0.144l-5.157,0.116l-7.803-3.485
								c0.103-0.551,0.164-1.1,0.15-1.64c-0.053-2.077-2.142-4.191-1.882-6.48c0.217-1.915,1.812-3.027,2.655-4.588
								c0.355-0.658,0.532-0.866,0.806-2.091l7.205,2.355l5.96,3.603C370.522,178.717,370.423,180.323,370.236,181.969z"/>
							<path fill="#E52B19" d="M357.454,186.817c0.179-0.379,0.388-0.718,0.624-1.007c-1.665-0.553-2.705-3.197-2.361-6.227
								c0.369-3.254,2.193-5.719,4.085-5.542c-0.232-0.446-0.522-1.654-0.654-2.25l1.535,0.502l3.663,1.226
								c-0.687,1.235-1.594,2.009-2.524,2.025c0.685,1.177,1.015,2.923,0.799,4.822c-0.211,1.865-0.902,3.47-1.808,4.469
								c1.445,0.453,2.683,2.273,3.099,4.651l-0.458,0.01L357.454,186.817z"/>
							<path fill="#FFCE36" d="M374.532,182.854l-1.33,3.754l-4.591,2.772l-5.157,0.116l-3.801-1.697
								c0.311-1.035,0.568-2.093,0.535-3.117c-0.064-1.982-2.162-4.009-1.915-6.191c0.207-1.826,2.238-2.716,2.629-4.363
								c0.287-1.208-0.296-0.747-0.063-1.784l3.745,1.224l8.031,4.018L374.532,182.854z"/>
							<path fill="#E9904C" d="M374.532,182.854l-1.33,3.754l-4.591,2.772l-5.157,0.116l-3.101-1.385
								c0.121-1.904,0.377-4.67,0.779-7.164c0.818-5.079,1.141-6.81,1.441-8.038l2.012,0.658l8.031,4.018L374.532,182.854z"/>
							<path fill="#EE8726" d="M374.532,182.854l-1.33,3.754l-4.591,2.772l-5.157,0.116l-0.639-0.407
								c0.009-2.199,0.165-4.804,0.492-7.895c0.319-3.017,0.72-5.536,1.19-7.655l0.087,0.028l6.111,3.057l3.373,1.252
								L374.532,182.854z"/>
						</g>
					</g>
					<path fill="#F8BA98" stroke="#D89977" stroke-miterlimit="10" d="M349.839,198.867c-0.528,1.611-2.788,8.396-2.788,8.396
						l2.893,5.594c0,0,6.645,0.571,13.672-4.245c1.887-1.293,3.14-2.942,5.171-5.013c0.429-0.438,2.967-5.252,2.782-7.99
						c-0.371,1.062-1.616,4.708-2.304,5.686c-2.724,3.869-5.69,4.957-5.69,4.957s4.13-3.254,5.324-4.502
						c1.409-1.474,3.157-6.601,3.138-9.379c-0.548,1.717-2.072,6.009-3.514,7.633c-3.025,3.407-5.641,4.796-5.641,4.796
						s4.433-3.554,5.641-4.796c1.879-1.933,4.034-7.404,3.332-8.785c-0.528,1.463-1.666,5.18-3.498,6.894
						c-3.223,3.015-6.472,5.113-6.472,5.113s5.22-3.893,6.472-5.113c1.443-1.407,4.087-6.838,3.481-7.985l-0.236-0.615
						c-0.923-1.928-5.356,6.186-6.206,6.684c-1.278,0.747-3.986,3.135-6.272,4.573c-0.685,0.431-1.445-0.037-2.102-0.423"/>
					<circle fill="#F8BA98" cx="348.845" cy="209.854" r="3.133"/>
				</g>
			</g>
		</g>
		<g id="table_00000085244957865339689190000004094974997705524127_">
			<g>
				<path fill="#808181" d="M244.701,467.339h65.5h4.587v6.074c0,6.982-16.718,12.642-37.337,12.642
					c-20.619,0-37.337-5.66-37.337-12.642v-6.074H244.701z"/>
				<ellipse fill="#B7B7B6" cx="277.451" cy="468.012" rx="37.336" ry="12.642"/>
			</g>
			<path fill="#808181" d="M270.769,469.421c4.455,1.721,8.909,1.721,13.364,0V366.461h-13.364L270.769,469.421z"/>
			<g>
				<path fill="#808181" d="M365.495,331.022v9.645c0,16.464-39.422,29.811-88.044,29.811c-48.622,0-88.044-13.346-88.044-29.811
					v-9.645H365.495z"/>
				<ellipse fill="#B7B7B6" cx="277.451" cy="331.022" rx="88.041" ry="29.811"/>
			</g>
			<g id="drink-table-pick_00000018199412989915718940000008669915754768762042_">
				<path fill="#03B6D9" stroke="#19989E" stroke-miterlimit="10" d="M234.671,286.192l-0.798,6.053l-2.291,17.381l-1.681,12.762
					c-3.31,2.51-12.632,2.593-16.174,0l-1.681-12.762l-2.291-17.381l-0.798-6.053H234.671z"/>
				<path fill="#F5E8CD" stroke="#1C989E" stroke-linecap="round" stroke-linejoin="round" stroke-miterlimit="10" d="
					M234.681,287.347c-8.578,2.49-17.156,2.46-25.734-0.035c-0.608-0.177-1.027-0.739-1.027-1.378v-3.151h27.788v3.185
					C235.709,286.608,235.29,287.171,234.681,287.347z"/>
				<path fill="#F2F7F7" stroke="#1C989E" stroke-miterlimit="10" d="M235.709,282.784c0,1.771-6.221,3.207-13.894,3.207
					c-7.081,0-12.925-1.223-13.785-2.804c-0.072-0.132-0.109-0.267-0.109-0.404c0-1.771,6.221-3.207,13.894-3.207
					C229.488,279.577,235.709,281.013,235.709,282.784z"/>
				<path fill="#5CBFC4" stroke="#21979E" stroke-miterlimit="10" d="M224.376,282.784c-1.934,0.695-3.642,0.695-5.123,0l0-17.758
					h5.123L224.376,282.784z"/>
				
					<ellipse fill="#1C989E" stroke="#F2F7F7" stroke-width="0.5" stroke-miterlimit="10" cx="221.815" cy="265.026" rx="2.562" ry="0.689"/>
			</g>
			<g id="burger-table-pick_00000165933763986923938870000007183434401488816273_">
				<ellipse fill="#F3F4ED" cx="293.418" cy="323.513" rx="49.974" ry="21.405"/>
				<g>
					<g>
						<path fill="#F7B248" d="M337.685,325.187c0.135-0.582,0.03-2.477,0.03-2.477l-36.492-0.435c0,0-0.081,1.903-0.085,2.004
							c-0.008,0.179,0.016,0.356,0.055,0.531c0.726,3.326,8.57,6.027,18.172,6.142c8.926,0.107,16.386-2.058,18.039-5.02
							c0.127-0.228,0.216-0.46,0.272-0.696L337.685,325.187z"/>
						<path fill="#FFE997" d="M319.548,315.474c-10.109-0.121-18.338,2.672-18.38,6.236c-0.002,0.179,0.016,0.356,0.055,0.531
							c0.726,3.326,8.57,6.027,18.172,6.142c8.926,0.106,16.386-2.058,18.039-5.02c0.22-0.393,0.336-0.799,0.341-1.216
							C337.817,318.582,329.657,315.595,319.548,315.474z"/>
					</g>
					<g>
						<path fill="#A45217" d="M337.731,321.336c0.135-0.582,0.03-2.477,0.03-2.477l-36.492-0.435c0,0-0.081,1.903-0.085,2.004
							c-0.008,0.179,0.016,0.356,0.055,0.531c0.726,3.326,8.57,6.027,18.172,6.142c8.926,0.106,16.386-2.058,18.039-5.02
							c0.127-0.228,0.216-0.46,0.272-0.696L337.731,321.336z"/>
						<path fill="#6D390F" d="M319.594,311.623c-10.109-0.121-18.338,2.672-18.38,6.236c-0.002,0.179,0.016,0.356,0.055,0.531
							c0.726,3.326,8.57,6.027,18.172,6.142c8.926,0.107,16.386-2.058,18.039-5.02c0.22-0.393,0.336-0.799,0.341-1.216
							C337.863,314.731,329.703,311.743,319.594,311.623z"/>
					</g>
					<path fill="#67AD2F" d="M338.214,316.018c-0.445,3.247-1.906,1.217-3.195,2.316c-1.335,1.138-2.095,3.144-3.769,3.807
						c-2.006,0.794-5.254-0.897-8.018-0.545c-1.934,0.246-3.709,2.395-5.87,2.369c-1.808-0.022-2.882-1.833-4.534-2.044
						c-1.539-0.196-3.935,1.211-4.946,0.262c-2.285-2.146-3.424-0.566-4.984-1.985c-1.036-0.942-2.055-3.54-2.042-4.625
						c0.049-4.112,8.452-7.346,18.768-7.223C329.94,308.472,338.773,311.943,338.214,316.018z"/>
					<path fill="#E52B19" d="M334.199,315.597c-0.422-1.835-3.229-2.832-6.269-2.225c-2.534,0.506-4.425,1.966-4.74,3.502
						c-1.018-0.752-2.581-1.244-4.342-1.265c-1.793-0.021-3.391,0.452-4.425,1.202c-0.187-1.564-2.661-2.827-5.709-2.864
						c-3.183-0.038-5.779,1.276-5.799,2.934c-0.02,1.658,2.544,3.033,5.727,3.071c1.855,0.022,3.507-0.417,4.569-1.114
						c0.013,1.783,2.488,3.252,5.559,3.289c2.86,0.034,5.23-1.186,5.589-2.793c1.184,0.782,3.089,1.085,5.101,0.684
						C332.5,319.412,334.622,317.432,334.199,315.597z"/>
					<path fill="#FFCE36" d="M337.393,311.885c-0.426,3.248-1.817,1.218-3.047,2.318c-1.273,1.139-1.999,3.146-3.595,3.809
						c-1.913,0.795-5.009-0.894-7.644-0.541c-1.844,0.247-3.538,2.397-5.598,2.373c-1.724-0.021-2.747-1.832-4.321-2.042
						c-1.467-0.196-3.753,1.213-4.716,0.265c-2.178-2.145-3.264-0.564-4.75-1.983c-0.987-0.942-1.957-3.539-1.944-4.624
						c0.049-4.112,8.062-7.351,17.897-7.233C329.509,304.344,337.928,307.81,337.393,311.885z"/>
					<g>
						<path fill="#E9904C" d="M337.675,308.268c-0.059,4.91-1.003,8.751-18.143,8.675c-16.434-0.071-17.989-4.195-17.931-9.105
							c0.003-0.228,0.023-0.456,0.062-0.688c0-0.004,0-0.004,0-0.007c0.766-4.734,8.61-9.876,18.102-9.763
							c9.55,0.114,17.307,5.506,17.874,10.278C337.666,307.862,337.677,308.065,337.675,308.268z"/>
						<path fill="#E87E25" d="M337.64,307.658c-0.353,4.197-2.666,7.301-18.083,7.231c-14.882-0.063-17.563-3.452-17.894-7.739
							c0-0.004,0-0.004,0-0.007c0.766-4.734,8.61-9.876,18.102-9.763C329.315,297.494,337.072,302.886,337.64,307.658z"/>
					</g>
				</g>
				<g>
					<g>
						<path fill="#F7B248" d="M287.12,323.554c0.135-0.582,0.03-2.477,0.03-2.477l-36.492-0.435c0,0-0.081,1.903-0.085,2.004
							c-0.008,0.179,0.016,0.356,0.055,0.531c0.726,3.326,8.57,6.027,18.172,6.142c8.926,0.106,16.386-2.058,18.039-5.02
							c0.127-0.228,0.216-0.46,0.272-0.696L287.12,323.554z"/>
						<path fill="#FFE997" d="M268.983,313.841c-10.109-0.121-18.338,2.672-18.38,6.236c-0.002,0.179,0.016,0.356,0.055,0.531
							c0.726,3.326,8.57,6.027,18.172,6.142c8.926,0.107,16.386-2.058,18.039-5.02c0.22-0.393,0.336-0.799,0.341-1.216
							C287.252,316.949,279.092,313.962,268.983,313.841z"/>
					</g>
					<g>
						<path fill="#A45217" d="M287.166,319.703c0.135-0.582,0.03-2.477,0.03-2.477l-36.492-0.435c0,0-0.081,1.903-0.085,2.004
							c-0.008,0.179,0.016,0.356,0.055,0.531c0.726,3.326,8.57,6.027,18.172,6.142c8.926,0.106,16.386-2.058,18.039-5.02
							c0.127-0.228,0.216-0.46,0.272-0.696L287.166,319.703z"/>
						<path fill="#6D390F" d="M269.029,309.99c-10.109-0.121-18.338,2.672-18.38,6.236c-0.002,0.179,0.016,0.356,0.055,0.531
							c0.726,3.326,8.57,6.027,18.172,6.142c8.926,0.106,16.386-2.058,18.039-5.02c0.22-0.393,0.336-0.799,0.341-1.216
							C287.298,313.098,279.138,310.11,269.029,309.99z"/>
					</g>
					<path fill="#67AD2F" d="M287.649,314.385c-0.445,3.247-1.906,1.217-3.195,2.316c-1.335,1.138-2.095,3.144-3.769,3.807
						c-2.006,0.794-5.254-0.897-8.018-0.545c-1.934,0.246-3.709,2.395-5.87,2.369c-1.808-0.022-2.882-1.833-4.534-2.044
						c-1.539-0.196-3.935,1.211-4.946,0.262c-2.285-2.146-3.424-0.566-4.984-1.985c-1.036-0.942-2.055-3.54-2.042-4.625
						c0.049-4.112,8.452-7.346,18.768-7.223C279.375,306.839,288.208,310.31,287.649,314.385z"/>
					<path fill="#E52B19" d="M283.634,313.964c-0.422-1.835-3.229-2.832-6.269-2.225c-2.534,0.506-4.425,1.966-4.74,3.502
						c-1.018-0.752-2.581-1.244-4.342-1.265c-1.793-0.021-3.391,0.452-4.425,1.202c-0.187-1.564-2.661-2.827-5.709-2.864
						c-3.183-0.038-5.779,1.276-5.799,2.934c-0.02,1.658,2.544,3.033,5.727,3.071c1.855,0.022,3.507-0.417,4.569-1.114
						c0.013,1.783,2.488,3.252,5.559,3.289c2.86,0.034,5.23-1.186,5.589-2.793c1.184,0.782,3.089,1.085,5.101,0.684
						C281.935,317.779,284.057,315.799,283.634,313.964z"/>
					<path fill="#FFCE36" d="M286.828,310.252c-0.426,3.248-1.817,1.218-3.047,2.318c-1.273,1.139-1.999,3.146-3.595,3.809
						c-1.913,0.795-5.009-0.894-7.644-0.541c-1.844,0.247-3.538,2.397-5.598,2.373c-1.724-0.021-2.747-1.832-4.321-2.042
						c-1.467-0.196-3.753,1.213-4.716,0.265c-2.178-2.145-3.264-0.564-4.75-1.983c-0.987-0.942-1.957-3.539-1.944-4.624
						c0.049-4.112,8.062-7.351,17.897-7.233C278.944,302.711,287.363,306.177,286.828,310.252z"/>
					<g>
						<path fill="#E9904C" d="M287.11,306.635c-0.059,4.91-1.003,8.751-18.143,8.675c-16.434-0.071-17.989-4.195-17.931-9.105
							c0.003-0.228,0.023-0.456,0.062-0.688c0-0.004,0-0.004,0-0.007c0.766-4.734,8.61-9.876,18.102-9.763
							c9.55,0.114,17.307,5.506,17.874,10.278C287.101,306.229,287.112,306.432,287.11,306.635z"/>
						<path fill="#E87E25" d="M287.075,306.025c-0.353,4.197-2.666,7.301-18.083,7.231c-14.882-0.063-17.563-3.452-17.894-7.739
							c0-0.004,0-0.004,0-0.007c0.766-4.734,8.61-9.876,18.102-9.763C278.75,295.861,286.507,301.253,287.075,306.025z"/>
					</g>
				</g>
				<g>
					<g>
						<path fill="#F7B248" d="M309.403,335.195c0.135-0.582,0.03-2.477,0.03-2.477l-36.492-0.435c0,0-0.081,1.903-0.085,2.004
							c-0.008,0.179,0.016,0.356,0.055,0.531c0.726,3.326,8.57,6.027,18.172,6.142c8.926,0.106,16.386-2.058,18.039-5.02
							c0.127-0.228,0.216-0.46,0.272-0.696L309.403,335.195z"/>
						<path fill="#FFE997" d="M291.266,325.483c-10.109-0.121-18.338,2.672-18.38,6.236c-0.002,0.179,0.016,0.356,0.055,0.531
							c0.726,3.326,8.57,6.027,18.172,6.142c8.926,0.107,16.386-2.058,18.039-5.02c0.22-0.393,0.336-0.799,0.341-1.216
							C309.535,328.591,301.375,325.603,291.266,325.483z"/>
					</g>
					<g>
						<path fill="#A45217" d="M309.449,331.344c0.135-0.582,0.03-2.477,0.03-2.477l-36.492-0.435c0,0-0.081,1.903-0.085,2.004
							c-0.008,0.179,0.016,0.356,0.055,0.531c0.726,3.326,8.57,6.027,18.172,6.142c8.926,0.107,16.386-2.058,18.039-5.02
							c0.127-0.228,0.216-0.46,0.272-0.696L309.449,331.344z"/>
						<path fill="#6D390F" d="M291.312,321.631c-10.109-0.121-18.338,2.672-18.38,6.236c-0.002,0.179,0.016,0.356,0.055,0.531
							c0.726,3.326,8.57,6.027,18.172,6.142c8.926,0.106,16.386-2.058,18.039-5.02c0.22-0.393,0.336-0.799,0.341-1.216
							C309.581,324.74,301.421,321.752,291.312,321.631z"/>
					</g>
					<path fill="#67AD2F" d="M309.932,326.026c-0.445,3.247-1.906,1.217-3.195,2.316c-1.335,1.138-2.095,3.144-3.769,3.807
						c-2.006,0.794-5.254-0.897-8.018-0.545c-1.934,0.246-3.709,2.395-5.87,2.369c-1.808-0.022-2.882-1.833-4.534-2.044
						c-1.539-0.196-3.935,1.211-4.946,0.262c-2.286-2.146-3.424-0.566-4.984-1.985c-1.036-0.942-2.055-3.54-2.042-4.625
						c0.049-4.112,8.452-7.346,18.768-7.223S310.491,321.952,309.932,326.026z"/>
					<path fill="#E52B19" d="M305.917,325.605c-0.422-1.835-3.229-2.832-6.269-2.225c-2.534,0.506-4.425,1.966-4.74,3.502
						c-1.018-0.752-2.581-1.244-4.342-1.265c-1.793-0.021-3.391,0.452-4.425,1.202c-0.187-1.564-2.661-2.827-5.709-2.864
						c-3.183-0.038-5.779,1.276-5.799,2.934c-0.02,1.658,2.544,3.033,5.727,3.071c1.855,0.022,3.507-0.417,4.569-1.114
						c0.013,1.783,2.488,3.252,5.559,3.289c2.86,0.034,5.23-1.186,5.589-2.793c1.184,0.782,3.089,1.085,5.101,0.684
						C304.218,329.42,306.34,327.441,305.917,325.605z"/>
					<path fill="#FFCE36" d="M309.111,321.893c-0.426,3.248-1.817,1.218-3.047,2.318c-1.273,1.139-1.999,3.146-3.595,3.809
						c-1.913,0.795-5.009-0.894-7.644-0.541c-1.844,0.247-3.538,2.397-5.598,2.373c-1.724-0.021-2.747-1.832-4.321-2.042
						c-1.467-0.196-3.753,1.213-4.716,0.265c-2.178-2.144-3.264-0.564-4.75-1.983c-0.987-0.942-1.957-3.539-1.944-4.624
						c0.049-4.112,8.062-7.351,17.897-7.233S309.646,317.819,309.111,321.893z"/>
					<g>
						<path fill="#E9904C" d="M309.393,318.277c-0.059,4.91-1.003,8.751-18.143,8.675c-16.434-0.071-17.989-4.195-17.931-9.105
							c0.003-0.228,0.023-0.456,0.062-0.688c0-0.004,0-0.004,0-0.007c0.766-4.734,8.61-9.876,18.102-9.763
							c9.55,0.114,17.307,5.506,17.874,10.278C309.384,317.87,309.396,318.074,309.393,318.277z"/>
						<path fill="#EE8726" d="M309.358,317.667c-0.353,4.197-2.666,7.301-18.083,7.231c-14.882-0.063-17.563-3.452-17.894-7.739
							c0-0.004,0-0.004,0-0.007c0.766-4.734,8.61-9.876,18.102-9.763C301.033,307.503,308.791,312.895,309.358,317.667z"/>
					</g>
				</g>
				<g>
					<g>
						<path fill="#F7B248" d="M322.04,302.661c0.135-0.582,0.03-2.477,0.03-2.477l-36.492-0.435c0,0-0.081,1.903-0.085,2.004
							c-0.008,0.179,0.016,0.356,0.055,0.531c0.726,3.326,8.57,6.027,18.172,6.142c8.926,0.106,16.386-2.058,18.039-5.02
							c0.127-0.228,0.216-0.46,0.272-0.696L322.04,302.661z"/>
						<path fill="#FFE997" d="M303.903,292.948c-10.109-0.121-18.338,2.672-18.38,6.236c-0.002,0.179,0.016,0.356,0.055,0.531
							c0.726,3.326,8.57,6.027,18.172,6.142c8.926,0.107,16.386-2.058,18.039-5.02c0.22-0.393,0.336-0.799,0.341-1.216
							C322.172,296.056,314.012,293.068,303.903,292.948z"/>
					</g>
					<g>
						<path fill="#A45217" d="M322.086,298.809c0.135-0.582,0.03-2.477,0.03-2.477l-36.492-0.435c0,0-0.081,1.903-0.085,2.004
							c-0.008,0.179,0.016,0.356,0.055,0.531c0.726,3.326,8.57,6.027,18.172,6.142c8.926,0.106,16.386-2.058,18.039-5.02
							c0.127-0.228,0.216-0.46,0.272-0.696L322.086,298.809z"/>
						<path fill="#6D390F" d="M303.949,289.097c-10.109-0.121-18.338,2.672-18.38,6.236c-0.002,0.179,0.016,0.356,0.055,0.531
							c0.726,3.326,8.57,6.027,18.172,6.142c8.926,0.106,16.386-2.058,18.039-5.02c0.22-0.393,0.336-0.799,0.341-1.216
							C322.218,292.205,314.058,289.217,303.949,289.097z"/>
					</g>
					<path fill="#67AD2F" d="M322.569,293.492c-0.445,3.247-1.906,1.217-3.195,2.316c-1.335,1.138-2.095,3.144-3.769,3.807
						c-2.006,0.794-5.254-0.897-8.018-0.545c-1.934,0.246-3.709,2.395-5.87,2.369c-1.808-0.022-2.882-1.833-4.534-2.044
						c-1.539-0.196-3.935,1.211-4.946,0.262c-2.285-2.146-3.424-0.566-4.984-1.985c-1.036-0.942-2.055-3.54-2.042-4.625
						c0.049-4.112,8.452-7.346,18.768-7.223C314.295,285.946,323.128,289.417,322.569,293.492z"/>
					<path fill="#E52B19" d="M318.554,293.071c-0.422-1.835-3.229-2.832-6.269-2.225c-2.534,0.506-4.425,1.966-4.74,3.502
						c-1.018-0.752-2.581-1.244-4.342-1.265c-1.793-0.021-3.391,0.452-4.425,1.202c-0.187-1.564-2.661-2.827-5.709-2.864
						c-3.183-0.038-5.779,1.276-5.799,2.934c-0.02,1.658,2.544,3.033,5.727,3.071c1.855,0.022,3.507-0.417,4.569-1.114
						c0.013,1.783,2.488,3.252,5.559,3.289c2.86,0.034,5.23-1.186,5.589-2.793c1.184,0.782,3.089,1.085,5.101,0.684
						C316.855,296.886,318.977,294.906,318.554,293.071z"/>
					<path fill="#FFCE36" d="M321.748,289.359c-0.426,3.248-1.817,1.218-3.047,2.318c-1.273,1.139-1.999,3.146-3.595,3.809
						c-1.913,0.795-5.009-0.894-7.644-0.541c-1.844,0.247-3.538,2.397-5.598,2.373c-1.724-0.021-2.747-1.832-4.321-2.042
						c-1.467-0.196-3.753,1.213-4.716,0.265c-2.178-2.145-3.264-0.564-4.75-1.983c-0.987-0.942-1.957-3.539-1.944-4.624
						c0.049-4.112,8.062-7.351,17.897-7.233C313.864,281.818,322.283,285.284,321.748,289.359z"/>
					<g>
						<path fill="#E9904C" d="M322.03,285.742c-0.059,4.91-1.003,8.751-18.143,8.675c-16.434-0.071-17.989-4.195-17.931-9.105
							c0.003-0.228,0.023-0.456,0.062-0.688c0-0.004,0-0.004,0-0.007c0.766-4.734,8.61-9.876,18.102-9.763
							c9.55,0.114,17.307,5.506,17.874,10.278C322.021,285.335,322.033,285.539,322.03,285.742z"/>
						<path fill="#E87E25" d="M321.995,285.132c-0.353,4.197-2.666,7.301-18.083,7.231c-14.882-0.063-17.563-3.452-17.894-7.739
							c0-0.004,0-0.004,0-0.007c0.766-4.734,8.61-9.876,18.102-9.763C313.67,274.968,321.428,280.36,321.995,285.132z"/>
					</g>
				</g>
				<g>
					<g>
						<path fill="#F7B248" d="M301.896,311.965c0.135-0.582,0.03-2.477,0.03-2.477l-36.492-0.435c0,0-0.081,1.903-0.085,2.004
							c-0.008,0.179,0.016,0.356,0.055,0.531c0.726,3.326,8.57,6.027,18.172,6.142c8.926,0.106,16.386-2.058,18.039-5.02
							c0.127-0.228,0.216-0.46,0.272-0.696L301.896,311.965z"/>
						<path fill="#FFE997" d="M283.759,302.252c-10.109-0.121-18.338,2.672-18.38,6.236c-0.002,0.179,0.016,0.356,0.055,0.531
							c0.726,3.326,8.57,6.027,18.172,6.142c8.926,0.107,16.386-2.058,18.039-5.02c0.22-0.393,0.336-0.799,0.341-1.216
							C302.028,305.361,293.868,302.373,283.759,302.252z"/>
					</g>
					<g>
						<path fill="#A45217" d="M301.942,308.114c0.135-0.582,0.03-2.477,0.03-2.477l-36.492-0.435c0,0-0.081,1.903-0.085,2.004
							c-0.008,0.179,0.016,0.356,0.055,0.531c0.726,3.326,8.57,6.027,18.172,6.142c8.926,0.106,16.386-2.058,18.039-5.02
							c0.127-0.228,0.216-0.46,0.272-0.696L301.942,308.114z"/>
						<path fill="#6D390F" d="M283.805,298.401c-10.109-0.121-18.338,2.672-18.38,6.236c-0.002,0.179,0.016,0.356,0.055,0.531
							c0.726,3.326,8.57,6.027,18.172,6.142c8.926,0.106,16.386-2.058,18.039-5.02c0.22-0.393,0.336-0.799,0.341-1.216
							C302.074,301.509,293.914,298.522,283.805,298.401z"/>
					</g>
					<path fill="#67AD2F" d="M302.425,302.796c-0.445,3.247-1.906,1.217-3.195,2.316c-1.335,1.138-2.095,3.144-3.769,3.807
						c-2.006,0.794-5.254-0.897-8.018-0.545c-1.934,0.246-3.709,2.395-5.87,2.369c-1.808-0.022-2.882-1.833-4.534-2.044
						c-1.539-0.196-3.935,1.211-4.946,0.262c-2.286-2.146-3.424-0.566-4.984-1.985c-1.036-0.942-2.055-3.54-2.042-4.625
						c0.049-4.112,8.452-7.346,18.768-7.223S302.984,298.722,302.425,302.796z"/>
					<path fill="#E52B19" d="M298.41,302.375c-0.422-1.835-3.229-2.832-6.269-2.225c-2.534,0.506-4.425,1.966-4.74,3.502
						c-1.018-0.752-2.581-1.244-4.342-1.265c-1.793-0.021-3.391,0.452-4.425,1.202c-0.187-1.564-2.661-2.827-5.709-2.864
						c-3.183-0.038-5.779,1.276-5.799,2.934c-0.02,1.658,2.544,3.033,5.727,3.071c1.855,0.022,3.507-0.417,4.569-1.114
						c0.013,1.783,2.488,3.252,5.559,3.289c2.86,0.034,5.23-1.186,5.589-2.793c1.184,0.782,3.089,1.085,5.101,0.684
						C296.711,306.19,298.832,304.21,298.41,302.375z"/>
					<path fill="#FFCE36" d="M301.604,298.663c-0.426,3.248-1.817,1.218-3.047,2.318c-1.273,1.139-1.999,3.146-3.595,3.809
						c-1.913,0.795-5.009-0.894-7.644-0.541c-1.844,0.247-3.538,2.397-5.598,2.373c-1.724-0.021-2.747-1.832-4.321-2.042
						c-1.467-0.196-3.753,1.213-4.716,0.265c-2.178-2.145-3.264-0.564-4.75-1.983c-0.987-0.942-1.957-3.539-1.944-4.624
						c0.049-4.112,8.062-7.351,17.897-7.233C293.72,291.122,302.139,294.589,301.604,298.663z"/>
					<g>
						<path fill="#E9904C" d="M301.886,295.047c-0.059,4.91-1.003,8.751-18.143,8.675c-16.434-0.071-17.989-4.195-17.931-9.105
							c0.003-0.228,0.023-0.456,0.062-0.688c0-0.004,0-0.004,0-0.007c0.766-4.734,8.61-9.876,18.102-9.763
							c9.55,0.114,17.307,5.506,17.874,10.278C301.876,294.64,301.888,294.843,301.886,295.047z"/>
						<path fill="#EE8726" d="M301.85,294.436c-0.353,4.197-2.666,7.301-18.083,7.231c-14.882-0.063-17.563-3.452-17.894-7.739
							c0-0.004,0-0.004,0-0.007c0.766-4.734,8.61-9.876,18.102-9.763C293.526,284.272,301.283,289.665,301.85,294.436z"/>
					</g>
				</g>
			</g>
		</g>
	</g>
	
		<text transform="matrix(1 0 0 1 186.9371 68.5919)" fill="#A1A354" stroke="#606032" stroke-width="2" stroke-miterlimit="10" font-family="'PTSans-Bold'" font-size="62px" letter-spacing="2">EAT AND RUN CLICKER</text>
</g>
</svg>
